<mxfile host="app.diagrams.net" modified="2024-03-12T08:45:10.043Z" agent="Mozilla/5.0 (X11; Linux x86_64) AppleWebKit/537.36 (KHTML, like Gecko) Chrome/118.0.0.0 Safari/537.36" etag="7TgZXbWJE4BLwJe9jmjC" version="24.0.5" type="github">
  <diagram name="Page-1" id="4Hp8PdabDJ5E-GwEk0FX">
    <mxGraphModel dx="3054" dy="771" grid="1" gridSize="10" guides="1" tooltips="1" connect="1" arrows="1" fold="1" page="1" pageScale="1" pageWidth="850" pageHeight="1100" math="0" shadow="0">
      <root>
        <mxCell id="0" />
        <mxCell id="1" parent="0" />
        <mxCell id="EjrTntL3J__PyC1o6Q4W-1" value="" style="rounded=0;whiteSpace=wrap;html=1;dashed=1;fillColor=#dae8fc;strokeColor=none;" vertex="1" parent="1">
          <mxGeometry x="-540" y="140" width="440" height="80" as="geometry" />
        </mxCell>
        <mxCell id="EjrTntL3J__PyC1o6Q4W-2" value="" style="rounded=0;whiteSpace=wrap;html=1;dashed=1;fillColor=#dae8fc;strokeColor=none;" vertex="1" parent="1">
          <mxGeometry x="20" y="140" width="630" height="80" as="geometry" />
        </mxCell>
        <mxCell id="EjrTntL3J__PyC1o6Q4W-3" style="edgeStyle=orthogonalEdgeStyle;rounded=0;orthogonalLoop=1;jettySize=auto;html=1;entryX=0;entryY=0.5;entryDx=0;entryDy=0;" edge="1" parent="1" source="EjrTntL3J__PyC1o6Q4W-4" target="EjrTntL3J__PyC1o6Q4W-10">
          <mxGeometry relative="1" as="geometry" />
        </mxCell>
        <mxCell id="EjrTntL3J__PyC1o6Q4W-4" value="Quant" style="rounded=1;whiteSpace=wrap;html=1;fillColor=#fff2cc;strokeColor=#d6b656;" vertex="1" parent="1">
          <mxGeometry x="-240" y="160" width="120" height="40" as="geometry" />
        </mxCell>
        <mxCell id="EjrTntL3J__PyC1o6Q4W-5" style="edgeStyle=orthogonalEdgeStyle;rounded=0;orthogonalLoop=1;jettySize=auto;html=1;entryX=0;entryY=0.5;entryDx=0;entryDy=0;" edge="1" parent="1" source="EjrTntL3J__PyC1o6Q4W-6" target="EjrTntL3J__PyC1o6Q4W-25">
          <mxGeometry relative="1" as="geometry">
            <mxPoint x="-530" y="260" as="targetPoint" />
          </mxGeometry>
        </mxCell>
        <mxCell id="EjrTntL3J__PyC1o6Q4W-6" value="input&lt;br&gt;FP16" style="rounded=0;whiteSpace=wrap;html=1;dashed=1;" vertex="1" parent="1">
          <mxGeometry x="-640" y="160" width="80" height="40" as="geometry" />
        </mxCell>
        <mxCell id="EjrTntL3J__PyC1o6Q4W-7" style="edgeStyle=orthogonalEdgeStyle;rounded=0;orthogonalLoop=1;jettySize=auto;html=1;entryX=0.5;entryY=0;entryDx=0;entryDy=0;" edge="1" parent="1" source="EjrTntL3J__PyC1o6Q4W-8" target="EjrTntL3J__PyC1o6Q4W-4">
          <mxGeometry relative="1" as="geometry" />
        </mxCell>
        <mxCell id="EjrTntL3J__PyC1o6Q4W-8" value="scale_x_orig_quant" style="rounded=0;whiteSpace=wrap;html=1;dashed=1;" vertex="1" parent="1">
          <mxGeometry x="-240" y="80" width="120" height="40" as="geometry" />
        </mxCell>
        <mxCell id="EjrTntL3J__PyC1o6Q4W-9" style="edgeStyle=orthogonalEdgeStyle;rounded=0;orthogonalLoop=1;jettySize=auto;html=1;entryX=0;entryY=0.5;entryDx=0;entryDy=0;" edge="1" parent="1" source="EjrTntL3J__PyC1o6Q4W-10" target="EjrTntL3J__PyC1o6Q4W-12">
          <mxGeometry relative="1" as="geometry" />
        </mxCell>
        <mxCell id="EjrTntL3J__PyC1o6Q4W-10" value="Quanted input&lt;br&gt;INT8" style="rounded=0;whiteSpace=wrap;html=1;dashed=1;" vertex="1" parent="1">
          <mxGeometry x="-80" y="160" width="80" height="40" as="geometry" />
        </mxCell>
        <mxCell id="EjrTntL3J__PyC1o6Q4W-11" style="edgeStyle=orthogonalEdgeStyle;rounded=0;orthogonalLoop=1;jettySize=auto;html=1;entryX=0;entryY=0.5;entryDx=0;entryDy=0;" edge="1" parent="1" source="EjrTntL3J__PyC1o6Q4W-12" target="EjrTntL3J__PyC1o6Q4W-16">
          <mxGeometry relative="1" as="geometry" />
        </mxCell>
        <mxCell id="EjrTntL3J__PyC1o6Q4W-12" value="INT8 GEMM" style="rounded=1;whiteSpace=wrap;html=1;fillColor=#d5e8d4;strokeColor=#82b366;" vertex="1" parent="1">
          <mxGeometry x="40" y="160" width="80" height="40" as="geometry" />
        </mxCell>
        <mxCell id="EjrTntL3J__PyC1o6Q4W-13" style="edgeStyle=orthogonalEdgeStyle;rounded=0;orthogonalLoop=1;jettySize=auto;html=1;entryX=0;entryY=0.5;entryDx=0;entryDy=0;" edge="1" parent="1" source="EjrTntL3J__PyC1o6Q4W-14" target="EjrTntL3J__PyC1o6Q4W-36">
          <mxGeometry relative="1" as="geometry" />
        </mxCell>
        <mxCell id="EjrTntL3J__PyC1o6Q4W-14" value="Scale" style="rounded=1;whiteSpace=wrap;html=1;fillColor=#fff2cc;strokeColor=#d6b656;" vertex="1" parent="1">
          <mxGeometry x="380" y="160" width="80" height="40" as="geometry" />
        </mxCell>
        <mxCell id="EjrTntL3J__PyC1o6Q4W-15" style="edgeStyle=orthogonalEdgeStyle;rounded=0;orthogonalLoop=1;jettySize=auto;html=1;entryX=0;entryY=0.5;entryDx=0;entryDy=0;" edge="1" parent="1" source="EjrTntL3J__PyC1o6Q4W-16" target="EjrTntL3J__PyC1o6Q4W-23">
          <mxGeometry relative="1" as="geometry">
            <mxPoint x="250" y="220" as="targetPoint" />
          </mxGeometry>
        </mxCell>
        <mxCell id="EjrTntL3J__PyC1o6Q4W-16" value="output&lt;br&gt;INT32" style="rounded=0;whiteSpace=wrap;html=1;dashed=1;" vertex="1" parent="1">
          <mxGeometry x="140" y="160" width="60" height="40" as="geometry" />
        </mxCell>
        <mxCell id="EjrTntL3J__PyC1o6Q4W-17" style="edgeStyle=orthogonalEdgeStyle;rounded=0;orthogonalLoop=1;jettySize=auto;html=1;entryX=0.5;entryY=0;entryDx=0;entryDy=0;" edge="1" parent="1" source="EjrTntL3J__PyC1o6Q4W-18" target="EjrTntL3J__PyC1o6Q4W-14">
          <mxGeometry relative="1" as="geometry" />
        </mxCell>
        <mxCell id="EjrTntL3J__PyC1o6Q4W-18" value="scale_y_accum_quant * scale_y_quant_orig" style="rounded=0;whiteSpace=wrap;html=1;dashed=1;" vertex="1" parent="1">
          <mxGeometry x="300" y="80" width="240" height="40" as="geometry" />
        </mxCell>
        <mxCell id="EjrTntL3J__PyC1o6Q4W-19" value="output&lt;br&gt;FP16" style="rounded=0;whiteSpace=wrap;html=1;dashed=1;" vertex="1" parent="1">
          <mxGeometry x="680" y="160" width="80" height="40" as="geometry" />
        </mxCell>
        <mxCell id="EjrTntL3J__PyC1o6Q4W-20" style="edgeStyle=orthogonalEdgeStyle;rounded=0;orthogonalLoop=1;jettySize=auto;html=1;entryX=0.5;entryY=0;entryDx=0;entryDy=0;" edge="1" parent="1" source="EjrTntL3J__PyC1o6Q4W-21" target="EjrTntL3J__PyC1o6Q4W-12">
          <mxGeometry relative="1" as="geometry" />
        </mxCell>
        <mxCell id="EjrTntL3J__PyC1o6Q4W-21" value="INT8 Weight" style="rounded=0;whiteSpace=wrap;html=1;dashed=1;" vertex="1" parent="1">
          <mxGeometry x="40" y="80" width="80" height="40" as="geometry" />
        </mxCell>
        <mxCell id="EjrTntL3J__PyC1o6Q4W-22" style="edgeStyle=orthogonalEdgeStyle;rounded=0;orthogonalLoop=1;jettySize=auto;html=1;entryX=0;entryY=0.5;entryDx=0;entryDy=0;" edge="1" parent="1" source="EjrTntL3J__PyC1o6Q4W-23" target="EjrTntL3J__PyC1o6Q4W-31">
          <mxGeometry relative="1" as="geometry" />
        </mxCell>
        <mxCell id="EjrTntL3J__PyC1o6Q4W-23" value="Convert" style="rounded=1;whiteSpace=wrap;html=1;fillColor=#e1d5e7;strokeColor=#9673a6;" vertex="1" parent="1">
          <mxGeometry x="220" y="160" width="60" height="40" as="geometry" />
        </mxCell>
        <mxCell id="EjrTntL3J__PyC1o6Q4W-24" style="edgeStyle=orthogonalEdgeStyle;rounded=0;orthogonalLoop=1;jettySize=auto;html=1;entryX=0;entryY=0.5;entryDx=0;entryDy=0;" edge="1" parent="1" source="EjrTntL3J__PyC1o6Q4W-25" target="EjrTntL3J__PyC1o6Q4W-27">
          <mxGeometry relative="1" as="geometry" />
        </mxCell>
        <mxCell id="EjrTntL3J__PyC1o6Q4W-25" value="LayerNorm" style="rounded=1;whiteSpace=wrap;html=1;fillColor=#fff2cc;strokeColor=#d6b656;" vertex="1" parent="1">
          <mxGeometry x="-520" y="160" width="80" height="40" as="geometry" />
        </mxCell>
        <mxCell id="EjrTntL3J__PyC1o6Q4W-26" style="edgeStyle=orthogonalEdgeStyle;rounded=0;orthogonalLoop=1;jettySize=auto;html=1;entryX=0;entryY=0.5;entryDx=0;entryDy=0;" edge="1" parent="1" source="EjrTntL3J__PyC1o6Q4W-27" target="EjrTntL3J__PyC1o6Q4W-4">
          <mxGeometry relative="1" as="geometry" />
        </mxCell>
        <mxCell id="EjrTntL3J__PyC1o6Q4W-27" value="Smoothed data&lt;br&gt;FP16" style="rounded=0;whiteSpace=wrap;html=1;dashed=1;" vertex="1" parent="1">
          <mxGeometry x="-400" y="160" width="120" height="40" as="geometry" />
        </mxCell>
        <mxCell id="EjrTntL3J__PyC1o6Q4W-28" style="edgeStyle=orthogonalEdgeStyle;rounded=0;orthogonalLoop=1;jettySize=auto;html=1;entryX=0.5;entryY=0;entryDx=0;entryDy=0;" edge="1" parent="1" source="EjrTntL3J__PyC1o6Q4W-29" target="EjrTntL3J__PyC1o6Q4W-25">
          <mxGeometry relative="1" as="geometry" />
        </mxCell>
        <mxCell id="EjrTntL3J__PyC1o6Q4W-29" value="smoothed alpha/beta" style="rounded=0;whiteSpace=wrap;html=1;dashed=1;" vertex="1" parent="1">
          <mxGeometry x="-520" y="80" width="80" height="40" as="geometry" />
        </mxCell>
        <mxCell id="EjrTntL3J__PyC1o6Q4W-30" style="edgeStyle=orthogonalEdgeStyle;rounded=0;orthogonalLoop=1;jettySize=auto;html=1;entryX=0;entryY=0.5;entryDx=0;entryDy=0;" edge="1" parent="1" source="EjrTntL3J__PyC1o6Q4W-31" target="EjrTntL3J__PyC1o6Q4W-14">
          <mxGeometry relative="1" as="geometry" />
        </mxCell>
        <mxCell id="EjrTntL3J__PyC1o6Q4W-31" value="output&lt;br&gt;FLOAT" style="rounded=0;whiteSpace=wrap;html=1;dashed=1;" vertex="1" parent="1">
          <mxGeometry x="300" y="160" width="60" height="40" as="geometry" />
        </mxCell>
        <mxCell id="EjrTntL3J__PyC1o6Q4W-32" value="Fused Kernel" style="rounded=0;whiteSpace=wrap;html=1;dashed=1;fillColor=#dae8fc;strokeColor=none;" vertex="1" parent="1">
          <mxGeometry x="280" y="240" width="80" height="30" as="geometry" />
        </mxCell>
        <mxCell id="EjrTntL3J__PyC1o6Q4W-33" value="Convert" style="rounded=1;whiteSpace=wrap;html=1;fillColor=#e1d5e7;strokeColor=#9673a6;" vertex="1" parent="1">
          <mxGeometry x="570" y="160" width="60" height="40" as="geometry" />
        </mxCell>
        <mxCell id="EjrTntL3J__PyC1o6Q4W-34" style="edgeStyle=orthogonalEdgeStyle;rounded=0;orthogonalLoop=1;jettySize=auto;html=1;entryX=0;entryY=0.5;entryDx=0;entryDy=0;exitX=1;exitY=0.5;exitDx=0;exitDy=0;" edge="1" parent="1" source="EjrTntL3J__PyC1o6Q4W-33" target="EjrTntL3J__PyC1o6Q4W-19">
          <mxGeometry relative="1" as="geometry" />
        </mxCell>
        <mxCell id="EjrTntL3J__PyC1o6Q4W-35" style="edgeStyle=orthogonalEdgeStyle;rounded=0;orthogonalLoop=1;jettySize=auto;html=1;entryX=0;entryY=0.5;entryDx=0;entryDy=0;" edge="1" parent="1" source="EjrTntL3J__PyC1o6Q4W-36" target="EjrTntL3J__PyC1o6Q4W-33">
          <mxGeometry relative="1" as="geometry" />
        </mxCell>
        <mxCell id="EjrTntL3J__PyC1o6Q4W-36" value="output&lt;br&gt;FLOAT" style="rounded=0;whiteSpace=wrap;html=1;dashed=1;" vertex="1" parent="1">
          <mxGeometry x="480" y="160" width="60" height="40" as="geometry" />
        </mxCell>
        <mxCell id="EjrTntL3J__PyC1o6Q4W-37" style="edgeStyle=orthogonalEdgeStyle;rounded=0;orthogonalLoop=1;jettySize=auto;html=1;entryX=0;entryY=0.5;entryDx=0;entryDy=0;" edge="1" parent="1" source="EjrTntL3J__PyC1o6Q4W-38" target="EjrTntL3J__PyC1o6Q4W-43">
          <mxGeometry relative="1" as="geometry" />
        </mxCell>
        <mxCell id="EjrTntL3J__PyC1o6Q4W-38" value="Quant" style="rounded=1;whiteSpace=wrap;html=1;fillColor=#fff2cc;strokeColor=#d6b656;" vertex="1" parent="1">
          <mxGeometry x="-250" y="490" width="120" height="40" as="geometry" />
        </mxCell>
        <mxCell id="EjrTntL3J__PyC1o6Q4W-39" style="edgeStyle=orthogonalEdgeStyle;rounded=0;orthogonalLoop=1;jettySize=auto;html=1;entryX=0;entryY=0.5;entryDx=0;entryDy=0;" edge="1" parent="1" source="EjrTntL3J__PyC1o6Q4W-40" target="EjrTntL3J__PyC1o6Q4W-45">
          <mxGeometry relative="1" as="geometry">
            <mxPoint x="-540" y="590" as="targetPoint" />
          </mxGeometry>
        </mxCell>
        <mxCell id="EjrTntL3J__PyC1o6Q4W-40" value="input&lt;br&gt;FP16" style="rounded=0;whiteSpace=wrap;html=1;dashed=1;" vertex="1" parent="1">
          <mxGeometry x="-650" y="490" width="80" height="40" as="geometry" />
        </mxCell>
        <mxCell id="EjrTntL3J__PyC1o6Q4W-41" style="edgeStyle=orthogonalEdgeStyle;rounded=0;orthogonalLoop=1;jettySize=auto;html=1;entryX=0.5;entryY=0;entryDx=0;entryDy=0;" edge="1" parent="1" source="EjrTntL3J__PyC1o6Q4W-42" target="EjrTntL3J__PyC1o6Q4W-38">
          <mxGeometry relative="1" as="geometry" />
        </mxCell>
        <mxCell id="EjrTntL3J__PyC1o6Q4W-42" value="scale_x_orig_quant" style="rounded=0;whiteSpace=wrap;html=1;dashed=1;" vertex="1" parent="1">
          <mxGeometry x="-250" y="410" width="120" height="40" as="geometry" />
        </mxCell>
        <mxCell id="EjrTntL3J__PyC1o6Q4W-43" value="Quanted input&lt;br&gt;INT8" style="rounded=0;whiteSpace=wrap;html=1;dashed=1;" vertex="1" parent="1">
          <mxGeometry x="-90" y="490" width="80" height="40" as="geometry" />
        </mxCell>
        <mxCell id="EjrTntL3J__PyC1o6Q4W-44" style="edgeStyle=orthogonalEdgeStyle;rounded=0;orthogonalLoop=1;jettySize=auto;html=1;entryX=0;entryY=0.5;entryDx=0;entryDy=0;" edge="1" parent="1" source="EjrTntL3J__PyC1o6Q4W-45" target="EjrTntL3J__PyC1o6Q4W-47">
          <mxGeometry relative="1" as="geometry" />
        </mxCell>
        <mxCell id="EjrTntL3J__PyC1o6Q4W-45" value="Smooth" style="rounded=1;whiteSpace=wrap;html=1;fillColor=#fff2cc;strokeColor=#d6b656;" vertex="1" parent="1">
          <mxGeometry x="-530" y="490" width="80" height="40" as="geometry" />
        </mxCell>
        <mxCell id="EjrTntL3J__PyC1o6Q4W-46" style="edgeStyle=orthogonalEdgeStyle;rounded=0;orthogonalLoop=1;jettySize=auto;html=1;entryX=0;entryY=0.5;entryDx=0;entryDy=0;" edge="1" parent="1" source="EjrTntL3J__PyC1o6Q4W-47" target="EjrTntL3J__PyC1o6Q4W-38">
          <mxGeometry relative="1" as="geometry" />
        </mxCell>
        <mxCell id="EjrTntL3J__PyC1o6Q4W-47" value="Smoothed input&lt;br&gt;FP16" style="rounded=0;whiteSpace=wrap;html=1;dashed=1;" vertex="1" parent="1">
          <mxGeometry x="-410" y="490" width="120" height="40" as="geometry" />
        </mxCell>
        <mxCell id="EjrTntL3J__PyC1o6Q4W-48" style="edgeStyle=orthogonalEdgeStyle;rounded=0;orthogonalLoop=1;jettySize=auto;html=1;entryX=0.5;entryY=0;entryDx=0;entryDy=0;" edge="1" parent="1" source="EjrTntL3J__PyC1o6Q4W-49" target="EjrTntL3J__PyC1o6Q4W-45">
          <mxGeometry relative="1" as="geometry" />
        </mxCell>
        <mxCell id="EjrTntL3J__PyC1o6Q4W-49" value="smoother" style="rounded=0;whiteSpace=wrap;html=1;dashed=1;" vertex="1" parent="1">
          <mxGeometry x="-530" y="410" width="80" height="40" as="geometry" />
        </mxCell>
        <mxCell id="EjrTntL3J__PyC1o6Q4W-50" value="Fused Kernel" style="rounded=0;whiteSpace=wrap;html=1;dashed=1;fillColor=#dae8fc;strokeColor=none;" vertex="1" parent="1">
          <mxGeometry x="270" y="570" width="80" height="30" as="geometry" />
        </mxCell>
        <mxCell id="EjrTntL3J__PyC1o6Q4W-51" value="" style="rounded=0;whiteSpace=wrap;html=1;dashed=1;fillColor=#dae8fc;strokeColor=none;" vertex="1" parent="1">
          <mxGeometry x="10" y="470" width="630" height="80" as="geometry" />
        </mxCell>
        <mxCell id="EjrTntL3J__PyC1o6Q4W-52" style="edgeStyle=orthogonalEdgeStyle;rounded=0;orthogonalLoop=1;jettySize=auto;html=1;entryX=0;entryY=0.5;entryDx=0;entryDy=0;" edge="1" parent="1" source="EjrTntL3J__PyC1o6Q4W-53" target="EjrTntL3J__PyC1o6Q4W-57">
          <mxGeometry relative="1" as="geometry" />
        </mxCell>
        <mxCell id="EjrTntL3J__PyC1o6Q4W-53" value="INT8 GEMM" style="rounded=1;whiteSpace=wrap;html=1;fillColor=#d5e8d4;strokeColor=#82b366;" vertex="1" parent="1">
          <mxGeometry x="30" y="490" width="80" height="40" as="geometry" />
        </mxCell>
        <mxCell id="EjrTntL3J__PyC1o6Q4W-54" style="edgeStyle=orthogonalEdgeStyle;rounded=0;orthogonalLoop=1;jettySize=auto;html=1;entryX=0;entryY=0.5;entryDx=0;entryDy=0;" edge="1" parent="1" source="EjrTntL3J__PyC1o6Q4W-55" target="EjrTntL3J__PyC1o6Q4W-70">
          <mxGeometry relative="1" as="geometry" />
        </mxCell>
        <mxCell id="EjrTntL3J__PyC1o6Q4W-55" value="Scale" style="rounded=1;whiteSpace=wrap;html=1;fillColor=#fff2cc;strokeColor=#d6b656;" vertex="1" parent="1">
          <mxGeometry x="370" y="490" width="80" height="40" as="geometry" />
        </mxCell>
        <mxCell id="EjrTntL3J__PyC1o6Q4W-56" style="edgeStyle=orthogonalEdgeStyle;rounded=0;orthogonalLoop=1;jettySize=auto;html=1;entryX=0;entryY=0.5;entryDx=0;entryDy=0;" edge="1" parent="1" source="EjrTntL3J__PyC1o6Q4W-57" target="EjrTntL3J__PyC1o6Q4W-64">
          <mxGeometry relative="1" as="geometry">
            <mxPoint x="240" y="550" as="targetPoint" />
          </mxGeometry>
        </mxCell>
        <mxCell id="EjrTntL3J__PyC1o6Q4W-57" value="output&lt;br&gt;INT32" style="rounded=0;whiteSpace=wrap;html=1;dashed=1;" vertex="1" parent="1">
          <mxGeometry x="130" y="490" width="60" height="40" as="geometry" />
        </mxCell>
        <mxCell id="EjrTntL3J__PyC1o6Q4W-58" style="edgeStyle=orthogonalEdgeStyle;rounded=0;orthogonalLoop=1;jettySize=auto;html=1;entryX=0.5;entryY=0;entryDx=0;entryDy=0;" edge="1" parent="1" source="EjrTntL3J__PyC1o6Q4W-59" target="EjrTntL3J__PyC1o6Q4W-55">
          <mxGeometry relative="1" as="geometry" />
        </mxCell>
        <mxCell id="EjrTntL3J__PyC1o6Q4W-59" value="scale_y_accum_quant * scale_y_quant_orig" style="rounded=0;whiteSpace=wrap;html=1;dashed=1;" vertex="1" parent="1">
          <mxGeometry x="290" y="410" width="240" height="40" as="geometry" />
        </mxCell>
        <mxCell id="EjrTntL3J__PyC1o6Q4W-60" value="output&lt;br&gt;FP16" style="rounded=0;whiteSpace=wrap;html=1;dashed=1;" vertex="1" parent="1">
          <mxGeometry x="670" y="490" width="80" height="40" as="geometry" />
        </mxCell>
        <mxCell id="EjrTntL3J__PyC1o6Q4W-61" style="edgeStyle=orthogonalEdgeStyle;rounded=0;orthogonalLoop=1;jettySize=auto;html=1;entryX=0.5;entryY=0;entryDx=0;entryDy=0;" edge="1" parent="1" source="EjrTntL3J__PyC1o6Q4W-62" target="EjrTntL3J__PyC1o6Q4W-53">
          <mxGeometry relative="1" as="geometry" />
        </mxCell>
        <mxCell id="EjrTntL3J__PyC1o6Q4W-62" value="INT8 Weight" style="rounded=0;whiteSpace=wrap;html=1;dashed=1;" vertex="1" parent="1">
          <mxGeometry x="30" y="410" width="80" height="40" as="geometry" />
        </mxCell>
        <mxCell id="EjrTntL3J__PyC1o6Q4W-63" style="edgeStyle=orthogonalEdgeStyle;rounded=0;orthogonalLoop=1;jettySize=auto;html=1;entryX=0;entryY=0.5;entryDx=0;entryDy=0;" edge="1" parent="1" source="EjrTntL3J__PyC1o6Q4W-64" target="EjrTntL3J__PyC1o6Q4W-66">
          <mxGeometry relative="1" as="geometry" />
        </mxCell>
        <mxCell id="EjrTntL3J__PyC1o6Q4W-64" value="Convert" style="rounded=1;whiteSpace=wrap;html=1;fillColor=#e1d5e7;strokeColor=#9673a6;" vertex="1" parent="1">
          <mxGeometry x="210" y="490" width="60" height="40" as="geometry" />
        </mxCell>
        <mxCell id="EjrTntL3J__PyC1o6Q4W-65" style="edgeStyle=orthogonalEdgeStyle;rounded=0;orthogonalLoop=1;jettySize=auto;html=1;entryX=0;entryY=0.5;entryDx=0;entryDy=0;" edge="1" parent="1" source="EjrTntL3J__PyC1o6Q4W-66" target="EjrTntL3J__PyC1o6Q4W-55">
          <mxGeometry relative="1" as="geometry" />
        </mxCell>
        <mxCell id="EjrTntL3J__PyC1o6Q4W-66" value="output&lt;br&gt;FLOAT" style="rounded=0;whiteSpace=wrap;html=1;dashed=1;" vertex="1" parent="1">
          <mxGeometry x="290" y="490" width="60" height="40" as="geometry" />
        </mxCell>
        <mxCell id="EjrTntL3J__PyC1o6Q4W-67" value="Convert" style="rounded=1;whiteSpace=wrap;html=1;fillColor=#e1d5e7;strokeColor=#9673a6;" vertex="1" parent="1">
          <mxGeometry x="560" y="490" width="60" height="40" as="geometry" />
        </mxCell>
        <mxCell id="EjrTntL3J__PyC1o6Q4W-68" style="edgeStyle=orthogonalEdgeStyle;rounded=0;orthogonalLoop=1;jettySize=auto;html=1;entryX=0;entryY=0.5;entryDx=0;entryDy=0;exitX=1;exitY=0.5;exitDx=0;exitDy=0;" edge="1" parent="1" source="EjrTntL3J__PyC1o6Q4W-67" target="EjrTntL3J__PyC1o6Q4W-60">
          <mxGeometry relative="1" as="geometry" />
        </mxCell>
        <mxCell id="EjrTntL3J__PyC1o6Q4W-69" style="edgeStyle=orthogonalEdgeStyle;rounded=0;orthogonalLoop=1;jettySize=auto;html=1;entryX=0;entryY=0.5;entryDx=0;entryDy=0;" edge="1" parent="1" source="EjrTntL3J__PyC1o6Q4W-70" target="EjrTntL3J__PyC1o6Q4W-67">
          <mxGeometry relative="1" as="geometry" />
        </mxCell>
        <mxCell id="EjrTntL3J__PyC1o6Q4W-70" value="output&lt;br&gt;FLOAT" style="rounded=0;whiteSpace=wrap;html=1;dashed=1;" vertex="1" parent="1">
          <mxGeometry x="470" y="490" width="60" height="40" as="geometry" />
        </mxCell>
        <mxCell id="EjrTntL3J__PyC1o6Q4W-71" style="edgeStyle=orthogonalEdgeStyle;rounded=0;orthogonalLoop=1;jettySize=auto;html=1;entryX=0;entryY=0.5;entryDx=0;entryDy=0;" edge="1" parent="1" source="EjrTntL3J__PyC1o6Q4W-43" target="EjrTntL3J__PyC1o6Q4W-53">
          <mxGeometry relative="1" as="geometry">
            <mxPoint x="30" y="510" as="targetPoint" />
          </mxGeometry>
        </mxCell>
        <mxCell id="EjrTntL3J__PyC1o6Q4W-97" value="" style="rounded=0;whiteSpace=wrap;html=1;dashed=1;strokeColor=none;fillColor=#dae8fc;" vertex="1" parent="1">
          <mxGeometry x="-570" y="1810" width="280" height="60" as="geometry" />
        </mxCell>
        <mxCell id="EjrTntL3J__PyC1o6Q4W-98" style="edgeStyle=orthogonalEdgeStyle;rounded=0;orthogonalLoop=1;jettySize=auto;html=1;entryX=0;entryY=0.5;entryDx=0;entryDy=0;" edge="1" parent="1" source="EjrTntL3J__PyC1o6Q4W-99" target="EjrTntL3J__PyC1o6Q4W-105">
          <mxGeometry relative="1" as="geometry" />
        </mxCell>
        <mxCell id="EjrTntL3J__PyC1o6Q4W-99" value="Smooth &amp;amp; Quant" style="rounded=1;whiteSpace=wrap;html=1;fillColor=#fff2cc;strokeColor=#d6b656;" vertex="1" parent="1">
          <mxGeometry x="-430" y="1820" width="120" height="40" as="geometry" />
        </mxCell>
        <mxCell id="EjrTntL3J__PyC1o6Q4W-100" style="edgeStyle=orthogonalEdgeStyle;rounded=0;orthogonalLoop=1;jettySize=auto;html=1;entryX=0;entryY=0.5;entryDx=0;entryDy=0;" edge="1" parent="1" source="EjrTntL3J__PyC1o6Q4W-101" target="EjrTntL3J__PyC1o6Q4W-118">
          <mxGeometry relative="1" as="geometry" />
        </mxCell>
        <mxCell id="EjrTntL3J__PyC1o6Q4W-101" value="input&lt;br&gt;FP16" style="rounded=0;whiteSpace=wrap;html=1;dashed=1;" vertex="1" parent="1">
          <mxGeometry x="-670" y="1820" width="80" height="40" as="geometry" />
        </mxCell>
        <mxCell id="EjrTntL3J__PyC1o6Q4W-102" style="edgeStyle=orthogonalEdgeStyle;rounded=0;orthogonalLoop=1;jettySize=auto;html=1;entryX=0.5;entryY=0;entryDx=0;entryDy=0;" edge="1" parent="1" source="EjrTntL3J__PyC1o6Q4W-103" target="EjrTntL3J__PyC1o6Q4W-99">
          <mxGeometry relative="1" as="geometry" />
        </mxCell>
        <mxCell id="EjrTntL3J__PyC1o6Q4W-103" value="scale_x_perchannel" style="rounded=0;whiteSpace=wrap;html=1;dashed=1;" vertex="1" parent="1">
          <mxGeometry x="-430" y="1740" width="120" height="40" as="geometry" />
        </mxCell>
        <mxCell id="EjrTntL3J__PyC1o6Q4W-104" style="edgeStyle=orthogonalEdgeStyle;rounded=0;orthogonalLoop=1;jettySize=auto;html=1;entryX=0;entryY=0.5;entryDx=0;entryDy=0;" edge="1" parent="1" source="EjrTntL3J__PyC1o6Q4W-105" target="EjrTntL3J__PyC1o6Q4W-107">
          <mxGeometry relative="1" as="geometry" />
        </mxCell>
        <mxCell id="EjrTntL3J__PyC1o6Q4W-105" value="Quanted data&lt;br&gt;INT8" style="rounded=0;whiteSpace=wrap;html=1;dashed=1;" vertex="1" parent="1">
          <mxGeometry x="-270" y="1820" width="80" height="40" as="geometry" />
        </mxCell>
        <mxCell id="EjrTntL3J__PyC1o6Q4W-106" style="edgeStyle=orthogonalEdgeStyle;rounded=0;orthogonalLoop=1;jettySize=auto;html=1;entryX=0;entryY=0.5;entryDx=0;entryDy=0;" edge="1" parent="1" source="EjrTntL3J__PyC1o6Q4W-107" target="EjrTntL3J__PyC1o6Q4W-111">
          <mxGeometry relative="1" as="geometry" />
        </mxCell>
        <mxCell id="EjrTntL3J__PyC1o6Q4W-107" value="INT8 GEMM" style="rounded=1;whiteSpace=wrap;html=1;fillColor=#d5e8d4;strokeColor=#82b366;" vertex="1" parent="1">
          <mxGeometry x="-150" y="1820" width="80" height="40" as="geometry" />
        </mxCell>
        <mxCell id="EjrTntL3J__PyC1o6Q4W-108" style="edgeStyle=orthogonalEdgeStyle;rounded=0;orthogonalLoop=1;jettySize=auto;html=1;entryX=0;entryY=0.5;entryDx=0;entryDy=0;" edge="1" parent="1" source="EjrTntL3J__PyC1o6Q4W-109" target="EjrTntL3J__PyC1o6Q4W-114">
          <mxGeometry relative="1" as="geometry" />
        </mxCell>
        <mxCell id="EjrTntL3J__PyC1o6Q4W-109" value="DeQuant" style="rounded=1;whiteSpace=wrap;html=1;fillColor=#fff2cc;strokeColor=#d6b656;" vertex="1" parent="1">
          <mxGeometry x="90" y="1820" width="120" height="40" as="geometry" />
        </mxCell>
        <mxCell id="EjrTntL3J__PyC1o6Q4W-110" style="edgeStyle=orthogonalEdgeStyle;rounded=0;orthogonalLoop=1;jettySize=auto;html=1;entryX=0;entryY=0.5;entryDx=0;entryDy=0;" edge="1" parent="1" source="EjrTntL3J__PyC1o6Q4W-111" target="EjrTntL3J__PyC1o6Q4W-109">
          <mxGeometry relative="1" as="geometry" />
        </mxCell>
        <mxCell id="EjrTntL3J__PyC1o6Q4W-111" value="output&lt;br&gt;INT32" style="rounded=0;whiteSpace=wrap;html=1;dashed=1;" vertex="1" parent="1">
          <mxGeometry x="-30" y="1820" width="80" height="40" as="geometry" />
        </mxCell>
        <mxCell id="EjrTntL3J__PyC1o6Q4W-112" style="edgeStyle=orthogonalEdgeStyle;rounded=0;orthogonalLoop=1;jettySize=auto;html=1;entryX=0.5;entryY=0;entryDx=0;entryDy=0;" edge="1" parent="1" source="EjrTntL3J__PyC1o6Q4W-113" target="EjrTntL3J__PyC1o6Q4W-109">
          <mxGeometry relative="1" as="geometry" />
        </mxCell>
        <mxCell id="EjrTntL3J__PyC1o6Q4W-113" value="scale_w_perchannel" style="rounded=0;whiteSpace=wrap;html=1;dashed=1;" vertex="1" parent="1">
          <mxGeometry x="90" y="1740" width="120" height="40" as="geometry" />
        </mxCell>
        <mxCell id="EjrTntL3J__PyC1o6Q4W-114" value="output&lt;br&gt;FP16" style="rounded=0;whiteSpace=wrap;html=1;dashed=1;" vertex="1" parent="1">
          <mxGeometry x="250" y="1820" width="80" height="40" as="geometry" />
        </mxCell>
        <mxCell id="EjrTntL3J__PyC1o6Q4W-115" style="edgeStyle=orthogonalEdgeStyle;rounded=0;orthogonalLoop=1;jettySize=auto;html=1;entryX=0.5;entryY=0;entryDx=0;entryDy=0;" edge="1" parent="1" source="EjrTntL3J__PyC1o6Q4W-116" target="EjrTntL3J__PyC1o6Q4W-107">
          <mxGeometry relative="1" as="geometry" />
        </mxCell>
        <mxCell id="EjrTntL3J__PyC1o6Q4W-116" value="INT8 Weight" style="rounded=0;whiteSpace=wrap;html=1;dashed=1;" vertex="1" parent="1">
          <mxGeometry x="-150" y="1740" width="80" height="40" as="geometry" />
        </mxCell>
        <mxCell id="EjrTntL3J__PyC1o6Q4W-117" style="edgeStyle=orthogonalEdgeStyle;rounded=0;orthogonalLoop=1;jettySize=auto;html=1;entryX=0;entryY=0.5;entryDx=0;entryDy=0;" edge="1" parent="1" source="EjrTntL3J__PyC1o6Q4W-118" target="EjrTntL3J__PyC1o6Q4W-99">
          <mxGeometry relative="1" as="geometry" />
        </mxCell>
        <mxCell id="EjrTntL3J__PyC1o6Q4W-118" value="LayerNorm" style="rounded=1;whiteSpace=wrap;html=1;fillColor=#fff2cc;strokeColor=#d6b656;" vertex="1" parent="1">
          <mxGeometry x="-550" y="1820" width="80" height="40" as="geometry" />
        </mxCell>
        <mxCell id="EjrTntL3J__PyC1o6Q4W-119" value="fused kernel" style="rounded=0;whiteSpace=wrap;html=1;dashed=1;strokeColor=none;fillColor=#dae8fc;" vertex="1" parent="1">
          <mxGeometry x="-670" y="1910" width="80" height="30" as="geometry" />
        </mxCell>
        <mxCell id="EjrTntL3J__PyC1o6Q4W-120" style="edgeStyle=orthogonalEdgeStyle;rounded=0;orthogonalLoop=1;jettySize=auto;html=1;entryX=0.5;entryY=0;entryDx=0;entryDy=0;" edge="1" parent="1" source="EjrTntL3J__PyC1o6Q4W-121" target="EjrTntL3J__PyC1o6Q4W-118">
          <mxGeometry relative="1" as="geometry" />
        </mxCell>
        <mxCell id="EjrTntL3J__PyC1o6Q4W-121" value="alpha/beta" style="rounded=0;whiteSpace=wrap;html=1;dashed=1;" vertex="1" parent="1">
          <mxGeometry x="-550" y="1740" width="80" height="40" as="geometry" />
        </mxCell>
        <mxCell id="EjrTntL3J__PyC1o6Q4W-122" style="edgeStyle=orthogonalEdgeStyle;rounded=0;orthogonalLoop=1;jettySize=auto;html=1;entryX=0;entryY=0.5;entryDx=0;entryDy=0;" edge="1" parent="1" source="EjrTntL3J__PyC1o6Q4W-123" target="EjrTntL3J__PyC1o6Q4W-129">
          <mxGeometry relative="1" as="geometry" />
        </mxCell>
        <mxCell id="EjrTntL3J__PyC1o6Q4W-123" value="Smooth &amp;amp; Quant" style="rounded=1;whiteSpace=wrap;html=1;fillColor=#fff2cc;strokeColor=#d6b656;" vertex="1" parent="1">
          <mxGeometry x="-500" y="2140" width="120" height="40" as="geometry" />
        </mxCell>
        <mxCell id="EjrTntL3J__PyC1o6Q4W-124" style="edgeStyle=orthogonalEdgeStyle;rounded=0;orthogonalLoop=1;jettySize=auto;html=1;entryX=0;entryY=0.5;entryDx=0;entryDy=0;" edge="1" parent="1" source="EjrTntL3J__PyC1o6Q4W-125" target="EjrTntL3J__PyC1o6Q4W-123">
          <mxGeometry relative="1" as="geometry" />
        </mxCell>
        <mxCell id="EjrTntL3J__PyC1o6Q4W-125" value="input&lt;br&gt;FP16" style="rounded=0;whiteSpace=wrap;html=1;dashed=1;" vertex="1" parent="1">
          <mxGeometry x="-620" y="2140" width="80" height="40" as="geometry" />
        </mxCell>
        <mxCell id="EjrTntL3J__PyC1o6Q4W-126" style="edgeStyle=orthogonalEdgeStyle;rounded=0;orthogonalLoop=1;jettySize=auto;html=1;entryX=0.5;entryY=0;entryDx=0;entryDy=0;" edge="1" parent="1" source="EjrTntL3J__PyC1o6Q4W-127" target="EjrTntL3J__PyC1o6Q4W-123">
          <mxGeometry relative="1" as="geometry" />
        </mxCell>
        <mxCell id="EjrTntL3J__PyC1o6Q4W-127" value="scale_x_perchannel" style="rounded=0;whiteSpace=wrap;html=1;dashed=1;" vertex="1" parent="1">
          <mxGeometry x="-500" y="2060" width="120" height="40" as="geometry" />
        </mxCell>
        <mxCell id="EjrTntL3J__PyC1o6Q4W-128" style="edgeStyle=orthogonalEdgeStyle;rounded=0;orthogonalLoop=1;jettySize=auto;html=1;entryX=0;entryY=0.5;entryDx=0;entryDy=0;" edge="1" parent="1" source="EjrTntL3J__PyC1o6Q4W-129" target="EjrTntL3J__PyC1o6Q4W-131">
          <mxGeometry relative="1" as="geometry" />
        </mxCell>
        <mxCell id="EjrTntL3J__PyC1o6Q4W-129" value="Quanted data&lt;br&gt;INT8" style="rounded=0;whiteSpace=wrap;html=1;dashed=1;" vertex="1" parent="1">
          <mxGeometry x="-340" y="2140" width="80" height="40" as="geometry" />
        </mxCell>
        <mxCell id="EjrTntL3J__PyC1o6Q4W-130" style="edgeStyle=orthogonalEdgeStyle;rounded=0;orthogonalLoop=1;jettySize=auto;html=1;entryX=0;entryY=0.5;entryDx=0;entryDy=0;" edge="1" parent="1" source="EjrTntL3J__PyC1o6Q4W-131" target="EjrTntL3J__PyC1o6Q4W-135">
          <mxGeometry relative="1" as="geometry" />
        </mxCell>
        <mxCell id="EjrTntL3J__PyC1o6Q4W-131" value="INT8 GEMM" style="rounded=1;whiteSpace=wrap;html=1;fillColor=#d5e8d4;strokeColor=#82b366;" vertex="1" parent="1">
          <mxGeometry x="-220" y="2140" width="80" height="40" as="geometry" />
        </mxCell>
        <mxCell id="EjrTntL3J__PyC1o6Q4W-132" style="edgeStyle=orthogonalEdgeStyle;rounded=0;orthogonalLoop=1;jettySize=auto;html=1;entryX=0;entryY=0.5;entryDx=0;entryDy=0;" edge="1" parent="1" source="EjrTntL3J__PyC1o6Q4W-133" target="EjrTntL3J__PyC1o6Q4W-138">
          <mxGeometry relative="1" as="geometry" />
        </mxCell>
        <mxCell id="EjrTntL3J__PyC1o6Q4W-133" value="DeQuant" style="rounded=1;whiteSpace=wrap;html=1;fillColor=#fff2cc;strokeColor=#d6b656;" vertex="1" parent="1">
          <mxGeometry x="20" y="2140" width="120" height="40" as="geometry" />
        </mxCell>
        <mxCell id="EjrTntL3J__PyC1o6Q4W-134" style="edgeStyle=orthogonalEdgeStyle;rounded=0;orthogonalLoop=1;jettySize=auto;html=1;entryX=0;entryY=0.5;entryDx=0;entryDy=0;" edge="1" parent="1" source="EjrTntL3J__PyC1o6Q4W-135" target="EjrTntL3J__PyC1o6Q4W-133">
          <mxGeometry relative="1" as="geometry" />
        </mxCell>
        <mxCell id="EjrTntL3J__PyC1o6Q4W-135" value="output&lt;br&gt;INT32" style="rounded=0;whiteSpace=wrap;html=1;dashed=1;" vertex="1" parent="1">
          <mxGeometry x="-100" y="2140" width="80" height="40" as="geometry" />
        </mxCell>
        <mxCell id="EjrTntL3J__PyC1o6Q4W-136" style="edgeStyle=orthogonalEdgeStyle;rounded=0;orthogonalLoop=1;jettySize=auto;html=1;entryX=0.5;entryY=0;entryDx=0;entryDy=0;" edge="1" parent="1" source="EjrTntL3J__PyC1o6Q4W-137" target="EjrTntL3J__PyC1o6Q4W-133">
          <mxGeometry relative="1" as="geometry" />
        </mxCell>
        <mxCell id="EjrTntL3J__PyC1o6Q4W-137" value="scale_w_perchannel" style="rounded=0;whiteSpace=wrap;html=1;dashed=1;" vertex="1" parent="1">
          <mxGeometry x="20" y="2060" width="120" height="40" as="geometry" />
        </mxCell>
        <mxCell id="EjrTntL3J__PyC1o6Q4W-138" value="output&lt;br&gt;FP16" style="rounded=0;whiteSpace=wrap;html=1;dashed=1;" vertex="1" parent="1">
          <mxGeometry x="180" y="2140" width="80" height="40" as="geometry" />
        </mxCell>
        <mxCell id="EjrTntL3J__PyC1o6Q4W-139" style="edgeStyle=orthogonalEdgeStyle;rounded=0;orthogonalLoop=1;jettySize=auto;html=1;entryX=0.5;entryY=0;entryDx=0;entryDy=0;" edge="1" parent="1" source="EjrTntL3J__PyC1o6Q4W-140" target="EjrTntL3J__PyC1o6Q4W-131">
          <mxGeometry relative="1" as="geometry" />
        </mxCell>
        <mxCell id="EjrTntL3J__PyC1o6Q4W-140" value="INT8 Weight" style="rounded=0;whiteSpace=wrap;html=1;dashed=1;" vertex="1" parent="1">
          <mxGeometry x="-220" y="2060" width="80" height="40" as="geometry" />
        </mxCell>
        <mxCell id="EjrTntL3J__PyC1o6Q4W-141" value="" style="rounded=0;whiteSpace=wrap;html=1;" vertex="1" parent="1">
          <mxGeometry x="-700" y="700" width="810" height="100" as="geometry" />
        </mxCell>
        <mxCell id="EjrTntL3J__PyC1o6Q4W-142" value="covert_and_save" style="text;html=1;align=center;verticalAlign=middle;whiteSpace=wrap;rounded=0;" vertex="1" parent="1">
          <mxGeometry x="-520" y="810" width="60" height="30" as="geometry" />
        </mxCell>
        <mxCell id="EjrTntL3J__PyC1o6Q4W-143" value="&amp;nbsp;read&amp;nbsp;&lt;span style=&quot;background-color: initial;&quot;&gt;hf_model&lt;/span&gt;" style="rounded=1;whiteSpace=wrap;html=1;" vertex="1" parent="1">
          <mxGeometry x="-680" y="730" width="100" height="40" as="geometry" />
        </mxCell>
        <mxCell id="EjrTntL3J__PyC1o6Q4W-144" value="capture_activation_range" style="rounded=1;whiteSpace=wrap;html=1;" vertex="1" parent="1">
          <mxGeometry x="-520" y="730" width="170" height="40" as="geometry" />
        </mxCell>
        <mxCell id="EjrTntL3J__PyC1o6Q4W-146" value="smooth_chatglm_model" style="rounded=1;whiteSpace=wrap;html=1;" vertex="1" parent="1">
          <mxGeometry x="-310" y="730" width="190" height="40" as="geometry" />
        </mxCell>
        <mxCell id="EjrTntL3J__PyC1o6Q4W-147" value="convert_hf_chatglm_sq" style="rounded=1;whiteSpace=wrap;html=1;" vertex="1" parent="1">
          <mxGeometry x="-80" y="730" width="160" height="40" as="geometry" />
        </mxCell>
        <mxCell id="EjrTntL3J__PyC1o6Q4W-148" value="" style="shape=image;verticalLabelPosition=bottom;labelBackgroundColor=default;verticalAlign=top;aspect=fixed;imageAspect=0;image=data:image/png,iVBORw0KGgoAAAANSUhEUgAABQEAAAEiCAIAAADGb4OwAAAACXBIWXMAAA7EAAAOxAGVKw4bAAAgAElEQVR4nOyde3wTZfb/TxootIAtoIWmbSZFUQooykVFSAqIVL4rglXxQlKEtamg7ktX3VVaubalyrq7P3V1KXeSgq6iLsIKeIFkELmDcheh8wxtyt1CL0Bpmt8f04Y0mZa0uZ2W8/6DVzKdTB7OOc+cfOY8F8XgwYPOnj0HAHZQAsBjqal5eXkQYqpD3QCEtAl1AyTwuAaJQbDQhlwjA9nEDTKIJyhsUk0GQQ0S7+BxDRKDYIHyrxxkEzfIIJ6E2CZhof16giAIgiAIgiAIgggapIEJgiAIgiAIgiCIGwXSwARBEARBEARBEMSNAmlggiAIgiAIgiAI4kahTTWAHQAAlNL7ps+VttvtlZWVfm2V3a9Xax0oQ90ACTyuQWIQLNjJNTKQTdwgg3iCwiZKMghqkHgHj2uQGAQLlH/lIJu4QQbxJOA2USqVEZERDf21+YuD2e32srKyqqqq9u3bt2vXrtnXkb22X6/WOkASsnhcg8QgWKAcLAfZxA0yiCcobEIaGDdIvIPHNUgMggXKv3KQTdwgg3gScJvY7fbS30urrlZFRkR27NTR7a/N1MCVlZXl5eVdunRRKgNhSjyBggckIYvHNUgMggXKwXKQTdwgg3iCwiakgXGDxDt4XIPEIFig/CsH2cQNMognwbBJRESENGC5vKzcTQY3Zz7wuXPnqqurb7nllsAIYIIgCIIgCIIgCILwCaVS2alTp/Dw8HPnztXYa5zHm6yBKysr27Zt26lTJ782jyAIgiAIgiAIgiD8THh4eHRU9O+lvzuPNE0D2+32S5cukQAmCIIgCIIgCIIgWgRKpTIyIrK8rFx627T5wKWlpVFRUQFoFUEQBEEQ6GBMkF6IoggAjDG5c9wPchzneZrzoFqtBgCO0/itlQRBEARxPSIiIkpLS6uuVIW3C2+aBg4LC6M5wARBEATRopFUqyiKjDHptSAIoig6FylhjEmS1fVfCY5Tu12N4zjXE2R1MgBYrbzrX91Ok75RkscaDef8XrVaTWqZIAiC8AuRkZHSiyZo4MrKShLABEEQBNEicApdq9UKdSpXkppO1cpxnE6nAwCDwcBxHEB1yBssvZBeW608Y8zhcAAAz/OSJE5O1gHJY4IgCKLpKJXK8vLyptWB7XZ7mzbN30+YIAiCIIgAIYlGs9kMAFarVdK6kr6VFG9WVlaIm3g9nMVk2aHUUPd/lCS9yWR2amOtVpucrCNVTBAEQTSOUqm8UnUFmlQHttvtERERAWsSQRAEQRDewhiTarxuilen0+GXu81D0sYGg8H5rwRjTDKCJIxFUZTKxRzHabW6kDWXIAiCwIpi0OBB586eAwAlKAEgNTU1Ly9P9tTS0tKOHTsGZTg0no2k8YBkFDoe1yAxCBbs5BoZyCZukEE8QWETpdcGcepeaWCzrg7/tSWUY6H9hbNcbLXyUq3YNz2MJFxRxCoAoDEIFij/ykE2cYMM4knIbHL6zOmYmBjSwC0FJCGLxzVIDIIFysFykE3cIIN4gsIm19XAjDGz2SyNAQ6A7nWlNWhgN6Qqsase1usN1/2UC0jCFUWsAgAag2CB8q8cZBM3yCCehFgD0/xegiAIgsCIU/pKore1jnAONBzHGQwGaey0NF46PT0dANLSDDRSmiAI4saENDBBEARB4ILn+fT0dGmt5g0bNoS6Oa0HjuOysjKhTgxnZ+fodNrMTHq4QBAEcWNBGpggCIIgsMAYMxqNOp3uyJEjoW5La0YSw4zprVZrSkoKKWGCIIgbirBQN4AgCIIgCACAlJQUs9m8YcMGGvYcHKRh0gsW5AMoUlJSGBNC3SKCIAgiGJAGJgiCIIjQk5KSkpWV1aLV75Ejv/bsebuXJ/M836TpuBs2bHj11T83q13XQaoJL1iQbzRm8Lw1EF9BEARBoII0MEEQBEGEGEkAB2y1Zz/gjf68447bw8PbennB3r17N6kBDz00au7cuZ7HL14smzlzZpMuJQvHcQsW5C9fbiIZTBAE0eqh+cAEQRAEEUoYYxzH+UsA5+Xl1dTUAEBUVFRaWtpf//rXPn36HDhwID09XalUPvrooxkZGd9//31KSsrzzz8/fvz4u+++e968eRs2bPjss8/efTf39dff6Nev3/79+z/66KOpU6cqFAq73f7ggyM+//zz22/vOWXKFLev+9//vvn+++9UqriSEtvf/va3mhrH/Pnzv/56zf3335+Vlbly5Sc//7y3oqLy8cdThw0blpf3Tl3bbnr66aelK8yYMSMxMfHOO+96/PHHMzIy9uzZPXLkSKPRuGrVF7t37+rcucvZs2fy8vIWLMjned5kMj333KTq6qudO3f56act69atW7Jk6aZNltWrv3700TE+mo7juLQ0g9VqpfWiCYIgWjekgQmCIAgilJjNZn8J4IMHD1oslm+++UZ6vXz58p49e7744ouHDx9+5ZVX1q1bFxkZ+dZbb02cOPGpp55644033nrrrb///e8AUFhYOH369BUrVvTp0+dPf3p50qTJ27Ztveeeu6ur7enp6ZWVFXPnzvUUwADw5z//ee/eve3btzt48BAAKBSKjIyM8ePHp6SkZGVlzpw58+DBg4wJU6e+GBPTzWKxfPPN/wBAOhkALBbL/fcPHj36YQCIjIx86603r16t7tWr18SJz2VmZh44cECpDNPr9T/++OOAAQN5ngeA++67t7ra/vLLL02ZMnX37t0DBvRnjPkugCV0Ol12dk5mpl8uRhAEQSCFxkITBEEQRCjR6/VWq3/G3x47diwhIUF63bt378LCwu7duwOASqUqLCx0nhYZGWm32wFgxIgRJSUlR48ePXnyZEJCgiiKhw8fXrBgQXR0tEKhkE5u377dTTdFyX7dhQsXpRMAoHfvJOfxiIjI6urqsrLyioqKxYsXrVu37vbbb6/ftiQAKCoqeuedd48fP+Z6zbZt23TuHF1YWBgWFqZUhnk23kmHDpHV1fZm2alBrFarWq327zUJgiAIbFAdmCAIgiBCCcdxDodDGhHt46V69Ohx6NAh59vExMSSkhIAsNlsiYmJsh+ZOnVqenr69OnTASAhQd2tW/f09HTpTz///LP0QqFQOBwOz89GRd109erV338v7dw52vOvnTp17NSpU1raxHbtwgHgwIGDrm0DAJUq9tNPPx06dMi4cePi4uKkg3Z7TXl5xW233VZTU2O31yiVYTabbezYsQ39lxtqW/PIzs6RNhAmCIIgWjHKuIS4S5WXACAMwgAgKSlp5MiRsqdevnw5PDw8LCwIpWO/JbNWBJKKPR7XIDEIFhzkGhnIJm6QQTxBYZMwCOvXr5/RaOQ4zkcZHBMTY7PZ8vPz9+7dq1QqH3744U8//ZQxtmbNmjfeeKOysnLBggUpKSmFhYWfffZZampqp06devXqZTabZ82apVAoeva87V//+vCnn7YWFhYmJfVeuXLlyZMnhw4dGhkZ8cUXXxYWFg4cOCg8PNz1G3v06DFjxvSff/7ZZrNFREQuXLgwJeVhUWQrV36SmpqqVidkZ885cuRIeHh4//79bbZiZ9tOnjz5xRdfpKWlVVRU/Pvf80eNGvXRRx936tRx5cqVzz474a677oyNVRUUmPfs2atUKidNmvzZZ59t3botOVn39ddrTp069cADg5ctWxYe3i4lZdTcuXPbtGnTv39/3/wAo0alZGVlekwGRhKuKGIVANAYBAuUf+Ugm7hBBvEkZDapqKzo0KGDYtDgQefOngMAJSgBIDU1NS8vT/YDpaWlHTt2VCqVgW+bn4c2tQqCYHZvwOMaJAbBgp1cIwPZxA0yiCcobCLlX8aY0WjU6XQh3R6pOnRfDX379t2/f39IvtpqtaanGxcsyJdbDQtJuKKIVQBAYxAsUP6Vg2ziBhnEk5DZ5PSZ0zExMTQWmiAIgiBCD8dx+fn5PM+PGjUq1Eq4QT744MNTp0463/brd/eTTz7hlysfPnzk4sWy3bv39O9/j18u6CWMsfR0o06nPXz4cDC/lyAIggghpIEJgiAIAgXSWGitVms2myUlLBHqdl3j5ZdfCtCVe/W6QxRZgC7uCWPMZDKbTCaDQZ+fP5/jNEH7aoIgCCLkkAYmCIIgCERwHJeZmanX60VRXL58eXp6usFgwCaGWyiS9GWMWa1Wg0FPtV+CIIgbE9LABEEQBIEOZ02YMcbzvCSGJSVsMBhC3boWhiR9rVYrY8xg0Ofn54e6RQRBEEQoaQPQBtP0aGzgsQySyfRkELTgcQ1BXBc8/bcFdBxJDOv1esYYAPA8//zzz/M87xwp7fuOSijx6Rm9ZCuTyVSnew063fDMzOnNuhiScMUTq0gMggc8riGI64Kn/4aw47QBaEN1YIIgCIJoAUhaV9LDACDVh+fMmQMAoihyHCfp4RtzyLQ0vNn5r2QHnU6XmUmb/RIEQRDukAYmCIIgiJaHsz4MdWVPs9mcnp4OAJIMduphro6Qttc/SP9TSesCgCAIoihKlV4AINFLEARBeANpYIIgCIJowTDGzObaya5ZWVmSCJS0oqQPly9fLp3J8zznArjUlvEo5DqVWyy9lt5arVa1Wi2131XYZ2Zmms1mi8VitVpvzAI4QRAE0QwUgwYPPnf2LNQNyk5NTc3Ly5M9tbS0tGPHjkplEEZv01B1T5DYhAyCFDsi1+ABT5Ag8Q4eg+ABhWua1whX6WswGLysf7pqY+mtIAjSEbVaLYqF0mlOSVwnktVux91wOy5dXParAYAx0fWI9K9arRbF2uNqtVqjuRVcxLlWq73u/4vneYvFwvO8tIz2dT/iNUg6DopYBQA0BsEC5V858AQJEu/gMQgeQuaa02fOxMTEkAZuHCQ9B9DYhAyCFMrBcuAJEiTewWMQPKBwTZMa0Tzp6zV2AGBMcL6XdKmLfJURt4JQe5DneUl5ajSNSWWnYFar1QDQwN68zXSNqxjWarVpaWk+i2EkHQdFrAIAGoNggfKvHHiCBIl38BgEDyHWwDQWmiAIgiBaADk5OU7pu379+sB9kasolV57oyJ53qrRcJmZWYFqlne4TZM2m83SUPDk5GTpIEEQBEGQBiYIgiAIvEhCzmQyBVr6tj6kCcNQZ0NpwTB/VIYJgiCIlg1pYIIgCIJAh6v0peWOfcRNDGdnZ6vVahLDBEEQNyykgQmCIAgCEa7q9/Dhw6FuTqtCEsOZmZkkhgmCIG5kAqiB7fZmz/+mieOekE3cIIPUg8whB1nFDTIIaoqKisxm8w8//CDNXH3zzTfBp0zaPJr/ddXV1Xa7PegNbibx8fFvvvnmM888wxhbsmRJenq6VG9/4IEHPM5tGf+jIEIGqQeZw0lQ1s0lCP/gZw1st9srKyuvXr1qt9vbtm3b7Mv4s00+gaczI7EJGQQptC6lHHiCBIl38BgEDyhcU8TYypUrv/rqq2effXbVqlXSwbKyslC0pflBUlVVdeXKFf81Oxiu6dKlS5cuXe65556ioqLi4uLly5dPnjz58ccflx5A1IGk46CIVQBAYxAsUP51perq1fC2bdu1axMRERHqthBEY/hTA5eVldnt9oiIiI4dO/p2JTy3Vzz3NSQ2IYMghXKwHHiCBIl38BgEDyF2jcBYQUHBSpMpMzNz7ty5oW0MAPgSJBEREZGRkVFRUX5qSVBdExUV1adPn1GjRklbK73xxhsAoNPp9Ho9mo6D5DYCaAyCBcq/btjt9qqqS+fOn+vUsVN4eHiom0MQ8vhHA9vt9gsXLnTo0IFinSAIgiCui8BYbk4OY2x+fv70adNC3RyiFufWSoyxgoKClJQUjos3GPRarS7UTSOIloFSqYyIiAgPD5fGhnTq1CnULSIIGcJ8v4Tdbj9//nznzp1JABMEQRBE4wiMGY3GgoKCaZmZ69ev13BcqFtEyMBx3LRp09avX5+ZOc1kMiclJeXm5oS6UQTRYpCUMIRsWgdBXAc/1IEvXLhw0003+X4dgiAIgmjFWHk+w2jUGwzTMjNJ+rYUOE6Tn5/PmMDzvNFoBACdTqvXG0LdLoJoAXTs2LG8vLyqqorqZAQ2fNXAly5datu2LUU2QRAEQTRETm6u1WLRJScfOnQo1G0hmgPHaThOo9cbGBPqxkhzNEaaIK5LRETEhYsXunbpGuqGEEQ9fB0LXV5e7vMKWARBEETr4ciRI3fccYeXJ/Ob+eTkZO8vfuHChaHaoc1qV2jIyc1NSUkBgPXr12fSvN+WD8dppk3LpDHSBOElSqWyY4eOVVVVoW4IQdTDVw3swwZIBEEQRAvjz3/+83XPueOOO9qGe5sakpKSmtSAqKioDes3yP7Jm7YFEyvPS/87Ur+tEmmM9Lp136jVaqPRaDQaed4a6kYRBEaUSmVZOc0KJnDh01joS5cu0ShogiAIhHzzzTfff/+9SqWylZT8bd68WbNn39Qp8vSZ03379h01atSYMWNGjBghimJFRcXixYuffurpu/rdNe/deRu+3fD5Z5/nvZP3lzf+0q9fv/379//rX/968cUXFQqF3W4f8eCIVatW9by955QXpjT8dba/zfubo8YxP3/+2jVr77v/vsxpmZ98+snevXsrKypTH08dljzsnXfeqampAYCoqKjxT42XrjBj5ozExMQ777zzySeeNBqNu/fsHjlypDHd+MUXX+zavatL5y5nzp7Jm5u3d+/ep59++vDhw5MmT7p69WqXzl1+2vrT//73v8LCwobaFnwExjKMRhr5fCPgNkbaaMwwGPQTJkzgOE2om0YQWFAqafsoAh0+aeDq6mrSwARBEAh57bXXdu/e3b59+4MHD+7bt2/v3r1ffvGZw+Ho27fvE48/kZiY+NT4p/r169f3zr4R7SP++uZf//mPfwJAYWFh1ttZn6z8pE+fPi+//PLkyZO3bd929z1326vtzz//fEVlRV5enqzIdP06AFAoFBnGjCeffHL06NGZ0zJnzZy1f/9+xthLL70Uc0uM1Wpdu3YtAEgnA4DFahl8/+CHH34YACIjI998882rV6/27t17YtrErKysffv2KZVKvUH/45YfhzwwpE2bNgBw77332qvtL7300tSpU/fs2TNi+IjoztEhF8DSfr9Wi2V+fj6tenVDIY2RnjBhAs/zOTm5QEtnEQRBIMYPeyMRBEEQqLhw4QIAtG/fHgB69+4tCEL3bt0AQKFQ3BR108lTJ51ndujQobq6esTwEbYS29GjR0+ePKlOUDORHT58eMHCBdHR0c4z27dvH3VTlDdf5zweGRFZXV1dVlZWUVGxeMnidevX9ezZ8/jx4/Hx8dIJ0slFRUXz3p13/Phx12u2bds2unN0YWFhWFiYVENQqVSFhYWe3x7ZIdJebW+WnfyJwFhObu7ohx/WarW049ENi1QTzs/Pz8ycJopiSkpKbm4OY0Ko20UQBEHUww97IxEEQRCoiIqKunr16u+lpZ2jowFAo9GcPHUKABwOx8ULF7t36+75kSlTpmRkZGS9nQUA6gR1927d059Pl/70yy+/SC8UCoXD4Wj4637vHN3Z86+dOnXq1KlTmiGtXbt2AHDgwIHDhw+7nhCril25cqVWp3107KPxcbXy2G63V5RX3HbbbTU1NXa7XalU2my2sWPHNvRfbqhtwSEnN9dsMk3LzKTBz4SEW1mYMWYw6KksTBAEgQTSwARBEK2Qf/zjH5MnT+7Vq1dSUlKawdCvX7/33nvv3Plzb01769LlSyW2kp9/+TkqOupC6YX9B/bff9/9zzz9jNlkHj5sOAA8O+HZ559/XhTF2++43aA3HDxw0Clxu3frPmv2rNf+/JrbjgCuX3f/ffeXl5cfPHjwYtnFsotlJ4pOvDXtrWeefebuu+8eOXLkA4MfeGjUQ3qDvkePHiNHjrTb7aWlpVeqrjz++ONTp0xdtHjRpUuXFi1edOjQoRkzZrRp0yY7O/vt6W937dI1Li5uyANDtvy0paysbNv2bYcOHqqurj53/tzx48e7xXQbPXp0Q20LKJL61RsMpH4JTzxmCxsBgHZUIgiCCDmKQYMHnzt7FgCk6eqpqal5eXmyp5aWlnbs2NF1XntZWVl4eHgApgSHflRbHXgm8SOxCRkEKXZErsEDniBB4h08BmmMO++6c98v+4L1bc13jZXnc7KzdcnJvq/5jCQ+AMCXIOF5K8/z06Zl+qkleKziz47DmJCTk8vzfGbmtCaWhVunQVoBlH/lcA+S87+fD9EWwUi8Q73Gk5C55vSZMzExMVQHJgiCIJrGhx9+6Dqp+O5+dz/xxBN+ufLhw4fLLpbt3r27f//+frlgIHAu+7x+/fpQt4VoYUg7KjEm8DxPZWGCIIhQQRqYIAiCaBovvfRSgK7cq1cvQRACdHG/IA1+np+fr9NqQ90WLEhrPjHGBIFJr2lnoMZxHSOdk5NrNGY0vSxMEARBNB/SwARBEARxfZyDn2nqrxtGYwbPW6XXZrMJAA4dOkQy2BucZeGCgoKUlJTkZB3tLUwQBBEEaG8kgiAIgmgMgbGUlBSe59evX+/77N/Wh8Ggd32r1epIxTUJaRHp9evXa7XanJzclJQU6VECQRAEESBIAxMEQRDENYxGo8CY86206+/8/HxSvw2hrT8s3E0SE96j1ery8/Pz8+fT3sIEQRABhTQwQRAEQdSSk5trMptzc3IAwMrzSUlJAHDo0CENx4W6aXjhOI3rqk5amintG1JZOD9/vlqtlnZUorIwQRCEf6H5wARBEAQBAGDl+ezsbAAwmc08z9Ouv95jMOilKcF6vYEGQvsFad0sAHCZLZw8YcIEjh7HEARB+AxpYIIgCIKonfTreoQGP3uPs/ar01ER2M9IZeEJE4p4ns/JyQEAg8FAxXaCIAhfoLHQBEEQBAEZRqPrW4GxnNzcUDWmxeEcDk3aLEBwHKfX6/Pz8zMzM3meT0pKyqX4JAiCaC7KuISES5WVUKeGk5KSRo4cKXvq5cuXw8PDw8KuyeaqqiqlUqlUKv3dKoe/L9hs8DwjQGITMghSHIhcgwc8QYLEO3gMgoda16SkpFh53vUPGo57ZMyYqKio6OjoIDUCBc0PEo2GA1AYDP7a5BaPVZB0nFqDREdHa7XaMWPGXLhw4cMPP9y3bx8ABHeANBKDYIHyrxzuQXLp8qXIiMhQtASJd6jXeBIy11RUVnbo0IHGQhMEQRAtDMG7xXI13k1MzcnNtfK8huPUarUuOVmr1eqomOkFnksWazSc20GaGxwgOI6TKsOMsZycnOzsbIPBoNfTitwEQRBeQRqYIAiCCDGSphVFkQmCyBjU1DCBAQATRQAAR90TdIcDABQOBwBw8XHXvSwrKgYAh0JR+16hEIuK1AkJAMCp1QAAijacRmMuKMjKyiLpyxgTxePgcDBBEAUBHA6BiW4uEE+cUMfHN+KC3Kysete8vgsUOp0WwsI4jUatVpNmbiocx+Xn5zPGnOtmTaN57ARBENdDMWjw4HNnzwKANKA5NTU1Ly9P9tTS0tKOHTu6jnwuKysLDw8PDw/3d6vs/r5gs/H7MO9mg8QmZBCk2BG5Bg94ggSJd0JvEEnr8larWFjIBMZEERwO8cQJLi6Oi1NxKhU4HFysSnoLAGrV9YVuMxBtxdILVnyKFRcDADt5ktlsoFAIxcWgUIBCwanVoFBok5O5xES1Wh3QvZGCHB+MMZEx3mKBmhoLz19zQXw8p4qBmhpNUF1gY8XFoFAIJTZms7FiG6dOEIqKQdFGcoEuOZlLTAzpNOPQdxwA8CZMGGM8z1utVgjsullIDIIFyr9yuAfJ+d/Pd+3SNRQtQeId6jWehMw1p8+ciYmJIQ3cOEh6DqCxCRkEKZSD5cATJEi8E2yDCEwQGeM3bZLkriiKXFyc7t5BUFOjGziIi1MFSF81hQZdI9psrLiY2WzWXbtAoYCwMOvWrbohQxwKhTY5WZuc7EdVHND4YIwVLF8uyd1aF9x3H9TUJA8YAADaQYPqn46o19S6oKTEsnOn0wXaIUN0Oh3Xo4dWp7v+NfwDEps0IUyksrDJZMrMzAzAAGkkBsEC5V85SAO7Qb3GE9LAMuAJFCQ9B9DYhAyCFMrBcuAJEiTeCbhBBCaIoshv3CgKgnXzj5Li1fUf4CG08NA01zhVmXXXLggLE4qLOY7TDh9u8E1m+Dc+GGMFJhNUV1t4XjxxwvDYY1BTkzxwoHdewN5rRJvNun27cPKkdccOVlysGzpUq9Nxt94ayEIxEps0OUwkJWyxWPy9sTASg2CB8q8cpIHdoF7jCWlgGfAECpKeA2hsQgZBCuVgOfAECRLvBMogAhNWLF1q4TeLomh4bBxu0euGT66plcQnT1p37bJu26YdMkQ/caIuOTmojQAASe0sWwZ2u2nlSkNqqlTmbZYXWlivqZXEp06xkyeF4uJkrVY7fLi/S8RIbNL8MDGbzX4dII3EIFig/CsHaWA3qNd4QhpYBjyBgqTnABqbkEGQQjlYDjxBgsQ7fjaIafmyE8ePm1asNDw2juvWXT9unH+vHxT85hpJD1t372YnT4JSOTQ52TBxYqAbwRgrWLrUYrUqamp0AwemjR2rVqmaezGJFtxrJD1s2b1bKCnhOE43fLjePxs1IbGJr7HqHCBtMBh8WzcLiUGwQPlXDtLAblCv8YQ0sAx4AgVJzwE0NiGDIIVysBx4ggSJd/xjEEEoXLF0qSR9DWPGIJjT6wsBcY1os1l37bLu3g1K5YS0NN2wYX5vRO7s2RaLJfneezUxMfqxY5vVTFlaSa8RbbblX39t2bkzWaudMGmSb8OAkdjEP7HqjwHSSAyCBcq/cpAGdoN6jSekgWXAEyhIeg6gsQkZBCmUg+XAEyRIvOOrQayWTTlzsjWx3XX39G+ZVV9PAusa0WYzff216auv9BMmZE6f7nsjpMKvqaDAMG5c1gsv+KWR9WlVvaZ2pPSZM+zUKf3EidqmD1MHADQ28XOs+jBAGolBsED5Vw7SwCDANwsAACAASURBVG5Qr/GENLAMeAIFSc8BNDYhgyCFcrAceIIEiXeabxCh8Pjc2bO5bt0yjRl+bBACguEapxLO//hj7YgRzW5E7qxZpoKCt6dO1T/6qH9b6ELr7DWizbZ87VoID58waRKn0TTx00hsEpBYbdYK0kgMggXKv3KQBnaDeo0nIdbAYaH6eoIgCKJFkDtr5uiUhw0Pj251AjhIqFWqzIyMDYsW8Rs2ZEye3IwrMMZSHnwQKiqOrFsXSAHcalGrVFnp6WkPPWScPDl39uxQNwcRHMdNmzZt3bp1oiimpKTk5uYyxkLdKIIgiIBDGpggCIJoEPOihey33w6vW9dylnpGilqlyjQadf36ZUya1KQPsuPHjZMmTTcaAzP4OUhs2bVrwDg/zltuDmqVatHs2VyXLrkzZ4a2JdiQlHB+fr5arc7JyTEajTzPh7pRBEEQAYQ0MEEQBCGPaekSfuPG/FktrW5WU7Pjl1/8dbHy8vJZ77/vr6vpx4zR3Xlnk6rBubNnT8/ICPkziDLf7DDwzjv92Jhmo1apku++Gy5fNi9fHuq2oIPjOL1en5+fn5mZyfN8UlKS2WwOdaMIgiACgjIuIeFSZSXUqeGkpKSRI0fKnnr58uXw8PCwsGuyuaqqSqlUus4Q9hMOf1+w2eB5RoDEJmQQpDgQuQYPeIIEiXeabJCnxz+1ftFiX75y94EDD4wff+XK5feXLy+9cGFA374fryj4affufyxdejvHnS8tHfL000pl2Kf/+19h0YlvNlm+3LChb8/bFAAvzpopFhcv+vzzMcOGgULhes2Kioo/Zc85fOyYefXqP+iSM6a/vXbTxv9+912njh1mvv//Si9cnPn++3HduikUimETJryo16/d+MPLs2elaIeOmvTcgV9/XfT550s+//xCedk7Cxas4zePHTly/5EjMz744OdDh3bv399ToxlhMBw/cWLJF1+Yvvrq6T/84YPly7/dsqVrdPTGbdu+2bTpyw0b+vbseVOnTs22yV29en24bJk6MdE5MbWR+ChYvFjTpcuY4cOb/XUA8I3F8u+VKw8cPbpq/fpRQ4fO/uCD3QcPrv7++9Nnz7Zv167fo4/25Lg7EhOz/vGPE7YipVI544P39x46tGv/vts13KjnJp4t/f29xYtPnzv77ZYtXaOj7kjs4Xb9v86b92vh8ZyPPh774IMFq1e/NGtmYXHxX97J69UjkYuLn/X++1v37jkqCDv378t4+hm3z27dsydvQf6Bo0dPnTmTEBv7cp1nh94z4NEpU345cmTU0KHfbt6cl5+v7d//pdmzpah4ZNgwRf2o8J6oTp00sbFz/vlPrzevQnInCd5tJDo6WqvVjhkzZvPmzdnZ2SdOnKi/aBYSg2CB8q8c7kFy6fKlyIjIULQEiXeo13gSMtdUVFZ26NChTai+niAIgkCO7l5fa4/9+/SJjIj4a8YL9urqO1JSnktNHTdyZGxMt/btVlp3bH8pbWLbNm2mTtCfOXdW//rr8/7y16RbbwWABZ/9p2/Pni+lTZz81ptb9ux5YMAA12u2b9cu+5VXbu7Stc/o0RAWdk/v3vbq6vTxT329cWOXqOhJTzxxvvT3s7+f73P77ZJMGnTXXQAQ0/XmHgkJ+nHj+vfpM2DcWMOjY6c+82zPUaMBYM5HH/0lPX1A3759Ro/+U1paYkLCM3/4w529evX5v/+runKlf9++gs32yIgRKZMmzfvLX6QW+kjWCy9YrFadF8sUWzdvfrtZU4hdeTU39+fVq9u1a3fot9/2//rrnkOHvvzoI3A4kkaP/nn16vQnnjh8/PiYESMUCsXE1NSnXnnljfT0gX379h49+k9pExNUcQ9rdZNSU/cfPSrYbGNGPOh5/VcmpsXGdNuyZ89RQbj3rrvWWixzXnmlz223bfhxS+eo6L2HDn358cdXrlz5eOUKz89+++OPST16vKg3lJWXt2/XLueVV27u0rX36NHRUVFvZWT8ffFiACgsKprx4osr167t27Pny2lpk9566yePqGgSapVK4+tGyq0faYD0hAkTeJ43Go3QnBWkCYIgkILk6QhBEASBC4EJrKjYX1dTtmnTOeqms6W///DT1gWffLL9l1/sNTXOv97S9eY5r7w67b33Ul988fzFC8xWcuj48YWffhrdsRN4lPtOnz+3+PPPTV9+eenyZefB8Hbtxo0cebGifMEnn1RdvTrxsdRGGtMxMvKqvRrCwsLbtgWAEyUlm7ZuXfjppwPvvLOisvLaaRER1fZri3nOeeWVuhZe9NEarLhY7d2+rFxCAiv2yQsXy8oAoF27dgCQdNtthUVF3W65BQBAoYju1OnUuXMZzzyzZNUq26lT8d27g0JxosS2aetPCz/9dNCdfZ3WuKXrzQ1dv6qq6pO1a5d/8YVos1W7+LRDZER1dfVvTFDHNbaDtPHpp3bs3//A+Cf3HTly5vy5RS6eHX7//SVnzvzG2MkzZ+JjY5nNVhcVHT2joqlYt23z8Qo3CK4DpE0mk9Fo5HlrqBtFEAThK1QHJgiCIGTQcBouUeOvqzns9vKKynbh4fM/WWld+YlCoai4VOl6Qvdbbl6zcOG/TMs/XbtWHds99uauzz/1lOyl3lu85KEhD6RodXn5+a7Hi06dTOjWPf3pp51Hqq5e9aZt8d27D7v//gF9+8p+o0KhcDgcAND9llvWLFz4L5Pp07Vr/+TtMFp5lq9Zs/777705U6fTLV+yxJfJwDd16nS1urr0woXoqCgASIyPP3XmDACAw1FaVtata9fw8PBBd95pzMpa8fe/A0B899hh9w8e6GENpx3cWL+ZP3P+91cnTf52y4+ef1XFdGNFRY0070pV1dK8d345fHjmBx/0SEiQPDu3zrNTn302PStr+osvAoA6Nrb7zTc3FBVNQrTZdEOG+H6dGwqO4/Lz8xljBQXLjMYMg0E/bVpmqBtFEATRTGg+cOPgqZMjsQkZBCk0H0kOPEGCxDtNNsidd901+OGHX/J211B53lu0qFOHDivWrNE/+mj/Pn1M//3vgaO/nSstPSIU9rn11kWfr3rgnnviu3fP/ujjo4XHDx0//uwjjzxwT/8PzAVb9+wRiov63HZb27ZtXS944eLFD0zLKy5V7ti//75+/b79cXPJ2bPa/gMulpe/8c67K75evfSLVYeOHRs1dOjWvXu/+nbD7xcuWHbs1A0Y8Nk3/+sSFdUlKmrh56v69uxZVXV1yaovHx469IF77pn1wQc/Hz5cevFifLduC/7zH1VMTOeoqAX/+c+Q/v179egxd/78tkrlWovlaGGh1MKbu3RptkGM06ePGTv2rv79nUcaiQ+HUqmw29esW6fzQQbfqlbP+H//7+fDh0tOnXpo6NAjx47t2r9/zcaNT6Sk3NOnDwDEd+sm2Gypo0YBOG5TqyVr/H7xoiomZsF/Po3q1HHQnXd1jIzImz+/rbKN9JFrjVco3lu08Ozv5wtPFLULb1t5+cr3P24eM3z4Wov10PHjU599dtOO7Ws2bTxw9Lef9ux9ZFhyl+ho149/snbtxq1bfz546MEHHojr1k3y7M79+++7+x5VTEyvHj3Mq1fPevllUChu57gPzeaf9uwRiot7e0SF94g225wFC/STJ3PeleLR3ElQ3Eaio6O12qFjxjyyb9++7OycEydEtVodXd+nNxqUf+Wg+cBuILmNoCLE84EVgwYPPnf2LNRtVJyampqXlyf7gdLS0o4dO7oq3rKysvDw8PDwcH+3Dc9G0kh21gY0NiGDIMWOyDV4wBMkSLzTHIOwX399+JFHNixepFY1NqK1Efr+4Q/7165t3mebxDebNlZdvTr2oVHVV69qn31mw+Ilna6/clWwXWOcMUM7bJj+j3/0vhGMsdyZM7mYmKyMIOzP3Mp7jWiz/XH69LezsoaOGOH1h5DYBMltBJwGYUzged5q5QHAYNBrtbqQtipkUP6Vw73XnP/9fNcuXUPREiTeQXIbQUXIXHP6zJmYmBgaC00QBEE0CHf77d+sX5c9ezZ3yy2ZL0xp6sd/PX6srLx874EDd9cvHnrPoaNHC9ascT3y2qRJneXqThERERu37yg5e7asvDztsce8EMBBhd+xY878+fq0NP1zzzXpgxzHTZs5s2DJkjtSUr5dskQd0sWcLl26lPPvf7seGffQQwP79vXy4wePHl3hnTcDQfb8+aavvlq3YYPXFWCiMThOw3Eavd7AmJCTk2s0ZmRmTtPrDaFuF0EQxPWhOnDjIHl6BGhsQgZBCj2HlgNPkCDxTvMNIjBhxdKlpoIVWVOn6h991I9tCjXBcI1YUpKelaXT6abNnCm7mJOXjWDHj+fOmcN165b2yCMBU8Kts9dk//vfpq++MkyYMG3GjKZ/GolNkNxGoCGDMCYUFBSYTOYbbaow5V85qA7sBpLbCCpCXAem+cCNg2QWAaCxCRkEKTQfSQ48QYLEO803SHR0tHbYsEceHbN529bsDz8US2wKh4NrdL3fFkIAXSPabB+azdnz51+w29+aNWvMuHENrWbsZSOiO3ceM24cs9msO3dmf/CBwuG4q1cvPzYYAFpZrxFttg9WrEjPyuo3cOCnn3+uHTasWZdBYhMktxFoyCDR0dFare4GnCpM+VcOmg/sBpLbCCpoPrAMeB6WIHl6BGhsQgZBCj2HlgNPkCDxjt8MYt34Q4HJZN38Y9aLL3Ldu/uyanGo8b9rRJvNunMnO3XK9MUX+gkTMqdPD0QjGGMFS5ZYeF6jUqU98oj/XNAaeo1osy3/+mvTl18annlGO3x4c6WvEyQ2QXIbAW8MckNNFab8KwfVgd1AchtBRYjrwK4a2A4AqamPNayBLwRLAyOJV1RQ53GDgqQedooQGfAECRLv+NkgAmO8xbJ50ybr5s26e+/V9e+vHzfOu48iMQj40SaizWZavdq6Y4dDqdTpdBMmTtR4PelU2VyDMCaIjPEbNzJBgOrq5P4DOJXKNz2Mp9c0DdFmY8XFlt27JekLbdtOy8ry07XxhCsSmhAkjLGcnBwAMBgMWq02YE0KJZR/5XAPkvO//97Vh+X0fQCJd/DcWpEYBEgDy4InUPCAJ2SRQEFSD8rBcuAJEiTeCaBBBEFYsWwZEwSBMU1cnK5//0bFGBKDgI/FRlZcbN2927p9O7PZDM88M3T4cF1ycrMa4ZNBGBNEUTSZzGazCQC4+ATdffcmDxzUrBI9nl5zfUSbzbpjh3DqlGX7dn7rVgDQT5hgSEvzt9bCE65IaHKQMMYKCgpMJlNmZqbet73WEEL5Vw7SwG7gubUiMQiQBpYFT6DgAU/IIoGCpB6Ug+XAEyRIvBMMgwiMAQC/aRNvsSgcDoExjUqlGzCAU6m4uLi6lZyQGAS8t4loswGAdft2duqUdft2VlysGzpUrdFohw/X+ay4mqqBpYGmoihaLFaetwIAx2mgdtCpVqvVMSbwFot1k4WJoiiKuvvuTR4wkIuN5eJU19vjCk+vcafWBTt2CCdPOp87gFKpHTZMEr2MMZ7nrVYrAPA8r9VqdTodx3E+S2I84YqEZgaJpIQtFktycvK0adP826YQQvlXDtLAbuC5tSIxCJAGlgVPoOABT8gigYKkHpSD5cATJEi8EwKD1Epii0WSxOBwWH/8UXffAHA4dAMHeafKAoqMTaQCL7PZ2MmTzGYTiovFoiK1Wp2s1TrCwrTDhvkuej0a0ViESGVenucFgQGAVOwFAI7TaLVajYaTdG/jV+CtVrDbrVZe4aix/riFi4vj4lTJAwdxsbEA4OKF0PcaSeuy4mJWUiKUlDCbDcLCrFu3qhMSkrVaUCq1ycnXlbVMCrw6ScwY4ziuuZIYSf/Fg09B4nxUodFoJkyY0Ar2qaL8KwdpYDdCf2utA4lBgDSwLHgCBQ94QhYJFCT1oBwsB54gQeIdLAYR2DFRFJkgiIWFTGBMFDUJ8YJ4AhwOTZwKHA5OpeJUcVBTAwDS6tNcnAoAfFHLoq1YesGKayUWKBSs5DQoFMxmY0VFDoVCLC5WJyRwajWn0UBYmDY5Wa1Wez+tt9m4amA3xcvzvFqtFkVRrVYDgCiKzmKvL9/ImCBd3CmMJfuLJ2xcXBwXH8+pVJrY2PouiAMAX/ZkksQtSMavc4FQUuLpAvHECVAoDHq9N3LXG3yTxEj6Lx78cyeRysKCILT0qcKUf+UgDewGlvyLxiBAGlgWPIGCBzwhiwQKknpQDpYDT5Ag8U4LMIjABAAQRZExBjU14HCIjDEmgsMBAEwUa89zXH+fCbGoSB0f79yOiFOrAUDDqR0KBSgUao6DsDCOuxUA/F7X9RKBMel/ahOPOxWvVNqVdK/FYhVF0ctir59QOuViTk6OYcIEtVotCgI4HFJJ39UFGrVacL6VowEXcFDPBRwAuEmgQE8fZXWW904SI+m/ePDnnaQVTBWm/CsHaWA3WkD+DTqkgWXAEyh4wBOySKAgqQflYDnwBAkS75BBPAmSTYQ6YSkVwCUNptVqOY0GAIZrB6vVaucUX38Ve5uFEgAYY0ajMSsrK7TVuaCpo+tJYjzhigT/9xqnrw0GQ4ubKkz5Vw7SwG5Q/vWENLAMeAIFD3hCFgkUJPWgHCwHniBB4h0yiCcBsYnAmCRoAcBqsUgjmaUlo7VarbPsLDBWUFDABGELvym4xd5GUJrNZpPJtH79+pA24xrBV0cekvg4x3E6nZbjuFB7BwmBupO00EWzKP/KQRrYDcq/npAGlgFPoOABT8gigYKkHpSD5cATJEi8QwbxxCebuFZ3QU7uuk0ndmpj6Uy9waBWqw16vY97I/mR3Nx3BEHIz88PdUPcCWGdkLFjUDuXmIdrVeIbWRIH9k7S4hbNovwrB2lgNyj/ekIaWAY8gYIHPCGLBAqSelAOlgNPkCDxDhnEE29tIs3d5XkeAJggQN1qVQ3JXdcPSsVeaa4vp9G4loLrGhF6gzAmGI0ZBsNzmOdkhkgJ1/OOczmxG1gSB+lOwvO8yWQCAOSLZlH+lYM0sBuUfz0hDSwDnkDBA56QRQIFST0oB8uBJ0iQeIcM4om7TTxLuwDgnLurVqs5jmt8Da2Gir2NNiLEBuF5q9GYkZ8/X6sdHtqWeEPQR8xeZ+cqcJHEdfsSt25JHNQ7CWMsJyeH5/n8/HycSpjyrxykgd2g/OsJaWAZ8AQKHvCELBIoSOpBOVgOPEGCxDtkkGsItdLlJ1mtC3UrFXu5ZLRU7AUAs8nUULG3EUKrgXNzcywWa90EYDxBch2CqISb4J0bQxKHIEgwLx9N+VcO0sBu4Lm1IjEIkAaWBU+g4AFPyCKBgqQelIPlwBMkSLxzwxnEdaelOq1rhWtalwNo0ySt63Ll2qHRzmIvAGQ2V4mFUAOnpKQkJ+umTcu81pYWRVCUsE/eYUyQJLFzMfCWL4lDFiQ4F82i/CsHaWA38NxakRgESAPLgidQ8IAnZJFAQVIPysFy4AkSJN5ptQYRmOAmdDmOk+brchzHaTjphVqt1nCa+h9tgk1ci73STOAmFXsbISQaWJoAnJWVWV+M4QmSJhBgaeRP70iS2HXz5xYoiUMcJNKiWSaTCYkSpvwrB2lgN/DcWpEYBEgDy4InUPCAJ2SRQEFSD8rBcuAJEiTeacEGcVZ061alYtJaRK5CF64NYPZeTjRmE/8WexttRLAjxGUCsJut8ARJkwmYNAqgd1jd45sWtcIWiiDBs3w05V85SAO7gaLXAAAagwBpYFnwBAoe8IQsEihI6kE5WA48QYLEO6gNItVyAUBSueAybtlV5TZc0W0eMmtiBajY22gjghoh9ScAe7SlhRMAJRw877QQSYwrSKRFsyB0y0dT/pWDNLAbeHoNEoMAaWBZ8AQKHvCELBIoSOpBOVgOPEGCxDshM4i02LIkcRljongc6mq5EHCV2zjKoBV7G2tEsCJEGv9cfwKwR1taBX5VwiHrv1hX2MIYJCFUwpR/5SAN7AaeXoPEIEAaWBY8gYIHPCGLBAqSelAOlgNPkCDxTkAM4qFvRQBggiDpW6gncTVQK3HjoGkjlv3eZqGu2LsyaMXeRgiOBm5gArBHW1oRflLCSPovHkmMN0hCsnw05V85SAO7gafXIDEIkAaWBU+g4AFPyCKBgqQelIPlwBMkSLzTNIM0JG6lt1AnbgGgvr6treVqGpueF2yDSAOteZ63WqyiKOoNegDInJaJJEiCoIGlCcCHDh26fltaHa4TR5ulhJH0Xxk8F53WaDitVqtWq7kADqPAHiROJWwwGIKwaBblXzlIA7uBp9cgMQiQBpYFT6DgAU/IIoGCpB6Ug+XAEyRIvFNrEKe4Za4q16NyC80Rt14SDIO4FHvNarVal6zTarUexWcUQRJoDZybmyMILD8/36u2tF7MZnOzlDCS/nt9gjWduGUESdA2UqL8KwdpYDfw9BokBgHSwLLgCRQ84AlZJFCQ1INysBx4giRIkk964bpLELhMuwVQug1LBv+LWy8JiEEaLvY2AoogCZwGlsY/Gwx6vd7gbVtaO04l7PViwi317howSdySgiQIGylR/pWDNLAbeHoNEoMAaWBZ8AQKHvCELBIoSOpBOVgOPEHiq3ecOwN5iluO46SDbstKAYCLuNUAQGsyiBNnsVdaRLqBYm8joLBJgDRwwxsgNdqWG4OmKOFWcnf133TilhckAd1IifKvHKSB3cDTa5AYBEgDy4InUPCAJ2SRQEFSD8rBcuAJksa846lvXSq37msmg3vlVtOUZrQMgzSObLF3woQJzV1EGoVNAqGBzWaTyWRuYAOkRttyI+GdEm61d1dpOrEoihaLFeqemul0Wq1W2+h04hYcJFJNGAAyMzP9pYQp/8pBGtgNPL0GiUGANLAseAIFD3hCFgkUJPWgHCwHiiARGAOolpW4DenbgG0LhMIgANDUG5rPxd5GQGETv2vglJSURjdAarQtNx7StjoNK+Eb5e7q9djpFh8k/t1IifKvHKSB3cDTa5AYBEgDy4InUPCAJ2SRQEFSD8rBcgQpSJxLTPE8D3WLS3Ecx/N8ncSNB5/qt/4CT6+5Trj6u9jbCChs4qMGZkxwVu282wCp0bbcqDh1kUeF8Aa9uzY8dvrWIG/AGyCcy0fn5+f78j+i/CsHaWA38NxakRgESAPLgidQ8IAnZJFAQVIPysFy+C1IXBdSFkVRTuVqoF4V162UhMQ7eHqNjEGcxV6pTu7XYm8joLCJLxqY563Z2TnSmOdmTQD2aMuNjZwSRtJ/Q0/dVkxbnFsxAYBOp9Nqtf6dYRtMfN9SmPKvHKSB3cBza0ViECANLAueQMEDnpBFAgVJPSgHy9HM7XBdy7nSEa1Wez2V2zhIvIOn19ihgWJvUHSvKyhs4osGTkpKYkzIysoCAIvF2vQJwB5tIdyVcLzzOM9bA7z1bougNkhqnwkyZrVa4drYaR3HcS2uUNy4Epb+aw19lvKvHKSB3cBza0ViECANLAueQMEDnpBFAgVJPSgHyyETJI0IXbVarUtOhuYL3UZA4p3Q9xqBsYKCAoDq4BZ7GyH0NgEfNLDRaDSbTdJrrVbnswAGJAZBgqSLBOFYZuY0SfempKSIorhu3Tc3tgyWDxLpXiotvwzXxk63JEnsVMIGg8G5kZLZbM7JyVm3bl1DMpjyrxykgd3Ac2tFYhAgDSwLnkDBA56QRQIFST0oB7shMAGgjZvWdd0dNwBCtxGQeCcEvUZgrK7YaxFFUW8wAIBWOzikutcVFHeS5mlgnrempKQ433KcxrdR0HVtIerD2LGCggJBYDqd1mg0AgDHaW5sGextkEg7EomiaLFY4Nq609hVsaSELRaLtKVwUlKSVAduSAZT/pWDNLAbeG6tSAwCpIFlwRMoeMATskigIKnHDZuDnRsLSVrXarE6p+nqkkdAXVFXF+LfW0i8E7xFwupm9gqMMV1yslarre8CJAYBJHeS5mnglJQUnre6HvFHKRiFQZBhBwDGhKSkJOehG1sGNzNIWtbYaUnA5+TkOHeqa0gG37D5t1FIA7uB59aKxCBAGlgWPIGCBzwhiwQKknrcCDlYqNu3QxRFaSRt3QBmHVzTujg38EDinWYaRNK0mXUjA2VPkCv2aht+9IDEIIAkSJqhgXNzc7Kzs51vtVqdwaDX6w1+aAvhjh08qu4AwHGaQ4cOhahJocU/QeI6dtq5yJYkiZ2r6IccqQjsfCsrg2+E/Nt0SAO7gefWisQgQBpYFjyBggc8IYsECpJ6tKYc7FnahWsLU3FyWrch8AQJEu80xyBWnpd++l+qrHQ97kWxtxGQGASQBElTNbCzJqnV6pq7D3DDbSHcsYNc1R1uXBkcqCCRSq8AgKRQbDabpdHvrnjK4NaUf/0HaWA38NxakRgESAPLgidQ8IAnZJHQ4oPE+WhZFMVrbx0OcDiuHa977Y5CoVarna9BoaiGamdKlv4Uoh1owcpbGWMG7+pRQt3+k7Kl3dqNN1rILi+CS61A8ilcc+tVAJC8Wfunhjwr4eFfqJtKJ+H8axO93OSFsjOMRivPS2/z8/OlceZeF3sbAc8Nzc8baEl4BED9fg3uAdAGqutd63oBkJ2dw3Gcc6Emv9Lib60BoHYstHMcilB3s5J2ZnaTwdK2uhLOSACvg8EdhQJcunzjN4Rgjc0OUpC4jZ32fpGtpKQk10Wtmg3P8zzPC3XLSTQ0KNpVAwty3meM1XrZmyzg6nGFQvrXH/f/IEMa2A08t1YkBgHSwLLgCRQ84AlZJCANEuciw0wQRMagpkYQBAWA4BS0DofC4QAALj4eHA4uLs55XBMb63Y1Li6uwS8qLnZ9W62oYbZiUCiYzQYAoFCwomIAcNT9YKr92aRWg0Kh1WkhLMy52Y+/8qjAhAxjhpW3ZmVlZcoVppx74QCAtB2Oq9wNwCJJvgZJvW2BBUH68crqO1Q8cUIdH+/qU5AcV/dLl4uNdeu/jbhVxWOyUAAAIABJREFUws25ALU/fJmtGACcLgYAVlTsUCg0CfFCUbFYVKROSADJywCchoOwMDXHSb+f1Gq1hrvV+/97Tm6u61BbANBwnN5gaK7odQPPDa3BIHH1PjgcUndWOBzSz2EAcAsALj5eOujaqaE2AOrhGQBt6hukoQAQGggA59tr3RwAFAqNhlNzHISFST+gvdvUB+mtNYQwdgw8IgEcDoGJTBSlAAD3W0EcgHswaFRxnrLnuncDaCAeBFtxbQzUjwcAkL8nKBQaTu12T2iuZg5ZkEiFYmnstHTEs1DMGJNGSXAcl5+f75cCMnPZUEAoLJQigUtIkG4Fdkc1gGtyj3NzPRercrtg436X8XhYWEP3f88Uz3FqtUYjdXw/pvgmQhrYDTy3ViQGAdLAsuAJFDzgCVkkhDhIGGMiY6ywUKoI1Coih0MTF8epVLWvY2O5uDguLk6tcs9/fqfaiwgRpQxabAMpj4aFWXdsB4VCKLZJ6VPDqR2g0Oq0XGIihIV5L0oFJuTm5Jrq9mjRaXXz8+e7DWYGAI7jOA2n1WqDlZWvHyS1Oocx3mqFmhomCKz+0wrdffeBwwE1NVxsrPSrpVkODV7/lbwMco5mRSc5tVooKgKFQqNWOwA4jUat0XCJia7rYwuMjX74YdeqpoROq/XH1jsSWG5oAiuS9b544gQXF8fFx0vdmYuN5VQqqPvl6vce3cavBqnX04uLISxMKLFJP52lzi5JI+nnsk6nBaWS47i6BaVvxPxbt8qAIAoC1NRIjzk0CQnSjV3hqObia2/smlgVV+d9Lk6lVl1fwYYcmXuCQlEbEgqFUFQsExJhYXWL52vkLoklSGQLxQBgNpud5+j1+szMTC9nF0uZnbdawW6vfdrlcLjdDTTdu7vlAm/ybxBwdbTU8VmJjdlsrKiYUydYf9qqVqtrn4Mn6ziNBhSKQK7PTxrYDSy9Bo1BgDSwLHgCBQ94QhYJQQ0SxhhvsYiFhRaeF0VRHR+viYvjYmOlXBgclds4fsnBoq3YmTutO3ewYhvHqYWiYk6t1ibruB49PPOlwISCggK3giEAGPSGJs7dDQT1gkRat4kVFp4oLGSMCYxJv2x0994LDgcXWFci6b/XDCLaagUSs9nYyZOSVJbksXXLFtkPazjOf1Mfg22Q2jEIFovCbmeMCUys8/7gwHv/+vhXA3uDUydL/d0i9Xd1gnXrTt2QIQ4A3bBhXGIi1E1JaB2wupuAKAhC3SMP8cQJ3X33cSoV1NQkDxwIMs+5kPTfwFLv0UlJiWXnDlAoICxMEsmcWq3RcOrERE6jUat7IFmwyg2pWpuTk+OqgQGA4zjPodFSMPCbNoHdbtm8GRwORU0NFx/fjMyORANfF7deb921kxUVO8LCJP9KWR58mn/kCmlgN/BIGyQGAdLAsuAJFDzgCVkkBDBIpIGvvMXCBEFgTFFTo7v3XunnkXbQoMB9ry8ELgdLWdO6Y6d1105WbLuWL4cli0VFnupX4lLlpQC1x0uk/YELli1T1NRYNm8WRVH6mct1786pVEH3I5L+e/1ec00bl5RYd+1iRUWWbdt0Dzwgnjih5jh9WppBr/dHSwJrEIEJUhdW1NRY+M3iiRO6++7lVCque6yH91Gkm+Br4IZRSjFg3b4dlErLzp0QFmbdulU3ZIhOq3UoldrkZJz6xxPnnRxqaiw8L544obv/fi42VrqZN+WRBx7vhIZr2qmkRCixsZIzoFAIRUW145ATE9UaDZ6oMBqNbhoY6qZPG559VlK8zoyg6daNi4vzMSO0FA3cELVZfvsOUCqtO3dAWJhQbGvk2bd3kAZ2A0WuAQA0BgHSwLLgCRQ84AlZJPg5SGp/LW3cKP1UMjz2WHL//mgVryfBzMG15eKSEuuunctXrQIA3VCteOKEWq221q2bun79+uCXfwUmFCxbZrXyoihKJT6F3a4dNAiBH5H032b2GtFmkyrG1l27QKm0bt2qHTJEO2wYl5jY3LnBfjaIwASRMX7TpmveHzSQ6x7rxa9bFOkGlQaWPVobAyUlll27JFWsHTJEN2yYPi0tyO1rBLcBO7r77nPW9Hy7CeDxDhKUUPe8zLp9O4SFSVEhFBdzarVu2LDQPiiRJgNLo5BY3eRtURQNjz0WoGfZLV0De+L67BuUSuvWbdqhQ/VpBl3yMK+vQRrYDRS5BgDQGARIA8uCJ1DwgCdkkeC3/QkLli5lgsAEQXfvvS1L97oSwhws2oqtO3dZd+0UbCWgUOjTDNJSHMHRwIJQuGLZMgu/WRRFw2PjuO6x+rFj6/6I506CpP/6zSCizWbdudO6a5d12zbd0KFDdTru1luboof9YBCBCbzFcuL4ccYYE5ju3kG6/gOa3n9RBAl+DexGrf7Ztcuyc6cUA1qdjrv11uAPnGaMFSxbxgTBunmzJHqTBzQjDBoHj3eQ0OCDEqiLCsFm03CcVqfjevTQ6oL6PJQJQsGyZRarNWiPs1ufBnZDevBt3b2LlZQIxbZknXbosGHX08Okgd1AkWsAAI1BgDSwLHgCBQ94QhYJPgWJJH0tVmvyoEGamBj9uHH+alaoQJKDRVux6euvLTt2chqNfmJaU54ZNw3rpo2bN240rfzE8Ni4hpUPnjsJCu8EyCCizWbdscO6e7d12zbDhAlDhw/XXf8nb/MNUlvtt1gVNTW6QQN1A3ys6qAIkhangd2QYsBSFwPa4cMDKntq673HjplWrjQ89pimW7cA38PxeAcJ3j4osW7fbtm9G5RKUCq1AR41wBgrWLLEtGJF8IdxIcm/wcGphy07d3Ecp39uok6XLHciaWA3UOQaAEBjECANLAueQMEDnpBFQjODhB07ZszIqJW+1wqGLR5sOVi0FZvWrLHs2Jms006bMdNflxWOHVuxfJkkfQ1jxlxvUVY8dxIk3gmsQaThsqY1a6zbthmeffbZSZM0DY6HbLJBBCasWLrUYuUVNTW6gQMyp0z1sbV1oAiSlq6BnUgxsHzNGuu2bdqhQw0TJ2qTZX8fN5Pc2bMtVqsoioZx49IefTRYa5jh8Q4Smhwkos22fPVqduoUKJVanU7/3HP+aorrE+3ke+4JyUgubPk3aIi24uz5863bthsmPOuR6EkDu4Ei1wAAGoMAaWBZ8AQKHvCELBKaHCTs+HFjenrywIFZGRmBaFBowZmDRVux6b//tezarRuWnDl9hi+Xypk9y2qxJg8c4IX0dYLnToLEO0EyiCSErHv3slOn3po+XaPReJzSBIMITFixeLFp5SdZU6YE4LkViiBpNRrYiTQsds78+dC2rd5nJXytxDduXNYLL/ilhU0Bj3eQ0PwgkaZRLFu9OlmnmzZzpo/tyJ01y1RQYBg7NmvKFB8v5Qs482/QkOZDLV+9OjlZ56KESQO7gSLXAAAagwBpYFnwBAoe8IQsEpoWJCkjRyYPHJhlNAaoNcHhx507t/3yS4pW26dnT7c/Yc7B0gBp01f//eabbzQ9ejT14/wP32fn5CYPHJCZ0dTfvnjuJNe8c7WqaukXX1ypuvJS2sSgNyPYBhFtNtPatezUqbdmzKhfE/YuXB2O3JkzTCs/WTBnTsDKOyiCpPVpYCeizbZ8zRrTl1+uW7dO2mypqeTOnGlaseLtgDwB8RI83kGCr0EiKWHLnj1cYmLzlPDm77+fk5ubPGBAKJ6JuIM5/7oS0Owj2opNq1dbdu3WJesyp88gDewBilwDAGgMAiHXwGGh+nqCCBopDz44PT29ZQngM+fOPZiW9svhw64H31mw4CW9vkNERKMfPDsyzbCv/gevj8PxUYHZ8PprzWjqdVGr4jIzXtiwaGHG888Lx4836bPmxYtyZs/ZsGBB0wVw6LlaVfVabu6/TCbXgwVffx3TtcuooUO9+ODypn7jjl9+uWPUqCY3NGCoVarM9PSsyZMzJk0SCgub9FlBKMyY9Jyud5/D69YhXKnuaGHh7Q895OXJZ86dG5mWhqpXSlRXV7+3aOErOTlux3f88svtfgoktUqVZTR+u2hRxuTJ5qVLm/RZJggpDz6YnJR0ZN261jR1xZOUSZNKTp8K3PnYUKtU+kcfXTBjBlRUJN1+u7Svr/cULF6cnZ397YIFvgvgJoX6+dJSw+uvf7lhQ+OnHS087v3NwcmFCxcy3s5a+OmnTf2g9zizz7eb+T979HofUaviMl+YsnDWTK5L19xZM/17cYIIBKSBiVZOyoMPTjcaEf6GdvKqXCq6pWvXmK5dFQqF80hZeXlpWVl4eLgmPr6Rq93S9eZbut7s+kE33s2ff/rcWdcjO/ftq6mpuf/ue5re9iagVsUtnD0r4/nnoabGy4/kzpzB//DD+sWLA9owv/Bufv7pc+fcDrYND++ZmAj1fXHw2LHIiIjbe9zayNXahof3TNRAw078ac+eVevWuR6prKw8ePTooLvuaqPE87C5FrVKtXD27Iw//tG6aZO3n6muHj0qxTD6/xD2XOm3Y8/ExLZt23r5kVu6dr2lfnd24x2PXllUYrOdPnVfgHtlmzZt+vXq5Xnc74GkVqkWzpmjqKjwXgbzmzY9PGpUaO/eZeXls95/P3DXd978v/roo9iYbn4/33eKSmy2UycDd/2sKVO+XbzYOGkS8/rx6ObvvzeZTBsWLfJLA5oU6l2ioxvPvxI9E3s0fnPw1J879+3r1LFj71sbywu+48w+Dw0Zmvf6665/kjKI71+hVsUl390PLl0yL1ni+9UIIqC0CXUDCCKQOBya7t399RPqG4vluy1b4rp1s50+PfPll/8yb17fnj33Hz1qHD8+ITb2D+npIwYPFktKKiorl8ydO/6VV/r16jXvr3/9dvPm/6xb9+7rr7/+7rt39+q17+jRj2fMmDJrlkKhsNvtDw4e/Pn69Xf06PHCM894fuP/LJb3TaaSU6fWLFiw+vvvT549+6HJlD5+fLt27VxPO8ZY3uL8Prfeunn3npXvvQcA/7Nset+0vOTU6a8XLLBs32bZtv3chdIBvfs8+MDg5f9dXVNTM+mJJ97+5z8H9O376/HCyiuXB86aLV3q9Lmzj02det9d/YpOnSqvqHhkxPAftm67qWOHxXPlp0g0CbUq7u2MDPPSJfrJf/TmfHbsWP7sOb5/ryvHGPvb4sV9br118+7dK99776vvvtt54EDXqKjT58/nvfHGpDffvFpd3SUq6qc9e9YtWpT7738f+PXXT//5z/MXL76Wl7cgO3vewoUxXbrs/+23nFdf/X7LliWrVj04eHCbNm2W//e/NTU1k598MqZrV7dv3Pfrr2/97W/fbflxTX7+laqqXw4dunT5Uvt27bSD7nU97crly3/Om5vUo8dv4omn//AHtw92jIh87Z2829Tq40VF/3jzrX8uXdqpQ2RiQkJZRfnn69bd3SvpH8uWfbNwgfNqS1et+nhFgXbQvRu3/jR+9OjyS5dXf/fd8nff69e7t1vzXsnOToyP/00UP5g+/cv16zfv2tX7tts+WrHi26VLu0RH+8vsapXq7YwM0/LlumHDvDk/w5ju9/HPv5eWvvZO3j1JSZevXJmYmloX52fLKyoeGTHih61bb+rYcfHcuYd/++2jlSvvSEz8+fDheW+80aZNm7/Mm9enZ88DR48ax4+vqq7+fP3623v0eOGZZxw1NfmffLLmhx/uv/vuaVPd1+i6cvnyn/Pyknr0+E0UJYc6u/PXCxZUVFS89s47kkMzX3jB9N/VNTU1f3zyyZVr1pRVVN7UsYPpq6+2f76q5Ow5AHDU1DyflXmxvCL6pk57Dx6c/MQT+379dde+fZvMBRH1R4X8fOjQo1OmTHrsMevOHUm33aaJi1v93XfPpT7+x/Hjv1i/bteBg12ibjpz/ve8N96oqKx8JTfn7l69hGKb9Nk35827pUvn/b8Jua++GhsT40fLS6hVqmSAP86Y4eV6SOblyxcGZgz8O/n5NTU1ABDVqVPauHFOR3w8Y8ZTr7wS0b59t5tvPnzs2OK5c5esWrVpx47+P3xvO316x75982fPyfrHPzpERqY+9NDYqVNffW7i8RNFEx977F8rCuK7de8Q0f7VSZPdvqu8osLZcz+eOesby6bvtvwU1y3GdvrMU//3f5+vX39Hj8SxDz6Y+uKLy9599/Dx41NmzrSazTd37mJ8++3pL71k3bG96urVn/bsfSsjo+rqVbfzVTHd/jLv3bo09FRCbPc/pKePGPyAWGKrqLz05UcfuZv0q68Wr/r8wcEP3NKls72mxnnlsLCwMRkZLzzz9Pc//ZQydOjrz6f/v2VLXeNw35EjjfwffUStUk3PyMjNzp7v3ePOObm53/pJALty6LffPvr/7H15fBPV+v6bhK1sLTvdZqYgXkoRkRYXSibgVlBZr1eFJmURUkVcULhXm7LaRv2iXv25YCMqkBT0LoqiLHoRMsOitOxgWaSdM2nSja2ALNIkvz9OM50maZumSTsteT734w3pLCfv+57znue873nPhg2D4+IOnTixctGiiPDwf6xcSURG/rhr14Z//pO32d5dsyYxIeHYyZMjPEZRANhq3vnTnr0x/fpayyvefvVVp8Nh+HLD9z/vwIPDqvW5N2/e3HPwUEZ6+o2bN/+zbdvtA+KeeWqadnFmU7ywm9eI6NZVNHb9/Zv//W/1v74ae9+oLead7772GhUTI3ifE2cKmfw849vvmPf96tWDNAVEVLTmscfmLH1dPWtWQB4YQghBQogDh9CWYVq7VpWYGKinLdDrD3/3XceOHQt+/33dxo23U9S81NSThYUvZWdv+eyzuNjYpx59dNjgwQmPPBLWqdNr6envfv45ABQVFy997rkNP/wwdNCg59PSZr322q+HD48YMqSqqmruE09cvXbtzU8+8UqAAWA8TQ8bPHjk1KmVly6NV6lyvvpqvkbjedni999/Rj1t1IgRD48eLZPLAWA8rbpj8OCRU6dcunRp8IABqpF3nyw8o3vv/bSpU/v17DH7b3/r3LHTwd9+M2Rl7zt8+P9WrxYe1bdX7wGxserJk0ckJCROnqSZOGnetOmDApdeS0ZHGT//3BcOzJh3kpGRgXqvgMXvvz9frRZklfHuu79t3ixTKNQLF+7Zv/+eO++0V1U9p9HMW7bswPHjy+bPHzFlSscOHa5dv/7k+PGlFRUnCwvfXLRo7X//u/brryc98MC3P/+cMW9exblz21jWKwEGgDsGDXpOM/1P/Z95R448dv8D8bfd9oiKdiPAALBm4zdEZOT8tBnXr10rv3D+0ImCOwYNek6Thm8cT6uyXnqpd89eCePHd+zUacjAgQmDBo1ISHh15coH7r138sMp323ffuFiZWxkdZnc5BF3fbt9+9uvvrrxx227Dx5a+Y9/9OkRsWv/fjcObK+q2vHLL0tMpg7t2oHDkfHuu8d++EHRrt26jRsDLnnlyJGvGww+XswhPuDk58ipk3/evDlveuq169e7du3qsvNhiZMnayZOnDdtGrbzpR988A+tdkRCwqdffrlqw4bu3brhnn6qsPCl7OzvDYYe3bvjDiuTybRPPfXE+PEps2d7cuA1GzcSkZHz09KuX7tWfuECAIyn6TsGDx45deqlS5e6dO6c9dJLvXv2TBg//uNly/r27PH03/7Wt1fvf23evCknJ7xb939+sQb3ZQCQyeX33Tn8yrWrL82c9VJ2dmxk5LPTU6c+99xphIbVjuLeGR/fJSxs2Ysvnr944ZE5cz5auuzB+0bpc3KefuKJjHf/+dvmzXKFQr3wlT379x8s+G3IwIHPqTU/7WJ/MDPHTp06WVj45qJVa/+7cc3XX78WnD2WRFSUzOFACJF1FgyvAcdxwSDABb//bv71182ffYY/d+rYMfull3r37Dlk/HiQyUbecUfvHj1m/vWv769da/jqq3uHD+dstgn3P7DnwIG8o0cVCsWIhISTRUVDBg1q367dvFR1xbmz81e8vmju3KShQ4eMH/9C2gxF7aCi6/m9howfDwAL9G+4nMjp2+MG9Oze/Zlp0wGgf5++ADDxgQffW7Pm7IWLZHRMwm23JQwa1DO8e2TffmEdNzB5++alqt2uX7fxm9spal6q+mThmZey9Vs++ywulhDc0I0bN9xWS0ckJHz788+6efMqzp2tstuFJz+fNqNzWNir6c/MmDLlyZdeWjhnrpsdZn38cT2/selQjhy5wufBQeZzJlGjsOyDD/6u1Sa6Ov5rzzzz0owZkX377jl48DTHZa9a9XetNmnoUEtJidfbsWY7dOx44vfTUD04THti/CMps2dlzJs3+cEHI/v26+TSY4/u3Z+ZNv3KlStN9MJuXmPRW/8nGrvWT3rgwR/M5tdfemnobbf9uHtP1oIFgvfp0rkLk58HAFvMjFcP0kQQUdEyh4NDqO6jAUIIoeUR4sAhtGUolUr90qUBOTry0uXLAICnFPG33fbZf/6TmJAAAFF9+xZaLOIru4aFVdntY++9d9Fbb/2OUGlFRUxkJLLZLly6tPqrryK6dhVyXDt27NiuXcN9MKxTJ3u9Xr+Q54nI/gDglmHbuVOnKoe90FL85fff36yqsttrCiF07dr1EVr1kXHd5T/+yHrxBa+P7dq58017FcjlHXzO+WwQTF6+MjnZlysJkmTy8nWBnooX8jwRGQkAtw8YcOnSJblcLlMoACCqb9+i4mLhss6dOtnt9m7duj06ZsyGH34oO3t24dNP/7R796UrV1Z/9VXZuXN9RbU9+nijvm4ICwurqqqq54LfEX9XfDwAdAoLI8JqCl/jG8vPnzNu3BjZp++169fFd70ye9aL2fqy8+cfHp08zFtSa5fOnfF7O3cK++Pan25/VbRr9/e5cyekp981ZMjS+fPDOnVS+GCQ/oHNy6MIwseLVaOT2by8wFIgZWLS//bsvfeJv2mfeHLuU08J33ft3Pmm3S7YOVdc3L93bwCI7tcv79ix7l27JtXR0zE6d+pUZfdSYuR3hEQKDat1vcNRfv68cePGyD593BS6ZP78rI9XxUb2/3iZ9zrqXTt3vnnzJgB0Cet009t7MbqEdb5ZVQUAXTqHVVVVVV66JJfL5dWm3q+ouPg04umkmvVB3matvHJ59VdflZ672C+YdWtIkvSFAAMARZIBtwEAOGOxxLhOVIq/7baS8vJ1GzdGeSiCio7eumvXvQ09rU+v3pYS285f9h46fnzkHUP/uHq1e7du4gsqzp9bt3FjVJ++165fr+1EBtm9qW++Wr1qw/pJDzww+aGHAODnvb9cvXbt1yNH7rj9ds+LCy3FLjfUz8MNdaqy2zt63uNqdu6333o+uXOnMNwqNzv0+I0BroTK5uX5TpZ8tJ/GgisujuzdGwCi+vXbd+zYn3/++eUPP/QKD+dttiqH4wzPx0XXeR7B5cuXAaBDx44AMPi2moqVwuCA9bivtrSb7oXdvAZXbOnfuxcARPfrm3fsqHAZHgS8Pr9BD+I3nHJ5iACHIHGEOHAIbRnkwIHQvj1vszX9GMnu3brdrKq6WFkZER4OAANiY0vPngUAW3n5gNhYr7fMmz59bmbmkueeAwAiMrJ/795znnwS/+nIyZP4gwyg6WvacbGxv505E1PHCu6C7KydRpOltGT3gYMAIJPJnE6nw263lJUuf+mlJr+8EeBt1nWbNuV84VPCG0XF0So6+5NVumcCeeiFS1aRANC9e3eHw+G022UKha28fPIDDxw5dcrt+vlq9VMLFmgmTWrXvn1sZGT3rl0FJRaIdk9hqTalYQOJ2OO//17XX9/5/IuHkkelKOk3DQbx637e+0vapInjVGP8e6m9qur+++5LnTjxiRdftNhsFyorb/75Z/vAl/oH3mbL+uQT3wvATp89e/xDD//4+Wc+n4PVMGzlZa+/8IIuPT3p8cfFHNgNVExMSUVFVL9+1rKyATEx3bt1E/d03zvsQIKoV6GfP5ScnKJUuin0u59/fvOVhd26dm3kj2sA4d27OxwOh90uVyhs5WWTH3jAVlHOWa3CBbGRUeFdu8158smgFup8ePbszCVLfLw4Y+nScQ8//NPnnwf2EOABMTEnzpwR/iko4o3acUhLSckgghD0opDLr9+44fWBMf0jx9x7X9LQocLIIIbQc98wGNyciFdbmvTgQ5nvvd+nZ68pD6dUXrr0yZcb2A1fymSyK9euel4/IDam9GwFANjKy+pyQ17h9mTPC9zssP7f2ETwNtu6zZszVqzw8XrlmDFZOTkBP+OQiomxVVRE9etnKysbEBOzbdeuivPnF8ya9dOePeBaJO3Vo4fXe7t163azqqqysjI8PNzzr5cuXcr5cgOz4UuZTPaHSI9N98JuXoOKiS2pOBvVr7+1rHyAD/uWockepC5olyzOzMgI7DNDCCHgCHHgENo4MpYseXrOHNWIEU0/P/D9zMxZr746eODAIQMHpk2evGjlyo9zc4+dPq1/+eXKS5ds5eWHCwoiune/cPnysVOn7hk+fNpjj6379tux99wDAKkTJjyt0yGbbfCAAZpJk46dPi1Mhvr37r3igw9eefrpLp07C++6UFmJH9gzPPx8ZeWxU6cqr1wpP3eO2bePvts9jXbFiy++9Gb2j7t2R/XpPe2xx0rKyw4VFPQI736u8tKxU6fuu2uEdsnie4cPt5TYSivKRycm/WPlyte02mMnTyZOntS+XTsyOubjZUt/PXyopLz82MmTtrKy/KNHenTvdvZi5b4jR4jIqCtXrxacPh3vcSBTo8DbrFmffpqpy6BIysdbMpYt1y9dkm3I0WkDNt15/cUXX3nzzR937Yrq02fe9On6l1/Wvfde74iI6H79RiUmfrl5c5XdfuHixUKL5Vjv3uNUqtsoioiKenzcOAAY+pe/kNHRT2dkJAwc+Ndx446eOlVaXl5kscTFxo5OTPzHypWL580bKF75djqPnz5tdzgqKyt/R6hThw703XefLiraGRZ215AhvXvWih7PnDwNAuXZAAAgAElEQVRlzuLM55Ytje7b76nHHnW78Z5hw95evbrQYpHJ5QeOH7/3ruErP/20V48ImUyWvmRp/969OnXsOOdvTwweOPDK1auHjh8/Y7GUna2wlpbkHz1aZLHYykqPnj51/YbdXlUljvRWVVVlvPvuyDvu6BEenjBoUMYzzzy5YEHyXXdVXr4cKIEDAF9SMmfJkszMTN8PiaVIauvmzXO02sXp6YGKBFpKyz4w5Ub37TPloYcuVla67LzH2YsX9x05QkRGYjtf/vzzH+bm/nLo0JGTJ99auLB9u3a4px8/fVr/8ssyhSKyd+8VH3ww+cEHr1y9euL33yuvXLl05Yq1tDS6f3/x62ZOnjxn8eLnli2L7tv30TFjSsrLDxUU9AgPP1dZeezUKTeFKhOT/rFyZea8eQBw9+OPd+/SOaJ7+OsvvbT/+DFbeTlvsx49ffrq9Wsl5WWnOU4mk909bJi1rOzoiRM4DCjgNFd05erVQ7/99sfVqxcvXzlVVJh/9FjZ2YqKc2f1Ly/IfO+9XhHh0f36j0pM/MuAuBl//4e1rPzqjetFvIWKjiaio2dnvJYw8C+PjxtXfu7clatXDx4/flft5/sN3mabs3hxZmbm6Pvv9/EWkqK2bd78dHr6jAkT1BMnBqQZADBk0KCHR49WL1w4MCbmweTku4cNW7l6daHFIpfL9x8/DgC7Dx68ev36wYKCf7722p83b77yxhuf//vffxs//lRhIS5JZS0rO3by5JWrV389dOie4cNfS09f+v/+35DbbkscOvRv48e7vc7t+e9n6gQnopkypX/vXis++GDKww+XVpSbf913e9wAhULx9ON/xSmpXbt0USgUi956CwBKKsqdAG7Xp02esmjl/32caxK5obLDBQUR3btduHwFuyFxY46eOlVaXlZk4YmoaPGTsdkU/H767IUL5ysv4YrTgh1mLVhQ/29sCtj9++fodFu3bPE9uqueOVO/bNncpUs/Xb686Q3IO3IEm/qy55//MDf310OHDp88+dbChWcvXMj66KM3unS58scfvx46pHv22cXvvTc8Pv7YqVM3q6qmeGQmv5+pm+nS7H13Db9y9eqJ309XXvnj0pU/Lly+5KbHyN69VnzwwYszZoi98BsLX/ntzJmwjp0sNquPXljsNaZNeGz58/M/zM395dDBIydPvrVw0fa9e0vLyyrOnT184uQZi6WkrBR7n+Hx8bv35xeXlhZZeDcPopkypekiTXn6abU6VfnAA01/VAghBBWh84FbC6RznJdE0AgjQQjply8n+/QJ+MqxdNDY8wmtpSWf/+e/i+fPB6dzgV7/0Kj7Hhnr69zUD2Sv+tj47Xc5nxroxq83Z7++gtlpVo24S/es+5bLhiCdkSRY/XfZ++8/M31a/z59K86dnTxv3u6v/lXv5b4KZExq6tcffdT0mli8zWbctMm4cWOBK/HBBZ8EwiFu/eefo8JCzWMTbonzgZ3OecuXfbB4iUKh+Hrb1l8OH/m/v/+92dsShPOBN20ybtxoMBh8XwQRgBDK/fxz4/r1q7OymqFA9NurV/ft2TNt6tTaX99i/rdhOwyAkeBlEVql8u98YP2KFeadO8eMGKHz2Irf/PDvfOBm9sJe0UgP0gDYvLzXc3LUaRrNzFmh84E9IAlfAwCSEQi0+PnAoThwCG0N+KRBlmV5nuc4DiHE8zxBECRFzV2xguzXT5pM+EOjEadcYgyPj8exx6ZcWQ8UCoW1vOyTDev//PPPzmFhDyXXd1xtU5D9ySpz/n4VrSzwSDP2EbrFS1LTuPVr1jw8d64qKVHKBwVv3rFjz6FDwj8junVbOGeO1ysLTp/O/f578TevzJrVo/GcM6J7t9xvv+3cubOtvCJrwYIGr//IaCwRGc9d8fF/9TCe4pKSsxcvnioquvcu/w/m4W024w8/mPPycnJyMt56y7+HUCSVsXwFV1i4fu0a4w/fax59TIJHJWH4rvr6IJPJ5fJPNqwHAM5qeyHNSwE8Ma5du5b9ySfibyY/9FDS0KGNfm9wwNts677/3vjNN5+uWuW3DZAkmbF8eerMmblr1sxZvHjxvHkBjAm7wW63n+Q4W3n5lCtX/EtH/2HHz3sPHRb+Gd6t66I5cwPXwMbht9On1/s3yDTSDhsF3mZb99135vx8lVK5dft2kPt5QmfGkiWpM2bkfvHFX8aNW52VpUxKCmAjG4SbF74j/nbPgbRBNNYLB8priNFYD1IXUGnJ3MzFKlq5bfv2ek71CyEESSEUB24tkM6yjURQYyQIIcx4zWYzprsqlQoAlEolQRBuGVamNWtYsxmqqtIek+582g/4tw4dPPA2q3HTJsx+M5YuC8gzOcSxZvOunTtREaeZOFE9aVJDd0hnJJGIdoIukOrA7zffaKZPnz5rVt01URotEA5x69esQUVFUFWlmTAxcJ1XEkbSTioWAk0XCA78mvPyVDSdOmtWACsYIYTYHTtYsxlxXJpPI0CgIB3tSASNNhLeZlv37bdMfj6y2TSpqRk+bwtvEAih3DVrzAyjSkpSjRjRIm5dav632YAdvfGbjZrU6R6OPhQHdoMkfA0ASEYg0OJx4BAHbi2Qjsm2MBDiACA39yuO4wCAZVmNRgMASqVSqVTWfRfieZ5lWQAwm808QspRoxDHUVFRaROCl2bZfJCID66mvnn5KuXo2AEDNDNmBuMtHOLYHTt2mc0c4lUjk+gRiXVoUDojiSS0EySB8DYbslqZgweNX3+tmTZt9NixPhwC7L9AuKLC9WvXIoSgqopOTCIjI5vWfyVhJK2dA2MbMLtsQDl2rNK3g6D9AybDRpOJ53nNlCnBZz7S0Y5E4JORVFvFgQPmvDyQy1U0HUDq6wl2507TunXMrl3NYhK1IBH/22wQO/rRY8fSY8Z6uyrEgd0gCV8DAJIRCIQ4sFdIx1CkA+mYbAsAIc6V24xYltVo1Erl2PoZr5ALDQAsyyqVSoqicFhYfCPiuNw1axDHgd2uGjGCjIpqpXy4BX0wb7My+/JQWWk19R04UJM2o3lezSEu12TKys5Oe/JJxCF6ZBKdmCTSoHRGEon034AJhLfZTBs3OhUKPLulaVo5dixdd5f0QAAEwiGO3blzl9kMDgfY7f7yYUkYSWvkwLzNZty40alQGL/5hiAIFU0rx9Y3LAcDCCEeIXbHDjPL8jxP3323asQIMjo60MO4dLQjEdRpJIJVoNJSzmpVKZXKsWOVNN1sLUMIsQzD7NghczqhqkqVmNjkZbKGcStwYN5mNX77LZO/H9lsmmlPjR47tqHqHiEO7AZJ+BoAkIxAIMSBvUI6hiIdSMdkmwkIcbm5uQBgNJqUSiVFkUqlUqkUXKnCdVnN7l+z2Yy/FHKhfZ+QVWfZMQyeT6uSksj+/VsRH25mH8zbrMbvvgO53Pj1N/ToZIKilGPG0HSjC974DQ5xubm5jJmhVXRqaipFUhzieI7btXMnQojZtZu+52466V6yf38yOjqwZ6v4BYn0X/+HVt5mY/LyUGkps28fstno5GSCohrJe8UIsEBwnjy70yxzOpjde+h77saUmIyOauh0JUm4G+lzYN5mA4B1334LCoV53z7eatVMmwZyeeqMGUE6r9UP4GGcYRiZ08khREVHYwrU5EFAOtqRCKqNpDrSu38/yOViq2j+1RCvQAixO3cyZrPM6UQcR0ZHB2eJpG1yYGF1m9mXh3mvU6HQLfY9kh/iwG6QhK8BAMkIBEIc2CukYyjSgXRMNrjA1JfjEEJIpaIzMnSeF7Asy/M2z92/gXK61QvJO3fiDGr6nnvA4VAlJgbDdwYKQfXBvM2KrDYmPw+VloJczvzyqzI52fjlBlpJqzVqACBJklY200p/tj4bcYhlWbVGrcvQAQCHOCHRnTEzPM8rlUqSIpWjx6DCwl0MA64JMZ2YCA5HS+hRIv23ERmMyGpFZWXIZgO5nLNaeYuFs1gAgCLJ6nwKmsbkxy8aHFyBcIhjGQbs9l0MAw4HQjwZHUUnjSQjIwGgtvYl4W6kxoGruU1+PsjlzL59yGolCILdswcA1Go1TdNuCTUSRPXyqNkss9sZlgWHg+N5zIobPwhIRzstBt5mBQBmXx5XWgLyDpjx0snJxi+/BACSJHU6HekaHFq6sV6AvTk6c6ZmiSQqSpWUFIglkrbAgQUvD3K5OS+ft1qVyckkRSrHjvXXuYc4sBsk4WsAQDICgRAH9grpGIp0IB2TDQow9TUaTRqNuna8tyYR2uyiNxRF1p8LHei2IZ7jUFER9p3M7t30vfeCw6FKSmohQuUFgfLBYkeIbDbOauOtVs7CUwSZk/OJOPeJQxwAYObJMiz+7GJHSjwZ8v0o4AaBA78mo0mpVKo1apZlEVedAlDNeJVKjzcqRLcjAMC8iGUYxPNUTAyzZw99zz3gdNJJSZgdBS1oLJH+W2toxZE9Zt8+VFoKMhmzb59TJuOtVs5ioZOTaZVKqVKJ+S2HJ5EuSeI5JRasmBhD9ZpI/d2zWQVSbavV2mcRz1Mx0cyevfQ9d4NTEXztN4wW4cCY1SCrDZWUcCW26v5eXEIQBEkQFEURFEXGxQkjrZB0AwAMwyCESJLE/wUATIwlS4FAaD/DgMPBmM0yAHA6md27yehoMiamejyPivJmBhLpv0FHjUnYbFyJDeRy5tfqYYFOHkWSJMjlSpUKZO1rbSlyjQzCWQz4e5IkhS1IUjMMYYmELypCCEFtz+5tsaw+tCIOLKiY2Z8PMhmzL48kYplffsX6jY2LI+PiArSiHeLAbpAOtZGIQCDEgb1COoYiHUjHZAMJMfVNTU0lSQo8SK9Go4bqMK94XG5JI6l2+RwHdjuDCVVsrDCXIiMjqchIcDrJ6Ghorom1jz64ZopjtQIAKi0BmQzPfZlf9lKxBF76xXNfgVJi/ok4hBBSa9RKpbIucotDsgghzIrBxVEBABNjAGiUf+VcxpCVlUUraZ7n1S578OE5DRsJJ6jS4WBxfIDnwenkLRasTcyQ8WIHAOD/Nl6hzZ2pjj8gqw0AkNXqUnQ5Ki7GM1oiNpYkCJKiqie1onAuh1Bubi5jNtMqlVKprJ/NYg7sUjoDAAghhmVBRIwBQOkiSK5K0ZIY0DjE8bwNIYRXRsDpRPVqH4LWnQPOgYWeDgDIasV8BtlsqNjqlMkA/w+AJAgqjgK5XEnTBEGQJOXH0FoPBQIA2rUsIjUWJAAJNlxUxHMcx3HYDADAZQn9welUJY2sbQkNptlLCJ5jQn0mQZHCsKD0Psw2bCRINDK0FsMQPDvPcVxREfbsHEIypxOPBqravkAYCqTDgcWKRlYrqq3lmpE/jiIoiqSoYCZwhTiwG6RDbSQiEAhxYK+QjqFIBxIx2YCpxmQyMQzDsqxOp1MqleLDjXyp8ywZgYDbKU2AvT7HgcPBI8RxnAyAw66U58HplDmdZGwsOJ14jkVGRQEAFRUFDge4KJZXkNHRmLh6AlmtVWAHmQzZrHgqg6xWPKER5jd8cTERGwt4ikMSTrmcIEkyLg5cpJRDXLo2XZepq8cpYkbKMixORa6DiLobiWf8kCRJETeumQmBa2s34jgAMJpMAECRZIZOp1Gr62pV3WiSkeDgYXXLHQ6e4xDiwemUgZPjLVRsDMdbsBJlTicZ41IcXvtwOsmo6BotRxP1v6se5QJA9Z9kMmSzVR+9iJVrs+HPXHEx/iDWMgCQFAUyGZ7rAABBRPkemRfrOkOXoVE37ozQWtJzZQrgKSYA4FkvSZFCjCiAKQONhPcxTeD24HQijuMRwh8AAPE8AAgciYiJoWJi8D8F7QPu2jUGUB9ZIqOjrVa+ngsEAwCZjLO5PosMAFmKq7u5xULExoJMRhGxTpBRJAFyebUNVJMNyj+B+AEk6viMa30EAKoPbBcFCcFlEoF6dQCBEAKoqhkHEAKnk+MQuCwBDwXYErwOBQBA1RoNGmDOZHQUZqoecFXBqGUP1TYAgj0A4KUu/L3bmEDhMYEkqwcHP8XepKEVuZZKAQCXuhScgsswyNqGQdX9sGaaLtYYs8OBCX31khkAFRt7hi9yOfcYN+cuOIKGBoG6lA6ANS74d4AaFy/u+9WKVpAEQZGkUybDa1tYy3UfUxc8uBvJ+Qvne/Xs1ezNAMlwCunMWqWDEAf2AonYq6Qgkc4TANWwLKvVagFAo9E0hvS6QSICAf/CJvgD5gM13zidRpOJjI2lKErwoxiYP9dyYyIuBDJZFBkNrvV1AMB8EgAaRS2EoKvOYxu21ysxQcLJybRHubIGwbAsQkifnc0hRLmmOyASC/4ef+k5UcO8zg3CDwcAgCrPC3yZ8NV+iHeIBYv5Hoa7TgHA6eSRVfhc81+ArDff1EyfXj1hqku5AHgSUx2lEV2G29mYyY0/vUbQNQDUVrT/4ESTYIEe4z8JAhRrwU1rJOVu556XeellHHL7EwB4NVdM0sQPFK/UeAqcEz2wDgOo+VzzX9FlA8na8+PGGAAA+MBsfUdz+F9xkBBqM2QBghYwvPZcytsgAL51YTEaGha8jCReIWSGQ+2fw7sCywDAcUhsALVud11GkiRFxNb8odoe2gv/JFxvqcMegk14guV/Ue21M0Y0OODEe2EBxXWHQmwDdendD4G4WWM94Hm+CqpANMKA5/jjdAIAx/v6zLog+B3hl9IqtwG5ndsFGF7tJMjEOMSB3SCdWat0EOLAXiARe5UUJNJ5/FcNPq/IaDQKhayaVsVKIgKBwIZNtFrttm3b/LjXHiCBCPWWcww5PvJnIVMaAJS0UqOeWcdlNUc0I45z7eOl3LJthUTcHINB8NCcx3REYBpieMxa3GeuXu9yfwjn0zTF9xkSAIiNRDyzF3/2Oksj653eNX5a09TAON6SLVQjCxLcYsjgjcd6wqtGfNC4l/4rVpDXv7p97zvj8srwweV/WxYua6wlEDezrItvuK2+BZyDNVa5jeqePhiJTxyY823oaBB1N77uE4lqrxf4d01dWvNcaCAI9+0AbvfWtg3325sO5Fp25Hlb7e/9GwTqgy+9O5r0NSu+saszDcLj17UDb3IQDaGc8KVXcQmqJClK3J0bH0wOcWA3tPwgLz2EOLAXSMReJQWJdJ7GqQa5aI/RaEQIqdVqjUYToFpWEhEIBNBcU1JSMjMz/ZNPoDgwBoe48ePGb9m6pbFh5NzcXMQVA4CSppVKJT7dijGbXbWaKVflKu+u1Ggy6bOzcwwGf0/ccYOkjYRhWZPRaDAYwBvJB4/JTWOnNThsArXmvnbR/Ib0pN++5CSLT6UKKhMOKjjRHFrMtKuznWun7IJrPzPU3jUNACzLCrugSZJUazT+ma4UOLAL7ps7BNRjkPhPnMsOxYE7qC1JAKA85tbSzIIWQSLaCeLUqC7iXcdq45l6LnNbCxA/WTAJqGMFkKJqEoLAy9oK5dEWSUwXA+t/m4amCqRmG4hId6y3vQwgSpDxNu6FOLAbpGMk0kGIA3uBROxVUpBI5/GpEgbmvbgGBj64yGg0GgyGgFZylohAIFDmilcKMCPyAwH3wY2lwaIDitoxrmOrGJbNzMzUZWT4cDtK12pplcqXi32GpI0E73b2a5+zn+BcM1e3+U31P/EWR1ex39oTHSXUZAJT4EqQNhlNrZoJA0CD/ddzNzu4puaYGOPJn3AZyzCuDQKN4MPS5MCBBfKYW+NSSSCyOpBowSSJaEc6U6NACgR57CVxG5o477sYAABIcgDUXlVpEYNpSxzYF4hLIYJoYAQA0bF5VW4bZ0IcuKUbIEGEOLAXSMReJQWJdB7vqhF4r7C/V8hzZlk2KyvLv/zeeiERgUCgzDU+Pr6goMDv24PhgxukwUIWNK5lQqtogiDEudBCYnP9IbJsvd5kNAYu/CtA0kai1WozdLrmLVXSOIGIgqW8q2JqTfUafCQVPpBZrVGnpqa2XF2rpsCf/tsg48WWj6PKOCeifkXfChzYR3hW0gJRYLmFTmCSiHakMzWShEAQ4nDqb+0KW5zbkopQei145yneahy4LgjZMQDAMjvAdTCEklZq1JoQB27pBkgQIQ7sBRKxV0lBIp2nlmpYlvXKewWYTCaj0RgEAgySEQgExFz1ej1BEOomhASD5IM9aTDDMizLCsyHIAiPisFeBFLXcTvBCf8KkLSRpKSkBKdr1IMAJ8wLp0Nj3tI6mXBgUgcx4/Vc1OAQwvnSLMuqNZq6zpoKcWBfgItKgIsb4+k1ZsVBPi5eItqRjmokIhBoUCbCkgoj2rMQcJsJcWBvsINwNjvLsgy7c+fOMWPG0CqcPtNAbUW7PYAilYhMpGMk0kEgVSPmpw0ixIFbFyTSeRQIodzcXI7jWJb1ynsFBC0CjCERgUDTzbUppbAEBM8H4zOTcgw5Qj2khs7mrVMgOHpmMhoxHyAIAod/gxYLlbSRtHYO7AZx+egMXUbrYcIBczd4Qacue3YzfrdFnxAH9g9iVixQ4qYsJtYBiWhHOqqRiEDAv3MZWJZlGAbv1Wpabc5qhDiwN3jZD3z58mW8ho6PV6Rp2m0uYbfbr169arfb7Q67Qh6o3yIRmUjHSKSDAKvmz5s3O7Rv37Fjx7CwsPqvDHHg1oUW7jwIcbm5uWbzbhzyzWgoaocQGjduXFOSexuCdEaTppprU0phCQheHBhTXwDweW9wwwLhEBo/bhwANHbbZCMhaSPRarV+b//2F0EXiGAwSqWylTDhQLobbNj1j3tCZBgABOMPceCAQHz6QED5sES0Ix3VSEQg0ESZYGthWVan00kwD8svSNdIxLnQeM1UIMOZuky73X6x8mKH9h2CQCskIhPpGIl0EHjV2O32a9euXbt+vVfPnvVEhkMcuHWhZTqPi/oyPM9rNOqMjCU+3hgQXlcvpDOaNMlcTSYTz/MNrik0iIDXhXaL+mq1Wp/Phm1YICkpKTj/GedIm4xGtUaTmpoa6ICwdI3EaDLxPB+cDPB60EwCaVVMOMDuxmgysQzjy+qG2PhnpD4ZjCNk/EJb8L/ItS9RiA837UgCiYwk0lGNRAQCAZGJEBkGAP/sJMSBvcGnutCYDO/4eUdhYaFao3569tNBaIlEZCIdI5EOgqUau91+5coVhULRrVs3rxeEOHDrQrN2HoH6AoBKRWfU1H31STV6vT4g+UX1QjqjSZPMNVAJsQHxweJjb9wSnvHGYN8C+/UJBOeL6jIz3QoICZExJU0HrlSydI2k+YtCA0AzC8RoMuqz9QAgbSYceHeTrdcDgI8LHNj49zA7AECjUSt9WmYKKtqa/xUfVdDgFp46IJGRRDqqkYhAILAywVu9jEajRqNJTU31ve5aiAN7g69nI+EI8KVLl4TdNLiGVuBaIhGZSMdIpIMgqgYHhNu1a+c1LzrEgVsXmqPzCNRXpaIBIMPLkScNqybI24AFSGc08d9ctVptoA5MbooPFkft6vE9RpORZVgfAlz17QceP25cPfWfxaWzAhEWlq6RtERRaGh+gQirKrhiliRPUQq8u+EQ0mdnN/ZsJDz8Go0mnS5DHcj5X2PRlv2vmA8DgM/J0hIZSaSjGokIBIIhEyEsTFGUj0w4xIG9wVcOfO78ufDu4QK5EKehBchlSEQm0jES6SC4qsHR4G7dunkmRYc4cOtCcDuPXp+No74ajbre6VfDNRiDvA1YgHRGEz/NNbCLBf754MY6m2x9trdC0G6oUyApKSluEeA6WuVlw6RfkK6RNPEoLH/RMgLBSQQc4mglnWPIkVhAOCjuBuc7+N67hf3AEmDCt4r/Feo7QsNkWCIjiXRUIxGBQFBlYjKZfGTCIQ7sDT5x4Lp4hDgrrclMWCIykY6RSAdBV43dbj9/4ULfPn3cvsccWBEdG3vt6lUAkIMTAOLj4x988EGvD7p+/UaHDh3kcrnwzZ9//qlQKBpVjdo3yBu+5JaDMxgPRYj7+OOPtNr0O+8cZjAYNBrNsGF31ntHA6p58sknV65c2SwnNwZFIH7BT3PFJZEiIiIC0ghnIwWSrc9O16bLZLLU1NRMXaZvG32BIAh9tl5JK+tttneB+EiAASAiIuLOYcMmTJhwx7Bh33//fbpWW3npkl9MWLpGsmnTJo2m+RlOywgkIiLisQmP9ejRA/AGeAvvo701C4LibiIiIkiKwokevjXCKdyoVNITJjy2a9cuPDI370G4cOv434iICKVSOWHChGHDhu3atctoNG7atKmysnLYsGEe10pkJJGOaiQiEAiqTIYNGzZhwgSEkMlkOnr0KEEQdTm+xvrfYEK6RnLt+rXOYZ3dvqy8VNm9W3fPmyMiImglraSVlZWVH3340ZGjR+qRf0PwVSY3btz4xz/+cfr06bvvvrvBiysrK9NmzAiPiBg4cKBvj3eOGzdu7P1jvf5eiaOysvLBhx6cPXt2oK8PurnK5XKnwyGTydy46h9Xr3bp0kU6vSWE5gNCnF6fnZKSkpubm5qaWlBQ4C3tudFgWTb45zS2EZhMJpVK1eyzW+AQl63Pjo+PB4CCggJdhq5RQTmKpHIMOena9Ma+13cCXPt1pC4jY8vWrQRBaLXabL0en8Xa2sEh1Pyqb1lQJKXL0Kk1aoZlEIfi4+PxuZFtGLRSSatUeG9wY0GSVEaGbuvWLSzLxsfHsywT8OaFIIAkyYyMDIPBoNPpAECr1Wq1WpPJ1NLtCkESUKvVBoOBIIjs7Gy9X905hLrw559/dmhfXyYpRVIatQbLX5+t12q1jL+D4Z69e//zn//Uf03Hjh1vGzRIJpP58sDw8PDoqKhGteHrr7+Ojor2/P6tt94qLStt1KME7Nm7p8Hf5TcuXbq0bPkyAAgPD/9x248Bvz4gyMvPr6qqqueCDh063Lhxw+ufQrnQrQWBSaLAOc88z/ubaFefalJSUgwGQ3NN7qWTVeLP+YRNPxDYDQ3mYuHdvBCIahPZ+mwAqDs9yV0g2Xo9QRBNr/+Et1kihNQajW9Pk3OQCyQAACAASURBVKiRtFBBLJCCQPBx0yRJIoQCkeTWdATR3WCL9aVGdD1nIwnZ0QZDTrNUzAr531qFgmmaVquntXSLMKSjmpYfSVxoVpkI2dFuRzmEcqG9oeFc6GvXrjmdTreSRb///vs777wzZMiQ3Xt255pyv/322/0H9vfs0bPibMUzzzzz6COPOhyOhKEJCKHNmzfv3bP3ueee27FjR+8+vdPT0xdnLj52/NihQ4eu/nF16l+n9undZ+rUqS+++PLp06dtJSXdunZ9dt68xBEj3NqwcOHCwYMHnzlz5smnnjp06NDhQ4d69Oz5v//977vvvuscFvbKK6/ceeedx44dW7VqVWFhoatte3JNpoULF45/5JGhQ4cuWrRoxfLlGTpdWFhYv379Tp448enq1Z06dnz11VcTEhKOHz8+Z86cvv16Pf7442u+WHPjxo3Jkydrtdqff/754YcffvKpJx955JHp06bPmj2rf7/+uFVvvfWWw+EAgPDw8CEJQ8xm8/lz50ckjkhJSRk3btzEiRPPnT1XVVX13nvvzZw1s1vXbnPmzsnJybn//vtTUlLmPD1n4aKFCKE1X6y5/4H7e/fufd+9961atSo6JrpL5y4LFixw08tO807h+TPSZmzZsmX79u1RUVG2Elv/fv03b968YMGC2NjYp5566sSJEwsXLjx27NiGLzdcOH9h4aKFOTk5b7/9NhFL/PTTT7m5uatWrXK7/vLly2IhKBQK8W9fuPAf4pY4HI5nn31WJpPZ7fbnn38+d/16IjYWP/lf//73Z599Nnbs2C1btrzzzju0Upmenj4iMfH0qVNXr15dtWrVkSNHVq1aFR0T06VzZ7ffaLfbKy9d6tWzp/hLnAvdzkdbDqFVQ5hFaTTqIFWrMplMJEneatEt/6DVajMzM5vnXeIdv4E6jTY1NVWfrWdYxpeMVoZlGbM5IFZHkaTBYMB1s+Lj49UaTbOfLRQY8DxPEERLt6JlgFMJcnNz8T+z9dkSoMHBAkWSSppu4kHQOCacmpoq7BOWzClKbRbYl6nVakyGtVotANC0skVrlYXQ8lCr1Wq12mQypaSkqFSqph9qeIvjxo0bXbt2dftyydIlzz33XPKo5Iceekgul2dmZh49elShUKg1aqvVOv/5+RUVFQqF4uTJk9u2bVOnqt9///2z586SJDlkyJChQ4f+7W9/O3bsGEJo/vz5mzdvbt++/bx588rKy1etWpUwZIgbAQaAtevWxcbGPv/881evXi2vqDh06NDQoUPnz5//540b+Xl5FoslISHh+eefnz179t5ffvnoo4+ee+655FGjcNsAwF5VteaLL1Z/+mlYWNjIpKRevXvPmjnz/fffX/3pp+Hh4YMGDZo3b96JEydefvnlzZs39e/fHwCGDRvWuXPnV199VZOmmT5t+sKFC/v26SsmwL/99hvDMD/88AP+3KNnDxWtOnHixOIli2ekzSAJckbajIEDB07969QDBw/Ex8cnDEm49557d+7YCQB9+/TF8/ARd4347rvvdBm6svKyF154YdGiRUmJSUOHDn3++efbtatF/f7yl7+In//KK68cOHCgU6dOv/32W2lZKUJowoQJAIDvWrx48ciRIzt26Hj16tUnnniiT+8+L7zwQnRU9J69e06fPj0icYTb9UajsbYQNtf+7bU4sFwuH37XXfaqqjlz5ty4ceOFF16Ijoras3fv6dOn7x45cvPmza+vWJGQkPDTTz/dNXz4wUOHDAbDr/v2rVy5EgCy9fpFixYlJSZ6/sZ6duyGOHAbBw78qlR0ampqQBKe64LRaAwUxWrbaLaMcYH9ZugyAlt+iSIptUZtMpp84cDZWVk5ATUMnCCdmpoqzE1bosByk4A4LjU1taVb0WLAedHZ+mxcijxQx4NJE0qlEld3ayIwE0aI02rTa59XF0IQ4SLD0/A6ckpKCnamoWWIWxlqtVqpVOKl2K1bt4aW/gOLwsLC2NhYABg8ePDFyotyuRxzmKioqKKiIgDo2aPn/PnzecRvWL8BIfTEk0988sknkyZOmjxp8uXLl//444/Pv/j85s2bgwYNEp7Zr2/ful535syZ4cOHA0Dnzp3FE4mwzp2rqqoQz1+8cOHT1avxVmRx2/Bla9etO3Xq1AsvvCB+JkVR27ZtO3f+fGJiorjlbujSpUuV3UsSb2FhYUxMDP48ZMiQPXv3fPXlVzdv3rTba4XW46g4i8VSjyRdv72fxWLZuWPnwYMHE5MS//jjj/DwcPEFRUVFwvMrKysBoFOnTvjVnhna4eHhjzzyyJdffVlWWvbKK6/cuHHjX1/9q2evnhaLxe7wkg1RWFToVQh1/XaMTp06yWSyzz//vGevXhaLxe5wtBdu7Ny5qqqqe/fu48eP//DDDy9fvrxi+XIAsFgsO3fsOHjwYGJSkudvrAuh/cBtE3jHL972uW3btowMXVB9digI7DuaGBTyBRzitFptujYdb/YO6Dl71cDst8GdOdl6vVqjCQZBpUhSo1YbDIYMnS43N1er1TIsG/C3BAksy7Yu0h4M6DJ0W7ZuwRnRKSkpbXV7MEWSao0GL9Y0HSRJGQw5ABDaJNzMwGsQBkMOQRDZ2fqUlBSTydjSjQqhxYD3kG/dujW0STjgiIuLE1btI8IjHA4H5n42my0uLk64rFv3bvPnzycI4r//+e9PP/20Z++eO++8s1u3bt26dUvTpM17dt77778vfqxMJnM6vZQuGzBgwG+//VZXY4jY2MGDB8+dM+fdd99NHjVK3DaMmTNmzJwxY/mKFeIvLRbLbbfdNiAurrSkxLPlnhDaxlv4a9euxcXFnThxQvjryy+/rNVqJ06c6HYXb+EHDhwo3KtQKK5du+b1+TExMWPGjpk7Z+7aNWs9yaH4+eHh4Tdv3rxw8YJbw8SYN2/exx9/HBYW1qFDhx9//LHibMWMtBl4/u95/YC4AaUlpb4IwQ0//vhjxdmzM9LSvDKLqqqqYotl/vz5r7322pAhQ1y/cezcOXPWrlnjIwEGgFBd6NYCX6sOsiyTnZ3NsuywYcMMBkOg9495V82iRYtWrlwZqBLHvqFVlmHU6/W4DGnAG4HrUhpNxqeefEomkz333HPPz38+qBq5Y9gdf1/0d29lb6sFwiH00Ycf4jSV4CEiIoJWKoUK0uEREXfWiFeiRnLkyBGcLNTskI5AAHBhXlpZWVlZWVnZcvWig+5uSJLctGnTHcOG1dMf5T6rRigc/f333xuNpmHD7gh0Nw/5X0/UVO0eNuzOCRMm0LRy165dWVnZLMtGRIQ31/qvdFQjnZGkJWUSERGBC0cvXLRQMuXupWsknnWhr1+/7kYrAGDYHcPe0L+Rvz//6NGjw4cPJwgid33uoUOHFArF7FmzjeuMZWVl995377p16zp26Pjss88qaeWB/QcOHzl87tw5WkmHR4RnZWWdPHWyfYf2165d++yzz+69LzkmJubGjRsffvBBdEzMgNpMLGHIEJPJtH379kOHD0dHRW3atKm8vHxUcrLRaASAp+fM+fCjj37Zu7eI44bExycmJr6h1+fv33/06NFBt9++bt26iIgITVras88+e9vAgefPnz986JDFYjl48OCrr746fPjwr776CiH0/fffL1y48I8/rhiNxh49e0RERKxevfrhhx8u4or++5//Tp4yuaKi4r///W9CQsLy5cs7deo0evRoq81q+NRw6PAhRTvFlctX/v2ff9/886bZbH5swmM/fP/DH3/8sWfPnrDOYWmatBs3bnz4wYfRMdGDbh+0YsWK8vLygoIChVxx48aNn3f8PEY1pkePHgMHDlyxYsXhI4cvXLiQkJDgppfjx4+Ln3/nsDuXLVt2+PBhm802atSoN996s127dtevX1+/fv2o5FEx0TG9evXaum3ry6+8HN49XCaTvfPuO2crzhZxRR07dBwzZozb9Q8+8KBYCFevXq3926d279atxmKcznXr1pWWliaPHh0WFvbOu++erago4riOHTpcu3Zt+/btjz766OYtWwoKCh595JG333nnk5ycL7744qf//W/s2LF3DB26YsWKw0eOeP2N165f71x72zmuCx2qidVa0EDFBZyphdOeg5km50U1uEpEsydCt74SFMEohSVghX5FgE7SawRSUlJ0mToPx18tEK1W27TTfRsNvFXYZDS6tgpL0UgYljW12MYB6QikBjhpH3GIpEior9ZakNAc7qZBpddTE6seBCc1OuR/PVFfxbLsbD3Lss1ynrN0VCOdkUQSMjmDzuBBLEOX0dLnn0tCIADgS02sixcvutEKvyFs/sox5NQ1Jwk23n777T59+85IS6vj74HpNZMmTfrne/8cEDcgIE9rafipGktx8RdffLFk8WKn0/nyyy8/+OCDjz76aD3Xn79wIVQTq22iGepdNQialsLyp9QRjFJYCKHc3Fyj0ThNM635tY/PSaK3edc+Qqg5CTCItgrjnXu0KlmC9ZYQQspQfxFB2B6M/9kmq2TRSqXJaOQQCmwOPE6Ndu1L3BLapNr8IEnKYDAgxAnlCTQadbOU7w5BQsCDGIc4fbaepMi2N4JJH1gF2PvjMiheFyOOHz++4csvxd8sWLDAjR35h6qqqlOnTpWUlFy6dKl792CdAFxxtqK8onz37t1+c+APP/xQvMt3+J3DH3/88QC1rtH44Ycf9v7yi/DP8O7dFy1a5MuNCoXCZrWu+uSTP2/c6NylS135yw0iFAduLfCygKTXZ2Pq24wlOryopoVK2rSOdWiWZXH5K5PJxPN8AMtICuxXp9Op1eqWOptBq9WqNeray64KaIkgsBs4hFh2Bz4OSgpr8xxCuBwaNokWkox0eo0XZOuzWyIa3EzuhmFZlmXrqmTuXxxYAF4JBYBABIRD/tcTvmpHvCQdhIQs6ahGOiOJJGQi+F8hGrll65YWcjqSEAgANHMcWAyPxQiJyEQ6vUY6aCbV1BUHls7OgRB8hbjeVUFBQbDrXTWIUCmseqDVauPj4xFCRqMxUAQYIaTX68eNG6dUKgsKCtQtcMxsDTJ0GdlZ2Z7fN38Q2A0USWrUGoPBkKHLcBXNaskaQjzPa7XalJSUrKysdK02JSUlUHWS2gx0GTolrTQZTYhDYuG0jXJZBEEwZnOQHo4rNgFAfHw8ahPiaqXAiti6dQsApKSk6PXZIXXcUsDRyC1bt6Rr04XclhCaGRRJZegyACA+Pr5l/X4IEkeIA7cmYPY7btx4cLHflm4RmEymUCJ0PUAIIYTi4+MDslLgxn6b4YClBkGRFEmSbm7GaDKpvdTKahngSUmGLsNkNLUgExYfCMwhxLBsKCPaExq1ZsvWLSzLkhQZHx/PIS4+Pr5tzGOo4FfOx+wrO1uvrz35DtGwZgZmwtu2bcNFpLVabaiI9y0FfAo6AGi1WvESXhsYx1oLhMUIhFB2qHB3CHUgxIElB4SQty85rVY7btx4giAkwn4xGIaRAhOTJkwmk/hzfHy8+Jt6wHoc8yNB9isgQ5eRrk0Xf6PPzta0aHTaExRJ4Zgwy7ItwqkokhTvBaWVSqmJSCKgSGrL1i2MmVEqlZgGA4DXXINWB4RQsE/wwttTQRQQZllm3LjxIQ7WIlCrNQaDQecadrwepxRaoWiTENZehYAwwzIpKSnG0JFazQiKpDRqDUEQKSkpAhNmWBbnUYYQQogDSwsIoXHjxom/YVk2JSUlNzdXp8soKCgIfuXJxgFvcWzpVkgUDOM+7/RFVgihlJQUgQZLmf1iUCSlVCrFrFKCjcQQ1obxlNRtOhLsU2rFoWBdoKujtSVQJKXL1Im1w7BMGwih6DIzPZe3ggFxQDgrKxuXj26G94bgFUKCNM/zOEFa/FetNl0fSpptoxACwtn67JSUFADQZ4diks0NjVqdYzBAtYtH2VlZHEKhvUghQIgDSwo4aRa5Oqder8dcaNu2bS2+6bcuiKf1IbhBPN/1kcFiGwAArVaL2a9Wq01NTZUm+xUg3hVsNJkknuUrMGGe5+Pj4/EivdFkZFhm/LjxwaPBtEpV/aHFamK1DnCIw/NFMdpAKDioW4LdQJKUTpdhNJpwBBhnEjXPq0PwCsyEDYYcgiC0Wq1Wq0WIM5mMLMtkZWWFaHBbBXY3JmN1ChgX6oktAXxmRI7BMH7cOJyMYzSZjL7l5YXQhhHiwFKBQH4AgHWlamzbti2AlYRDaGYIae2ZmZm+lM5GorVJ/Dk1NXXbtm3Sj7TjXcH4swQTob1CYMIAIFSo4hAXPBosrGKEgsD1A5c4dgPP8609FNwMW4LF4HlenGeL6VazvT0EryBJSkiQxluF8fchGtyGka3PFvsUvN7acs25dcHzPCfabKjPzua87T0M4dZBiANLAmICjP+p0+lC7LdVQwgC+76QodVqxaFjnuelz34FqDVqHFCVcrzaE5gJqzU1pD2oNBgANGp1KAhcP3QZuoKCArfDtDnECbGU1guEULPNujzzn0MZ0dIBSVI0XWscCNHgtgrG7M5400M9sSWQXjsCzyE0vvbewxBuNYQ4cMvDjQBjZGe3Dl/YikhaMwMhRJLktm3bfOSE4j3AwhN8rKElBRAEYTKajCajxBOhvcJtj1aQaDDeOJChk0pBOykDr024MeHm2UwbVDTngFlQUIAFqHQd3x3KiJYUjB5rOiEa3Caxbdu2goICg8FAu3piKCO6RbBl61aDwSBegw5tDL7F0a6lGyBReC3OjMHzvPC5rt2wvk90PAkwSZIEQZAkiUmUj89pEdQjpbaEeup28jyPO5GnJfA8v3XrVh81KCbAJEkqlUqKoqBVxVRxZSx9tn7L1p9aui2NA8MyWH1i0otp8JatWyif9+HXw5l53oY/YEbnGQmkpN3TWwqYCaempubm5mZlZREEYTQZNR51AcWS53le6Iy+666tAu9BzcjQIcSxLGs0mkwmo0ajFlixGxDi3GYF2N+5jW8Sd0ytBSoVjR09iBLXs7KyAMDHox/qd8G+zFUwQgoNNiiSwjWKOcSxLMsyrNFkVGvUtLee6NWVeO2JoSGuUcCnM2jUag4hnudNRiNCCB/lWE9ylqe/FnqWhzpC/aiVoS1zYMG14M88x4HTCU4nx3EAgAT34HTi//LFxURMjMzpBAAyJqbmQfgCF8joaABAVqv7+2SymlcXFwOAU/hGJgMAvriYiI0FABJ3G5mMIknj+vUkQShpmqIopVKJ2W8gfn0I3oHnGTzP1zYJBIJJuNTNWywie4iueYTIHsjoaIB27sbg0rs+MxMVF4vNQLABwGYgk1XbBkKZmZmt3QDwORCtzg3QSpreVrM8z7IsHjRMRtP4ceMzXnuVRwicTuSvkQAAGU2Ca9B4Q4gD1x4x3IYL4QMeLkiKApmMoCiQybCFEATR6kTtHyiSSk1NBaeTMTOWM2fSZ8/iULUWaiSPP0RH13RGmQwVWwGAJGK5YivIZBQR65TJlSoa5HKSJL3OPtsqcElFkiRZRpn1epYqeRSHeMGYa5sxib+svlEsUqi2yVoOzjWI4QGNoiiCokiKatVDWTMAIS41NVWYn4DTySPEcQghlJWVxf1+xn2KAgCgwJoCAC8TFfA+V4GGpitQx4wF6pi0gExGkNEgl4OLPBMEIc2anVIDhziscZKI1Uybnj5nLp08iuMtWHFevEntyYZ4cMP/j4e4mp4IALJ2gssgKAqPdbeOs/AdBEGoNRpUVERGR2cvX54bEwMOB8/zWOac1UpFRgIAOJ1k//54ooj/CQBkv34AgMrKqp/lGgNRWRn+QERF8aWlnNVKxcSATEYQBMjlJBEVGxcH7dq5NEK1wM8OoTZkI++779zZswCgADsATJ065c033/R66cWLlV27dlUoFMI3ly9f7tChQ4cOHQLdKkXDlwgUFyHEcZjMIIQ4nhc8OhUdDQBkVBQ4nVRkJDid2CWQ0dFEVFSg29wI8LbqoBCyWpHVivsPV1KCP6PiYpIguOJikMkognACUBRFUDHVk+AWdja1VIPrNvlS7SkIsNf1h2qWy3Esw4DDgRDCPoa3WMjoaDImGpsEOJ1UZJTLJKIAgIiKruuZ9cInc3WDVxsw5+djA3DKZAJhJgmieloZF1fPtNJet0CaDUaTUZ+tLyg41dINEVCnTPBcBHEcX1Qkqx46vBsJKTISfy0E/DMSDGwqePaDrFaQy1HtsYL55RdsJyCTKWka5HLMQLxNelreSHwEh7jctWtldjvieWb3Hs3UKeBwkP0jyeho5ciRfjyQt2EB2pDVCgoFk58HcjlXbCXJAUqVihwwoHk2aWu12gydzlM1ioCqBiGO5zjWbAaHw7xrd/VwFx1FRkWBw6FKGgn12bP/A1q1lZaUcCUlyGYDuRw7MpIgaJoGhUJJ062TGDdOOzUrrUVFeHLiueJAxUSD01njjKKiRVOUuvyR/8NIEyF2WACArLxr3mJzjUVWsduiiFgnyCiKrF62q14ToYLQtBaTiRie/pdDHGs2W4qKqlXvdMocjmrP4nDQrj4I/k88vIO3VROz6qmFXM7k54NMJu6MpGtGEeRBz10m5y+c79Wzl/ibixcvutGKgINDHLuDtRQVIY6rXs4uLiYjI+k77pA5HGTvPlTv3uCitdF9+wa8AdbycvwBldlQeZmzXTvzsaMgl6PycpDJQCYniFho106pVBIDBxIUdYtx42bqv+cvXOjVs6f4m/KKir59+7YCDixw3WqPzrJUbCyzezd9771kZCQ4nVT//thz+Dc3kjKEiQWy8iCXm/PzXGOZ1TWxUIJCQVJUXbltgYa7vaakpLQgB8ZTjVyjEex2M7uLio1hdu8ho6Ppu0eCw4EpbvCtIoh9WGQAVvP+/SCXo+Jip1xeM61s1w7nTkuBA2u1WpIiCWKAZOpC2wHTXYRYs1nmcJjZXW58gG6ADwQKwR3oxXYinvQI9BjTPIKIkrJ/xbyXYVie5zVTJsvsDuXIkUHtv7zNCtCOyctjDhwAuRwUitEqlWbGjOC9MUgcGCGONZv5oiIzu4vnefqeu8nISFVikl+GHWBbrTHO0lJzfj7I5ZzVShIEPWYMGRfXSrZ7eNEO9j4sy/IcB3a72zoaffdIcDqp/pGBWEETIAm+BwANLgrUWnKSybjSEmSzoWIrScQyv/wqrNnRKtq1tkv52xJJyOQMOsMjxO7cyXMcOBwI8XgSQieNDL5zcUN9AqnpjCUlzP792Ecok5OVNE0OHBhoStwCHJhDHLtjh+XMGZbdBU4H2O30HcNkN52qhASyX79gUNzGoMrrt5gkM0ePOtu3Nx8/5mzXji8tIyhSSdPE7be39XylEAf2AELFuevWgd1u3rWL53kyOpq+5x5wODDXbXtE1ze4jyY1PqakxJyfB3J5dViDIGhaSQ4YoKRVQWiGu71qtVqDwRCEF3kHQshlG+Zq27h7JI5stJxhtIwP5m028bRyxy+76eRRo2majIujVWNapEnx8fFbtm5J185roWURAAAOIRwB4zmOQ4XVdDcysikhxECghQM4zL59oFAw+b+AXM788qsyOVlJK1vQVMTgELd+zRozw8ocDjopUffsvOZ9f41qeJuNyc9nDhzgbDa1Wq0cOzbgCYQB5MAIcezOnXxhoXHDlwLpDYSFB91WxWMXZ7NRJKlUqdTBXHpoIhA6Ux3ULSpCCHGIFxNdVWISNNMSvCT4HgA0MaOkZvZis+HFfc5qw4Hlxq/st5hMECa9hYXGDRuS700iIyPpEYkSmKA2WiC8zcbs28ccOICsVmSzKZOT1Wlp9JgxTW5JM3Fg9PvvuWvXsOwuZLFoxo2T3bypih8y6o6hoksksuvTOwf2hMCKiy5cQOfOmg8eokfdp1Sp2iIlvuU5MEIcz/Psjh2I4zjEyxwO+u77ZHY7HeQIQGuDTy4HuxZmX555fz6ylVQHDEmSHqNSa9IC0QwvHFin0wUvvQ3v2mV37jQzDG+xaKZMAYdDlZSkHDkiSG9sPCQxL6kCO2+zIqsNlZYy+XnMr/vo0cmjqxd3m2nQxAsiKSmP6DIzm/P4Hw6h3LVrGYapXhYZOZJOxHORlo+NuyAJIxEEwtuszL48Zn8+spUgq7X5TQWDKyp84/XXURGnmTBBPXlyc75aBC+qqSbDBw+SFDV99uwAMuGmc2CEuNw1a8wMy1ssmkkT0yZNCnSUqbltFUvbfOAA8+uvmtRU5dixLR4cRgi54uosz/NkdH8JLLaCZIYRCNLQKkxgQC4378/HC3Z08iglTZMDBhAk6S1c3NwyYc1mdscOM4vX7JLSJk0ioqKq2oqvwWumxu++Q6WlzK+/aqZPH33//f568yByYA5x6z/7jDUzqLg47cEHVYPja5NeN7QyDuwJa3k5c+zYzpMnzIeP0KPuU44dO/r++6Wc1eUzbkkOjBDHFxWxO3ea2V28xaKZMllVa/1MOgO9dODnCCvwIvP+fOaXX+nRyTgr0t/caXfV6PV6pVIZ8CkLu3Mnu3NntZsZOVKV6Lm82kZcTqDg6YN5m5XJy2cO7Ae5nLPaaFqpHDs2eCTHaDICgEatYdg9LMvqgny6Ncdx69euxTNUzZQp9IgR3uamISNxg3eBiE0FFAq8MYkOSiJJNbgzZ9K1WtXIJM1jjzVvoqAnGkgdzMrJgfbtU2fMoFUBEEh8fHxBQYG3RjRsq/oVy4256zVTp6iG3xVMJtaSOQtMXp75wAFm3z7da6+pZ85stldXk97CQoQQs3u3ZupUcDhEfkciI4lEhhFoToHgBTtQKMz5eaBQcMVWlXK0cswYZXUOSzPJBBUV5a5da1y/XjNlisrD3bQZDiwGztdgDh40fv21JjV1+syZjVwNDDwHRr//nvv5Z8Z//Tvt4YfHDLq9Xt4rRqvnwGJYy8vNJ07sPFHAl1ekpk5Xz23VZzvdShwYL2AjjkMcokcm1Z24JZ2BXjoIzAjL26xM/n7z/nzm133K0aM1M2c0RJxuvgAAIABJREFUMmXaXTUsyyKE1IHY/4nznFFREbNrl2byZG+8V4w26HKagvp9sEBymH15munTRt9/f8DJcEpKSo4hhyIpDhWnB61SGldUtN41EamD94oRMhI3NCyQ6hDxwQOgUDjlCvWMtMDmS3OIS396jiopUadND+Bjm4CGVcPbbFkGAzlgQMayZU18WV2bR+rhwAhxuV98YVy/QTN5UuYzzzaxAT6g5W2Vt9nWffedOT9fRdOps2YFKc8IIZRrNEJVlXH9ejI6mk5KUiXVNSeRyEjS8qpxocUEgpf1zQf2o5ISzmojqYGaGTOCeii9fsUKY26uZsoU1V11rj21SQ4soDpZ+uBBaN9+9JgxmjQfkwoDxoFdUV8zPSRhzO1/8Zn6CmhTHFiAtbzcfPz4ztOnoGPH1Nmz6bH3B/b5zYJbgANjF25md6lGJlH9+qsnTWqotdIZ6KWDwI+wvM26btMmc14+SVGaGWlKn2a67qoJSGloVFioz8rC1Ddt4kTfqna3ZZfjB3z0wQLDwWQ4Y+myQDVANLlXBLxSGsdx69eswdRXM2GCz3XdQ0bihsYJhLdZjZs2Gb/ZWL1u0uTIMLv9f9pn5336+utS2ufiq2qyP/nE+O23W7ZupeLi/HuT0WQCAK8V4+riwPplS43rNyyeN089caJ/L208JGKrAACm774zHzxIxsU1ffVBAEIod80aM8PgJCPfPI5ERhLpqEYSAuFtVmQtMx84gEpLcdXxwOYO7Nq+fe6zz2qmTMlMb2DBrm1zYAG8zWb8/nvjN9/kfPIJPXZsQ5cHgANziFufk2P66l+Lp0+f7n8mTtvkwAKs5eVrd+1a99NPho8+VD6cEqS3BAdtmgOjokLtXK1qZBLVp29jtntJZ6CXDoI4wmIybNz4re61V9UzZ9V7rRfVNKUsFios1M6dq0pKSmsEscG4JVyO72isD8YZAeu++06lopvOhIVEaAAAUBhNJpIkA7IlmCsqSp87V5WURNe9Bl83QkbiBn8EUr1ucuggtGv32tKlfu9BMn3xuWmdcdtnn/l3e9DQCNXwNtucJUt0S5b4VzCmrs3A4I0Do6JC7Zy5qhF3ZbZckTApAMeEjRs3Gj79VNm0dHQc0COjolSJibp5jZKqREYS6ahGIgIBQSbYTlBZGSgU6hkzmmgqiOO0Tz+tSkpqkP1i3CIcGAMzYVRe/trSpfVmRzeVA+sXZ5rWb1jyxBPTHnigaU1u4xwYw1pevpZlucuXXnv9dSpuQFDfFTi0UQ6MzpzRarWqkUlp/mz3ks5ALx0EfYStZsLfbNRlvFY3E/aiGv+2BKOiomr2+9hjfh3XfAu5HF/gnw8OFBOuHfhVcAg1PR2a47j1X3zBMMynr7/u74HeISNxQ1OruWYZDGRc3PTZsxvLhNnt/8vOypYeAYbGqgbT4JzVq6kBjZ5k1LUZGDw48K7t/8vKyv6xZcQlEVutBd5mMx85gioqMpYu9eN2/bJlOIvER0rjAYmMJNJRjUQEAp4y4W22dd9/b/zmm09XrRp9vz/Zobu2b8/KylrdGL9zS3FgDL6kZM6SJTkGAzVwYB2XNIEDV1WNf/BBevDgjMcfD0RjbwkOjGEtL1++8RvyL3/JeD2rGV7XZLQwB5YH42W5n3+WPmfOZ8uXZWrTW7reCRRZLMlPPnmqqEj44OudTufHubmahQv/P3tnHtfE0f/xSaAqCl4oSoDd4NGKV1XwNok32npXqwjxAA2KffrTalsFPLji1eeptU9VUBEIePSxKh5VWkWywaocYrWKB8fOQsIhKiogciS/PxZiCAFyklX3/eqrr7BmZyczs/Odz3y/MwMA+DM5eV1YmAlzqYmte/acaqQiqqqqvhEK/yuKMfrjEJZDoO+qPyMPE5mZwq1btL/R09NTJBLp9CzJ1avT3N23rFwZKBDoK2/MSTbEh8yc+az0ufa3lL54Idi8+dCJE6CJmm0ZlQZpLBCWg9esWYeCg0BFhU6Vrobagj02ihq4hA9LSpo+dSq3f/+Ew4ep3EK27tlzOuGS2sXqqqr1QuEvxntJ/0pPd9UUR/PDoUMbGk5ZTlu+vKC42FjPVQNhOURsC+L2H+Dr7YPjWnekAOAQF6z2M4oAfvHihe/mQOV71LjwmyE5NZW32MPADCAs1qHg4OnTp+txr5YThcmJV8wngPXHvaW293tS0vrt23dGRGz64QddE0dYLN7gwTArKzkxUacbJUlJLh9/DMrLH166pK8ANj6pd+58PHWq6gctMYIdaUXcly8vKC5Su/jkacmkJfw7Dx6Y6KEIixUoEPx5+DCWkOA+ebKut5MC+A9z2x2jGxGjg9jbHwoK8l25Etd+UK010ydN3DJ7jpEEsA5UlJeP+2adERPMzs//xMdb++//9c893ob1hjzRwc5u65y5zm3aCjcHGpLOB4LxNbCv93IsMfGPw4eNrn4VcnnqnTtqF1+VlQXt3avx+6RqdXZysrO1Vf2gLQzGyCFDyI9Txo7dYVTtoQ0Bfn5zp0xRvZJfICt5/uxjZzaDwVC9bkR9Tiph8Pq1yyefaHmLrmonOTExLDj44aVLVFoTqBu9UXanjjY63dK5U6f+9dOlyprVreJUGqRxQVgOAb6rQGWlr3fzkfCaEcWKOFz1wT3KZmMSiX75kSQm+goED4zdQioqKu4/fqx28XpGxm+XdNBRagT6+c2d0mAIm18ge/L8WV9nNlB5Scua7qa0YfigQRqvD+zbV60rOLNvn72dnd4P0gbO8OGHgrb5evvgOTla3rI9KOhgSIhRnt5J5T1SFv6uiPDipyUt3tu/bx+j5AFhsQLXrJFcuaLTXaLYWC137lm5arWBAlijrdSbnRERxU+ftvi1ptqe8vate/d+LxB8LxCIU1LyCgp0zQbCYm329Q0J1cG5ERcZGRYU9PDSpcDVptpLTL9hyfDBgy0tLFQ/aIlGO0JZzuzbZ2/XQ/knWVbdbbvZ2XZT7biuZ2ScNKAT1gjCYgX6+m4RCFw+/hhqLdIkYjEpgI2bGZ0gTdJHbdqoGZFmyC+QyYoKTZwvDZATgr4rVhg32enjx2+Z+4XuG19pZkNEeOOLKZmZp5OTG19v36FD0nbNkbDN87qiIiQ2tvH13o6OH1nq4IUegCB6PF0NBzs7Xu/ejNIXkj8oPUdGBYwcISARJ4GqqoPBxhnukBSVlHy3a9f4ESNO//mnx4wZwwcPPn7+/O3MzPLKyvnu7ql37iSlpg5LTJzZMOgl9c6dkwkJn/TqtcpDfeL/78zMWatXL587F0tLc+nTh+3gcPby5WXz5vl8+WVTeTh44gSWlib64YdlGzfW1NR06dTpRkbGpcOHP7K0XLd9+5B+/e4+fhweFISlpYlv3ix58cKtf//PJ0yYvWrVrMmTb9y+feqXX1RTu/LXX8s2bvwjMrJfr16XJJLpPF7Yvn09u3VbMH26MrU9mzZ9HRY2avDgFQsX/hQd/ar8ZUfrDqIzZ1JO/gYAuPPo0aYffrj817XzERGErOBkQsInvZxXeSw2VpkHrlrNtmfFHYn0XK7VDBabzZZIJFp6OULCwg4baUD8vLT0m507hrq4VL55M9/d3d1nxc4N6+e5Tzt/NXHGhImS1JSY+PhdG77d+J9/90GQnPz8/Vu3LVy71qpd2x7duj/Izo7cLrTt0lUtzf1H46qqq69n3N7k65tx//6hX09MGD3mojjpP5s2cUeMPPPnH1hqWv/evZ880+AEvpGREXvuHMpi9XZyQh0dv1izZpWHx61796aMGbNy0SLyO5WVlV+FhIwaPPhTFxeNTbT46dO5fn4jBg+WFhW9Ki+fOXFi4o0bNtbWR7Zvr/uGQrFw7Vqrdu16dOv2IDs7cvt22y5dDC/MAN9Vgi2bMXGSrvsAx4piG4c9czgciUSi35Lg0LCwB8YbEolTbp68dGlIP5cfo6MvHjoIANi4e7dd1y7/ZGVt9vPbExVl06G9s5PTsAEDVO/a9tNPN27fjv33DxWVlS9flaEs1prgoG99VjAYjF+Oxjn26NnBqt1qj8VfhQSPHPzpioUL90ZHvSqv6GjdIebMmdSTvwEA7qq8pLFnzotTU88nJs5oFJv3/e7diL39H8nJx3/88cTvvx/69dcJo0dfFIv/s2kTd8SIoL1727Vta9u5c1O/7lFOztY9e25nZn63cmUvBJm3Zk3Mrl19nZ1Vk42Jjy8uKXlaWrrBZ6mjvRGcGwjL4VBwUGhoSHjkEW2+jyVfiwjcrH36z0tL19e/15PGjP1izZpVHovS791XfY/eVFaShT+dx42JPyuXy70XLLCz7aaaTubjxz9GR7kOHHj1xs1Fn03njhhBXt/200/Ojo5dO3davW2bOPZ49y5dVm7evPWrr/r37atlDrnDhoVGRnJ0WaUmwTD/gIAWvxYbdWTzqlXaJ6tKUcmT73btGj9iZCNb+Xq+u3vXTp1n+vqu8lh05fp193HjNqxYqfqv3bt0ne3nt27Z0py8gpkTJyoN2aQxY0Tx8XK53GfBgv9ERnbv2vWfrCzhunVqcreguHjemjXRu3a9qaqa6eu7ysODfIrHjBnK27t06vSqrMzO1vZNVZW1lZUePxBhsZbOmJGcmKhljKtIJDKRnmlc1Bt37+7etQtZOHFnzyalpgxLvDJzYoMWUj8s0WCso377bf/ROM7wEVdvXF8wfXr568qzly9H79o1pH9/jRlQ2pG5U6d+vnLlxNGjiYKC8oqK0/v23X348JejRx179OhgZbVu+fL9R49WVVdfz8jY5Ov7kaXlbD+/dcuW5eTl/bBxo2qCqsZrnrv75j17OlhZdevc+cipU9dOnFD95stXr5Z8+00fNnvnt9/+dSv9034uz16U+v/nxz0B/onXbyhb1MdsNtkkOtnYqJUVAOB3cdJeUUxBUfHJn3/eExVl3aG9s5OTa8NO2HA4bm5/Rkb6rFyZcPmyNt8nsrL0fvsAAOHHjxWXPH1aWrrBx/vyX9eVFfrl9OllryvPXr4cs2vXp/37B//8c0frDkVPnw36+OPFs2adTriUdu++baeOxc+eB/3rX0qTBBoakR7duqs9Ts3o/PPw4S9H4xx7OHSwslo8a9ZcP7+RgwfnFxWVlZfPmDgx8caNjtbWkWFhKwIDX5SVdenYMeP+fe/58/959Cjt7l1xbGw7fV9J3rBh2NWrWmyRpR01NWjnzmMG6t8SUjMfxF69gnbv0Ztl79S9+/+Sk/s6sH0//9w/8rBjt+5/ZNyKXvfNj6dP2VhZ9e7Zc3CfBhOj93JyvggLfXA4MuaPPyIuXZw8ZMj51NQ9KwUd27efExqyevpn6VmPJw9zXTFlis9PeyYNGTrd1XXZj//5bv6ClIcPr96943rz5mcjR6rlRyGXH/z99/M3b4zu9/FGj0Xx166lZz3uYt2x5GVp2HLvxwTxy4XzHzs43cnN+cHn7WxCcKzIuUdPvr6TXA52dktHj/YRbr/4jm2R1doYWQOLomOWzjTy9pW37t3r0qnT8vnzn5aWljx/DgDYundv5sWLUCbz27btu5UrcZlsZiOLOGzAgK4dOzYWwACAT11cOlhZbfu//3tWWvrZihW/bN06efRoYXh4Mxp42KBBWFoaAGDUp5/W1NR8xeev3rbt1r17jyEc2Lfvv5YsWb5p0/WMjH69evGGD3+QkxO4Z8+SefOcWKxpHM7yefPUUps0ZszHbLalpeWV69fXCYXTOJy2bdos/+KLA8ePK1O7nZk5sH5A9uvvv58L/6WTTccfj0QxmEwAwKC+fb/iL3kjrEq5c+cz3viuHTsaUQCTcIe7+WzdpqUG5nA4IpFISw3MZrGMFWV059HD6upqv8Werysrbayt+bNmPX/x8uWrV8s3brzx66+lr159s2yZjbV12Nq13bra9p8+HTAYwwcN7Nal67IvvvgpOirixIlNjc4amTN5sr1dD6u2x7DUlEmjx1wQi0PWrh3Qp88f1/7iDh+x6d//uXv+vKWlZUz8mcb5+fPaNZdevdZ4eb0qK7Oxtm5vZbXR17empuYTd/el9c2gXbt2ZM021UTtbG17OTl5zZnjOmCA65w5XrNmrfbw6KsaL8dgDB80qFuXLsu++OKn6OiIEyc2GWC2VeHPnIVdvaqTBhbFirz4Gva5RRAkViTS75RgtlGD0C6KsUmjRs2Z6n72ypXnpS9evip7mJOz49v90b/9duLChf69ew/o23dYo7HXtytWjPzyy26du4Ts25edR0Tt3DWwb99B/fot/L//+27lSteBAwdMn/71kqXKl/TE77+fCw/vbNPxxyNRoP4lXcNfUiWsSr1zZ9jAgbhM1lgAAwDWLl1qb2f3V0bGYxwfOXgw2d4G9unzx7VrXTt1up2ZeXr//qo3b/YfO6bx1/V1dg5au/b+48dfBQcnikQ9u3dvnOyphITd333n0ru3EVfxISwHUKPt6ibuyBE6JX7n0cOq+vfa2tq6vZXV976ramtqPnF3X1b/HrWtf48cetr36NqlsQAGAGzeu9d/1aphAwbkFbx1kmApN0cNHTKNywMA7ImKKnn+nO3gMKBPH+0FMAAAYbEwTW6EpsAhBABoc7qmBMM2e+sQO6fKrXv3unTqvHz+/Kelz0uePwNvbaXUb1vQxcOH21tZbfRdtXTu3IVr125YsVLtXz+ytPTz9HrytFSuUKgaMruuXX0WLCh++vRhTs6Ob7+N/u23qFOn1Pocezs7su0N+uQTst+rf8oK8nY7W9uwdev+FRyMOjlN5/G6ND2t0zzcESN8tm1L0EIDx0VGGqJnmketqP959EjZq0SdOjVqyBBcJlMTwOBtn6/BWI8ZNjT+ypUfNm48/UfCXxm3d3//fbcunZPT05rSwEo7Ytuli7OT06LPPx/cr9+Azz578+ZN6L59365c6TZwYP/p079esmTO5Mn2dnZWbdtiqan/WrLkI0tLP0/PJ40c+6rG6+/MzH8ePTq9b98bTT1PRxubtcuXRZ48aWFhEfTf/3rOnDV78qTJo0fb2XZTa1E9u9s1Lisykelc3uB+/YbPm/umqqp/7979+/Y1ugAmQVgstr29ll8O3bnzoQHTr6cSEnZ/971L794AgLH1FXrmj4RrGbd3f/999y6dk9PTLC0tMzIzT+/bBxSK/tOnL5g2zf8/P97//XeGhYXXhvXp9+4pTVLKnb9VjciMRs1JzeiE7Nv33cqVrgM/HTB9+tdLlpCjiGEDBrjOmcOfNcuPHEUwmaM+/bT89ev/W7ZsXVgYYm+/evHieWvWPIZwUL9++v1q/uzZosuXjaWBYw8fWmrYaXx/ZNz6xBHxmzXzdcVrq7ZtOnew9v38cwDA2tlz7Gxtr2fezy8p6Y+gA1BUTQADAAb06kUuTh71yScXUlO2LVk6AGX/mXEraOkyqzZtvl24ENTU9F25wmfy5H6OTgCALp07s3v0AAAM69MHLy5qLIABAIDBWPnZZ4s4nMmBGzd6LNoUFXU/PBwwmUt27bpx7/5P8Wc2ffnl4D59Dl28tO/8ed/PPgMAJN+5O+oTl6nD3QwpBwc7O8ROfd6ERg0jx0Lzxo01boIAgCljx74sLz94/HhVdfXSuXPLysvLKysjT568JJH01feMCpIOVlbVNTUAgA7t29doPZ6ru7ddu5raWiiTZebkHDpxorO1NWAwcvLy9kRHn7t6tbb27Vizu6YAbM+ZM09cuHA7M3PU0KFJKSmWlpZMCwu11JRf3vLVV6H79u+Nid63rcF2IO2trHTNtvYgLAc24qTll7XfEAtCiN28qW+m1Bnn6ubs6DT6ywXHz58HACyeNfPExd/jL1/e4OMTd/bco9xclz59nzx7evjkSdHp068rK1XvZTs4EIUawocSr984ePz4zTt3auVy5cUO7a1qamqevSi1atvGsunIFsGiRan//DPmyy/vPnyovGhpadm1U6enpaV6/MAO7dvX1NYymMw2H32k8QtN/Qr9gDIZomMojjBMWL8ddAPYKIogiB7h0DiEMD9f17uaYb338l8vJYQfPzZ13NjB/foRMunLsleHTpzILyqy7dyk/7xDhw6uA/onpaa0b9f29v3M2/fu9e/TBwCQVyBLunH90IkTboMGlldUKL+/5auvwjS9pFbNvqTVVVUnLlyIOXUqTyaradDe2tfU1GRBiDpotaIEsbeXFb1dd6eWbMjatf7//ve8NWuevXyhTWpagt3Q6kXGIQ7zpTqlzHF1c3Z0GvXlgmPnzysvWlhadunUsUSXRfi5eQTKajD8zSso3BVxMCcvj/zzKy+v/ceOnUtM1COmlDtWB2MnDAvz4mt4TRqDOjlBqUzXzJBMGTvuZXlZva2cV1ZeXl75ut5WspVfa9/Oqra2tql/7W5rq9GQETLZi7KyQydO5BUVddNCwbZv10719tra2hX+/mf279+/bVtOXt5ft27p9xuxlBS2dn0UiiDQeH2jGmpFTcikL8pe1ReOQVE51u3b1w1L2lnV1Oo2aWVtZVVTW5tXUJB048ahEyeGDxpUXlGReP16Y4vWeFiiarxy8vKan6fmDR/xd+aDOw8eTOdy486dvXA1afbkSU21KLWyUk3Hql27WrnJd5PSfsih00vdmJC16xr3tMrhZft2VjW1tbn5eT27dwMAAAajk431YwiZTCbDwgIAwLLrkavJ9jVlRNSMjoptGqRqm6zbt6+urQWNRhEd2revrq4G5EhYx5amCpaSgjhpO1ZsEdQJgU8M2tLCd9r09MePxqxb+7dKDLyiuvqYWCy6fBk+eaL6IrRIh3btVE0zsLTsbG395OVLXXPVoW3bmtra8rJyBoNBzpI72HbNLSrMKSrq0aULAMDRtmtOUSEAIL/k6c6Tv2Ybo++SpOvZzX44GNkPPG7SpGlTphoykdYYaVER0qOHMgQOAGDTvv2SuXPJ/aiTbt5UKBSN72IAoEMz1xfE3r5nt24rFi4k/xw1f/5VkSivsLBFA/+FuzvP09PP03PpnDkbduw4EBzcOLWU+lVGZxMTd6xfa2NtrTEpE/3Sqd7eAdt02IGTz+drc0gSiqLcceMkqalGWepZUFwU/PXX/r6+w+fPX7loUR+UXVVdfT8723/VKo6HxxpPTwDAvyOPTBk7xp3D3d4wb3kFBX0bjaVevHx54PgxybHjDAaj7HWF2r92tun4/OWr6urqj5pQpG+qqqJ27Ljz4MG2n38+5epKXpTX1r4qL2+8Ft0oFafxV+iN6OzZS1ev6vD9WJF/QJOeXi8+H0IIdAyHZqOowsLCWC0EAJB4/caS2bOm1U8tO9mzOlrbKN+y4J9/1tiBAAC8Zs1av317RGhYWcXr9Tu2XzocCQBw7Gk/ftRo14EDlSmQnEtM3LF+g3VTLymDofEpCcnJxc+erV2+/M+//mr8r/Z2drh20wG5+fkuKptzqiXbs3v384cO/SISnbhw4euly7RJsEVi4+M548Zp8002ykZR3ZqorLgo5OuvA3x93ebPV/b8itrasvKKHo2cvaDp4nXs0TObyFNd78Cy637ip5/GLlo0Z/JkVo+esydPCdzz3+5du87RZV8iAEDsmTMK7ZbqgXonsJbrAjgTJsQcPKhf45cWFSI9eja0lR2UtlIN6w4dmvrXdWFhqoaMLF4ne/tO1tZqzV4byNurqqrKKyvJZ3Xv2lWm785t4lu3vLRbf+jUt2+IUMh1dTXF5kZqRe1kz+qk0qsk3bxhxmGJY8+e40eNchs4cMXChS9evjxw/Ljk2DEGg1H2+nUzd6kar40CQW79PJFGGEzmzEmT1gnDLh46fBHD7mVl8efOBU20t8bNUj21Jt5foxB79qyWPRUAgMvlGmJ6enbvdv7QoV9EMScuXJjexOJ/Z0enwiclAACgULx4VdYXReVyuaK2lmFhISsumjNpUjZBaFkaakan3jZ9qsdLagjYrVubdFml3zxOA/oLhWEeem3oTfKmpvrw+vX3c3O3xMaeDAggC/PirVslL1/837x5l2+lA0OanFxeXllp17mzBZNZUVWlvKxlgh2sOygUCiCXAyZT+vTZ7FFjevXoUfjsWQ9b2/ynz3r16AkAsO/a5X+bAkat/2bemNE9dNrDqCHHrlzhjB2j9+0fCEbWwCjKTjh//pNp0/6MNNqeWG+qqqLPnLmIYZaWlqOHDv1h48bA1asXrVs31MVl8tixA/v2Xb99e+T//ue9YIHqXUwLi57dugX//PMX7u7FT59ev3XrI0tL8gODwSirqLh9/355RUXpq1ePcnPT7t4tKil58vRpg8lRhSLl779lxcWETHYtPT2vsDA3L+9eVlZNbe3z0tKcvLwe3bqtXLDAJyAAymT9evVaMmfOqKFDfbdsGTVkSF5BwYPsbFlx8bVbtwZrijDp1LHj4H79Zk2a1MPWtnvXruQKGc+ZM5WpzZo48e6jR+3atn3x8iUAYMT8+R07tO/csVPI2rX/PH5cK5eXvniRBWG7Nm3mTnXv2c02+Oef1/v4dGjf3ihlPtXHh8/34ozXIbhFe/+h/5YtAh8fXlqa4fuU5BUW/Rwbx7LrrnTjeMyYYdu5i4219bBBA6fzuACAEYMH7z50KCcvj8lkpt+7BwC4lnGrovJ1Rmbmj5vU9Zt1hw4WFhbf7twJACh4Umxv16OwuOjJ05K/HzzMzsurrqnZ5CtYtG7d4I8/fvbi5Y3btz9rWEQXMexlWVlZWZnHjBkAgNeVlZH/+9/97Oygr79+VVZ2Pzvbqm3bPJmMrNlX5eVkE1WruOcvXkiLitLv3u3asePT0tKUO3ec7O3LKiruPXpENkhyO5lrGRkVlZUZmZk/btpkYDECAAiZdOXmLQFNC1qNCMOETZ31AgDgcDi+AgHfS0OkdPOEHzq0PSgIS0sLMMZONgwGw3fL1p7dbNu1bbtiwZf8uXNRBwcf/00Devf+Ytq0UUOH7D540LZL54mj1a3F5NFj7Lq12yfmAAAgAElEQVTaug4c2KWjTeHTko/atAEA+Pv6bt2716VPH7eBAyePGUNW5cv6l9SmQ/suHTsFr1177/HjWrn8Rf1LuspjlMZuql+vXiG//LKjQ4ey8vIbt2/3sLUtLC5+8vTp3w8eZOflDXVx6W5r67t5M2JvX/ryZTaEvRsG0/bs1u1paene6Oh7WVk7NmzIhrDwyZOkmzcnjBqlmmxufj6bxcrMyfmXV5PDUJ2IPXcu5sIFLZfYAQA4XG5Y+IEAX20DU8n32qH+vdb0HrXLk0mVhT/O1e373bs3+/n1bnhik//q1dv27h356acPc3PdBvS/8/Dh81dlb6qr5k+btmrzliM7d9h26eozf76T1qGSSkTnzml/SI/2TmAAAOLsDNq00W8gXm8rxZaWlqOHDlOzlT1su5ZVVGRmPS55/vzZi5cFxUWq/9qtS+eyioqbt2+PHOKqasgKnzzhuLp+v3t3oJ8f4uDg7e8/oHfv+dOmqUUokG1PfPOmpYVFWUVFZlZWyfPnz168KCguVt7uu2hRyH//29HG5kVZ2ed6Hd8qSU3FCwo42h3OjKJoxMGDPgLB0pkzvWYZeYlW46JGHBy8/TeRhdPssMQ2+Oefx48aWVZRkXHvXk1tLfkhOy+vqOSJtLAg9e5dPC9PVlR45/GjyjdvampqVCOPSl+8ULMjeTKZrLj478zMzh07Pn/16p9Hjzb5+m7du7d/nz6uAwfOmzpVxaI9eZCdXV/L6tsrqhqvEZ9+2qN7d8HmzUP69WM0MdfjOXPGy/KyNm3aeM2a3bZe9Kq2KLuuXQqfFItvpvBGjlAtq4DVq2XFRX9nZnbt1PHZi5f/PHo0auiQXQcPdtPUCRvIyq1b0V69IiIjtfz+uIkTBd7ehx0c9Js3+VkUy2bZZ+bk/MvL687DR2SFpt29m5uXJysqvPv4UeWbN1958Yf06/efw4dKSl8ErF79UZs2wm/WBezZ061zJ4cePce4upa9rth98GDXzp3UjMgcTQs7lUYnZN26etv0CWmbZEVFaXfvdunYsaS0NOXOHcTevqyi4v6jR/88flxRWVlQXPwYxxkMxvDBg2VFRXcePGi8IEgbJOnpeGEhm83W416NsFE2h8sVnjyp96bQF1LTyioqXlVWLB4/HjCZ9l06h8bFzR01Kigjw6ad1avKymuZmaP69dt58n+2Njbjhw5VvTclM7OssjL94UPiyRPZs2fPnj//Ozs7SyaTV1VVVlUdSUh4kEcEe/GBhQVv8GDBz3uLnz/Di4tvPniwfMqUdQcjjiQkLHdvUE05Umn5mzePCeJFRcWriorCkpLty5ZtjonuatPJsZvtqAH9bW2sfz53tl/mg7t47q7l3hk5OaXlFW+qq78cN06w96fobzZ07tRRj0KQFhcH/e9/F6m9bzwVMMn5wDA3R7BiJc91WGCjxZba0WCbxN+Tkqqqq+dMmVJdXc1dvDghMrKjjW5b8r7bKBR+QUE/b/a3sLA4lXDpxt93dn33nemeJklNDQ4P3xwYMK7R4hMAQPNnecXGxgIAvLTQPBDC5D/+gFlZBhxWoWfozg+HDtp1tV3SaJG2ATRZJgM///yfCxeM96C3/HDokF3Xrqq/wpDzCQmZNPTgQa+lSzmaK10zYcIwAECAf+Ntft4WSDMHojYPDuHRyEhQWRlg0HEmtQCAbT/9tGqxR8/udk+elszx87t24lcDEmwChWJN0LafN29hWlicTrh0XcNLSpGDPQ0NOyRkUtH58+K0dO0FMAAAh/j2bdv406br52Ax/D3avGePa38XjYNIPaomNj4elpb6BwVp82UcQmFYWIsBMqrnA0OIC7x9Dgdt03Ue+fekq1XV1XOmTK2uruYu9kiIPKKXraRIW1WHkMmmeHtnPnqk010QwrjISJiTs2TGDANCS9RfHCMVta60dtVUVVWN/vLL9DONN7/QoScxcVlpLpPQ/ftF8fEB/v5ey5bplBzEcYG39+HgYJ1ksBnOB27S6LReI5GkpoZERCQ0uUO+/ucDCzdtZD57vqnhFJIBGMHbN2iV790DGraY1oXWOB8YACAtLp68eXP4wQidRnRmwsznA5vk5GjUuVdE5OG4qKgpK1bwhrsFaj39r5H2VlZJKSmFJSUvy8qWzJ2rsfd8/fp12IEDqlfmTJniNlC3rdUvXL16/fZt5Z+dbGy+Ncae74bmjcFgMpkHjh0FAOBS2ddLtPUn6IokPT14/34el5Og4wGMSjgczrRp07TRwCiKgqlToUw2ZcUKnptboMl2LlGjtrb2IY7Lip/MLSuzsbY2sGruP3589Px51Xd4/fLlyr1eHubkvCwry7h3b2hL06v/FYkKS96e7DLExWX+tGla/Ipi8ldomVuNkO5fLpezKSiIzdZhdT0OcUyMNd4OWg1dVxcrYaOof1CQKCpq6sqVPDc3Q5Rw5442cfHx7du3lxU/CV2n+ei/zMeP41SWnoKGVdkyDAaTydzf0kta+fp1aMP2NnfKFFet29vvV6/+pdJBdbax2WDsQymagZBJRefOic7ER+zf579jp073slH2pi1bfH1WHHJg6arrHuVkvyoru33v3pCW3qPfryb+dftv5Z+dbaw3rFgJAKioqMgmiI4djBMjI0lLizl/vulhnzo6OYFJUJQdceigj+7zyO2trJJSUpu3lUbBKAZXJ0IPHBDFx1/64w9db0RR1D8oCObmxkVFrdi8ebOfn1F8wtoUdb2BeItuvQoAAID/imIKS5T7V1m0aB20RMu83c7MfFFWdjQ+/r7KQWidbGy+XaHDKXqt1iwBAIRMFnPunOj0ab6np67TJSQomx1x+LAPOTKhzIHSGm2HNkbHRBAymej8eXFamvY9oU74b98hDAxw8fU9/NW/jHVIUmMeQRiX1GDx1/q58zp21OB3zc7Pf/X69d2srEGNttFSpebNm5DjDfaQmzdm7Ke67LZoOMKTJ2OuXHmQmanQtASGRg2T+IGVQIjHRUfD3FxQU8MbOsxrzhztckXReWizYqpZRkImjTl3TnT6DN9zsf/WbS19vYWqEQqFHA5Hpy2y4qKixBjGc3NbMnOmLjOvrT7t2iSUaK66zkNLUlNDDxzgcjmLvb3ZDSNItcHd3T0gMIDL0bjk6W2BhAmFHA5HvxOSSHAI46KjidxcUF3NnzlTR08O3UjU0KdASN+v6PQZf/9NfAOWE+N4rq/PivFDh/r7+emdiAnQoWrCDhwQ37qlvQ9cSycwaOgHJoEQjztyRBR39M8jkcZaWKQdFGmrdRAy2YrNm7k8nv+2bQYmBSFUGZAM1XpAAijTk1CnaihSIIAsE0Imizl7VpyWxuNwkN69vZYsMTBRcmQiios7FBKijdExgx+4SUzeSML27xfFx0ccOMBpYdWu/n5gEjw35+iBA0RW1pYv5jsYdO69Sbx9umNaP/D24ydiriZ6eS72N+rxtCbGzH5g02pgJRDPjYuKgjgOamuXzGhxIEudjp46GLmHJWTSmPPnRadO8z0WcSZM0HrpbwtVAyGcNm2aruGvEEJJUpJELMaSk/lz5vBcXbWwOh+QydEGLW2wJDUVy7glOnWa77l48bJleqhfAIAoVkQQhKYoaJK3BYJJJBKJRL8TktTAc3KORkeLjh3jz53LHTZMOzFMNxI1dCiQOsfv6TP8xR6Lly3TKUygKXCI14e4t1LohxZoVTWETLZSdyXm7u4eEBiozRxQYw1MAnNzhCEhoLpaC7tpLCjSVgEhk8VcuCBOTY04eBA17AwINSCEyYmJGIZBHOeOGMFruT+hSE9ClaqhQoEQMimWmoYXlYhTUngcDtKrl9fSpcZ9BBlIL5ZIls6a1Xz4wIeggQmZTHTunDg1lcfjabcbgqEamAQ+fCgMCWa8eTO+78f67pX1PmtgaXFxNIZh9+9xeDz/EKNtTtZafBgaWEmdZxjHseRr3BHDecNcNc3FUqejpw5GWMgHpTJxehqWmgZlMv5iD86ECRyurhuTtFw12q8KbkwDMTx3brNDk/ff5OhEMzaYkElF8fHA0lJ06nSdntFL+pLgEPcV+DYbBW2h8mXoKxC0GDKty9OhRCyWJCUx5HJQW8sdOhR1cKAbida0UCBkU4GFhdjNFP5ij3ETJuh0WLSWhAUHYUlinptrgJ4bRhiXFqqGHPmJzpwJj4jg6rKTk/YCGDStgUkgnht35Ijo2PHNq1d7zZ6tfR70wvxtlVzMyffw8Fy+HDXedjuNgRASOC5JSoI4DnEcdXBYMnMmqmFLJIr0JOavmnrMUyCETBoTHw8sLESnTiMIwuNyOBOmaB93ph+kT5gMH1jSRCzS+62BCZksNDwcS0nx8vQM2LJF6/uMo4FJcIgfPXgQZmUx3rxZyh2vY4D0e6iBpcXFMYlXxQ/uA8uPPJfwvbx9jJh4K/KBaWAlEOJAoUi+ejUm7ihBENyRI3huw9GePTnDh1Opo6cOOvewhEwKACANhjgllZBK+Ys9OOPHcwwa1LZcNRBCgcGyR3Vogl27Rk7VN5wueZ9Njh6o2WBCJhWdPYulpkGplO+xSGFpGbBZe9PVHM1GQZM0KBB3d3cjamBVcAglV68mYxiWnMwdOZLr6ora2zccoNCNRA31AiF7CdHZs8DCQvTbKb7HIoWFRcAWHQ5F0w8c4kejosRijDfczdw+4SarRql+/Tdt4uu4sw4mkYSFhmrf8pvXwCQQ4nXhVDU1PFc3o+91/DYv5oCQyWLqpupO8Rcv1n7bbWMBISQghDk5EgwDcjmEEHVw4Lm5ofb2nOHDWjkzTUCRbgS0TteqnLgHTCYsKMBu3OR7LAIWFp5LlqBvp3Fbr0xgbq4wJARLTuaOGKEmht8/DUzIZFhqKiwqIt/HxcuW6b75szE1sBKYlRUXeVj06/94nw7m9XNZPEGbGMb3RwNLi4tjxGLx/Xt4YRF/sYd/ULDhaZqVD1UDqwEhLsEwLEkMIQQKJkMuRx0ceMOGNevk+aBouYclZFIsJRUvLMBS0xQMBmAyeZxxwMKCw+NxmlMsOqFVe42NjSUIwt8YEbAAAAghAEBy9aoEw3AI69vGp5RpG+YflxAyWbaUwNLTAJOpnO8YN3680Z14Wghg0FgDh0dEsBse6mN03vqHFQrs2rV6SWxHjRYCqNBIAAAA1JLDSiw9DRYUYDdTEAThccY5OTvzlxg5jFAbcIhLrl5NFotBTQ1Xhw0jjIt61RAymSg+HktLgzJZeHg4V7uTeFTBIZyu45IQbTSwEghxydWrotg4giD4c2bzXN2M2s5bta2SKzmx1FSFhQWPy/VcuhQ1cV+hJXV2RyzGkpIgkUsQBOrggDqweG7DgVxuJutDkW4EmGJxFgCAHMDAggJcKiOkUu7YMSibzeHxmp24b+0yIRsGORsFcZw7fDjP1XU0VWZJgCEFQshkUCrFbt2ChYW4VMrlcj2XLjXAdptEAyvBIZ7855+SpCTJ9RvcTweP/6QfatejCf/wu62BpcXFMUlJdbp30ULOxInvwobPWkJrYA1YQAgJgoA5OZhYDAmC7eREjmuBQsFzdUVZLE3RSu83b3sTchQLZTK8sADKZLhURuTnIwiCIgibjXLGj9c9wll7tGqvEMKwsLCAgABTjGbqZ+sfYZgEEgRBENxRI4FcznMbjtrbo7pvPGswrT1kBABgKSl4URFgMMQpKYRUyh071hF1GDd+PMJmGxLn3DzaCWCgViCGb4ulB3WSWJzIUMiBQoFd+4s7cgRQKLiubiiL9d43EpK6AU1aGmAysZQUFEGwG9e4Y8cgbDaHxzNFkLPekG5h0sPJNaGHUyN1VUN6fbGUFIWFBZfL1SXkTx2doqDrM6GPqIAQJ3BcFB3DUMhxSLBZ9jxXN5TFMkyembat1vl7mUxxaiohlfI9PDgTJnD0Oi64FakFZPAaABKxGMjlpPUBCgVQKNgOLKBQKLWxKbuXd1sDk0K3bvRSIANMJpTJAIOB3bjJHTsGRVHAZHJ4PARFUR2smDnLRBmwloNnkVaG6+rWKBypldGhQOpsRHo6LCjApVLAZPI4nHHjx+u06KNpTKuBVcEhnnz5skQsBjU1RF4e2r07z6U/u1v3ekn8LmlgaXExdvcu/uwZ/rREYWmJpd/iL1rImTDhPdK9qtAaWAOaC6VOGOfmEjiO4zhpgYi8PNTBAXVwAAoFz80NKBTkn++0QiY7JgAAlpqqYDIBg4GlXFcwGIDBIPLzOWPHstn11gJBdLEWhqNte5VIJCKRSJsNUfWlwXGaBEFAHCdyc3EctvrQxCTLbwAAUCqFUileWAhlMiiVKhgMUu6iKEq69xEEUc4y1Jo4FksgEHC4HL6XNgcwNCgQI26LpTtvywQnG0lurkSMAYWCoZDjRB5DLkcdHYBCwX0HGwlo2E5gQQE5psSlUmVHgbLZCJuNOjvX6zHqBOxpBoe4JCkpWSwmFR1qb881spPzLWTgDCwqwVJSoEzG9/Bw6tWLb/COsnoIYKCvBlalTqElJWFijKGQkyNy1N6e3dNex4ZttLZKGjKyEwNMJjlhx/fwABYWnPHjTb2M06g0WTtksRMEASEEtbUYJgEKRYPBiaODqhkCAKAOLACAXv0MpTXwW4krlQIGAy+QAQYDymQwv854IU5O5Ew9OXoBABgjQo0SZULaXxziErE4LzcXQohDgiGXow4s0xsXNTQXiPJlhCovI3fs2PopUVNMQrWeBlYFJ3vC+ggjUFND5Bei3buzu3Vj23ZD7ezQHj0M22VabxpoYGlxMQAAFhWL791TWFrAkicKCwvsVgZ/wXzw0UfjJk6k1Dy1yaA1sAZ0KxQyNIVUQUAuJyCsU8gAAIWC/D9DoUAdHcnPKIvFZrFImUTaJBLlZ6PoZ3J4WpdDqbTBByYTl8kAgwEAgDIZzM9XMBgAAHLkWmcnUBQwmQiKos7OCIKgqKPhWTIGOlSNQCDg8/kmG+hotXxO2SreDk0AaDA6AQBlsYBCwWY5ALkcqDQDA0YqDSBHBgAAKJXVf3g7RAB1bUCqnOOobwAIYDBIAaPNTEetKbuSMKEQAKC1jm1QNVrsoWU6tNlpAyobSR6O4xCSgSc4QRB5eYijI5tsDwoFymKhjfoNI3Yayh6jQXfBYMCCAgBA/WjybV9BNh4UQVA2GzCZHA4HMJktSS+qa2BVcIgTOE7k5EgkEhwSylktrqtyrrPlMaXquBzWu56UkZYIm83hTTLi+E/XZcBKDNfAjYEQJyCEubmYGGMABRkQoVRlKIvFtmcpG7NKYWrbk6hOwQAGAy8oUG2lbyfs3jr3KBHkrBd61o5SIQOFAuI4UCgIHMchwQAKnMhjOzniRB45SmEoFKQ9qh+iOGgaorw9bt3os/yqIxbQ0qAFgBrSZrERJzwvX81s1Q1d2GwAQKtP05sHjfYXJ8PpMQzU1kowjAEAUChwguzKHN7alLeTIw5Ar5pVvokAACglyI4OAED2daSxYCNOKIoqyNkHBkOLeC7DUS+TxjrEFBq4MWRFEDhOZGcTOA5xnCAIxN5ekpKCslionR2Qy9ndu6Pd7RhyOVovj/WWyqS4BQDAoiJYXAwAwEueACZTYQFgcREsKgIMBl5QyB01kvRnODk7o717t0qNUBBaA2vAJIWilMrKz0AuJwiCVD44hKQpqpNJqpBCummI/HwAAOLkpHYdRRAAAGAw6hZUMBiAwUBQFDAY5GgAQRAAgHYjA4oMXnXZusAYm2M1jREK5O0AhWwSCgVQKAgIgUJBjrlB4/bQbGMg8vMRR0dyoKCkrhkAwGajAADAZCIIQpooZTMwfJRgOg0cJhRiYrEu9aheNabbFqsljFAmdeMYiUQYFubF5yNOTspGAus7DaBFO6lrG/WfQaMeQ9lO6jbCJbsLNhuotBODl1VTpBvRE1xlVkuiOqsF6gqcLGTV15CNOCkAAyVdT1yupsGf0V4cTCLxFQh0PRmuPhOtVDUNOj0VVaZSmBYANN2AVTq3urlaDZrn3dW6TWHy2iHrBagNUeq7GrI6cChtssMBLQ9UlJCStfH1t6aKrNb6iTbVXgjUjVtqPgRlqz062V9cbSwql9cZFBwHajWrULARBCcIoGJBNL6JgDQcDAaCOgAmU8VksA3/dfpCFQ3cDA3qAsdBbW0ejtd1hnI5JAhy5qLu25peMVwmY7NYyupQMBgogoD6/wMm08nZuf5otxpz1wgFoTWwBigR3EIxKDJ41a1qjLs5VkMoUSAQ4mFhQlOGfGuLiTSwQCBA2WwdI5nfNw0cFxen4yyABsyyLroRlHhrTEeYMIzD4eg4oW6cF0dvD3B9JqhTNbT9bQxFaoc6VUORAqEKJo3DItHajFKnat4BDawfOITCsDDdB37UqRrqYGYNzGydx9N8mHh5eeE4LpFIzJ0RGn1wd3fncLmGL+Xl8riYBDNKlloZTCKZPm0ah8MxXMMjCFLn26F57xDFxhoigGloaGhoaGhaGVoD05iWgICA0NBQc+eCRjdwCMmtffheXubOi3kgS0AikWRmZhrFeYuiKNE4fJHm3SdMKJRgGC2AaWhoaGho3iFoDUxjWlAUDQwMFAgE5s4IjbaQzk899rZtCg6H827FAoQJhWQJmGk7a5p3BrJno8JqCBoaGhoaGhrtoTUwjcnhcDhsNjs2NtbcGaFpGXJZo7GcnyQIgmDidyMWmnT/AgCMWwKAjIXGcSMmSGNeyKZilMUCNDQ0NDQ0NK0MRU6OpnnP8fT0DAsL43A47+OWoe8Pum8BrRXvykaIYUJhrEh08dIlg7df1gy9Hvi9gWwq4RER5t7kjIaGhoaGhkYfaD8wTWuAomhAQMC0adNoGUBZyKhOEy1rpPjch6r710QC2ETJ0rQymERiokgBGhoaGhoamlaD9gPTtBIoil66dGnatGn6nZ9JYzpwCH0FAi8+33Q7YEEIcYhT0CFsrKOPaN57yNeEy+PRTYWGhoaGhuZdh9bANK0HKYNdXFxoGUwdTB0ATMLlcQmCoJoGxiQSX4EgPCKCXtJJ0wzKiZLwiAjan09DQ0NDQ/MeQMdC07QqShls7ozQtEYAsBKqnY5r9KOPtIHiAeE0jcEhFAgEyjOiaQFMQ0NDQ0PzfkD7gWlaG3JtMO0NNi9KF2jrKEAURalzPJK5NjSi1CwATTMoHb9cHs8/IICWvjQ0NDQ0NO8ZtAamMQNeXl4AAFoGm4swoRDi+AdY+Molneb67TiEtKCiMqT6jRWJvPh8et0vDQ0NDQ3N+wqtgWnMg1IGX7p0iY4RbTXI438DAgNbeQUseURwgH9Aaz5UjdZZ+dwMdDunLKqOX09PT3p9OA0NDQ0NzfsNrYFpzIaXlxeHwxEIBBEREbQ8aAVMdPyvNph3Nyyzu39JUDabIAjaD0wRcIjHxcUBYEl6fTkcDi19aWhoaGhoPhBoDUxjTlAUjYiIEAgEPB7Pnx6AmgzS/fsBHutCH31EowYpfTExBgDg8ri015eGhoaGhuYDhN4XmsbMkDIYACAUCs2dl/cQ5QbICQkJ5h3rt76rH5NIlDv6tvKjNUK1zbE/EHCIYxIsTBjm7u7u4uISFxdHNomEhIQAf3q/KxoaGhoamg8R2g9MY35QFPX39xcKhfTyYONirg2QNQIhxCHeOkHROMR9Bb5c3kRK7ftFqc2x32NwiAMA4uLiIA4lEgmCIFwel8PhmHc5Og0NDQ0NDQ11oDUwDVXw9/f39PQUCASBgYEcCmi25omNFQEACIKAEJKfORwOatZVr6oog5+pIALDhGHkB2GYkHSEmtQxGyYMixXFhkeEczkTTPcUncAhJAhCIpFAHA8TCgEAnp6etAfSWOAQl0gkBEFgYgwTY5gEY6Ps8IhwWvTS0NC802ASiTJ6SBQbCwBAUZQKk9ofJmQVkAM/8jOHw6FN+bsLrYFpKAQZFx0XFyeRSCi+PFgkipVIMPIz+YEKahOo7P9EkQBgHOKhoaF1f0gAAIDvxTfds3wFvlwelyJ1ocRXIMAaeoDpNaj6gUOcnE0AAGBijCAI0s37to0BAADgcDhcDtdMeaShoaExDhKJRNm5kUaEIpb9wyRWJFKacvID1QYbNDpBa2AaakHGRcfGxrq7u1N5o6zAwAB3d0z5p5cX3+xOYOX+T+EREdSZmGSjbL4XXxQrUl7hcE0yh026fy9eumjePag1EhAYiLm7K//ke3mZMTPUhwxmJl27AACIQ9ITQhAEh8NB2SiCICiKqrp5Sfev8k8TtTEaGhqa1sTT01Ntgo92ApuRxqacOmMtGj2gNTANFSGPTYqLixMIBAEBARRcIYwgiOqfXHOPucmlv/4BARScJPYP8G+ggQ024ZgEQxBEqXUp6/5VgiAIl8NRzh+jbLZZs2NOSH1bJ24hJD8AAMiNmkm/LoqiKBsFAJCfPT09W5zXCAgMwFTmpKi/mIKGhoamRdgoqmo76PlT86I28ONw6WijdxtaA9NQFNIhDCGk5slJKMr28uLH1ks7M465hcIwkSjWg7+MsgqQjbK5HC7ppuN78Q3005KKl8PhREREKM+5oaDyV4WNol58vnIc4+npad78GAtS0AIVTav8TKJ04YJ6fQsAUJW4pMoFABi4dld1aGJ4G6OhoaGhCKq2w4tvqpVENNrARlG+lxe5EhjQk63vPrQGpqE0yhXCLi4uERERlOpx+HwvUgObKxCaVL98vldmZmYtsGj9DGiP0k1neJCqr8AXhzgOcZSNkntfvRNbH6k2XUOip/BmT1dS1Z9qQAgBqGnxyxB/m77Gk5yUUhbUn3dFCloSVVkL6rb+YjeTYWOhGnJPB0LT0NC8N6jaDjoQ2ux48fmkBqYDod8DaA1MQ3VIh7Cnp2dcXJxIJOLz+RRRwkol0PqB0EJhmFiM8Sgc/asGgiCkK9jAugsThimXfYaGhr6ueG2M3BkEruLnBCq6UU1hQhwnP7BR1F1lQZFGVHVmY5pZGtB8lJKgaPsAACAASURBVDWCsBr+iTROSumjfudcqV58L1IDm27TNRoaGppWRhkOTQdCUwEuh0NWBx0I/R7AGD569NOSEgCABagFAMybN3fHjh0av1pa+sLa2trC4q276dWrV23atGnTpo2xc0Vpj5aZqDV3BkjMXDUQwri4OBzHAwK+N/seVAAAoTAsNDS0ohWVmFL9+jd0flLJD6y5rYpiRQKBwBDVikkwNfXI9+JHREQ0fYehZUKeaaRctgpxXNU1qhrcC1T0p5qbVPUiGc5gvqEMRboRU+Hu7k5GjuhyEyVeHAsKVQ0lCoRiUKR2qFM1FCkQqmBq+yuKjRUIBJmZmVo4HqlTNepl8uz5c9uuXVWvlJaWqsmKd4IwoTA0NPR1RYWO91GnaqhDK1V947ZX/OSJnZ0d7QemeZdQLhIOCwtms1FPT0/zKmEOh+PVWk4npfql+NrXpuBwOIY46HCIN3afQghxiDfjscQh1CZaifTl1p8xKwYNNmdigwabMxkU+8TlcCgSxfBewuVxm/Gf09DQ0LyLcDgcLn0OLWXw9PRUBnbRvNPQfuB3BYpMIFGnamohxMPChK2vhCHECYKAublAoSAgxIk8LmccYDBQNhswGAiCGDczEOJxcXHkul//phe+UsQPjEMIQA3pOwUAALmcIAigUAAAgEIBiTwURQAAZEEBBgMwGKDeX9r8ga7u7u5kFDQbZZMH5LR4BmyYcGesSKQxXJw8RwoAgInF9WfM8kD9UEOvn67hEQCAuqKoLwcIIYrUlwA5oGEwAIOBoiiCIKYf4lCkG9EK5YZboFGcOfnqKT8rvwYhgSJOZKOqg8EApBO+vrEBFf88giAAWFJhZEn7gakNRWqHOlVDkQKhCvrZX83raDR2bgoFJIgGS1ca9Wzkv5ILXqixkuXd9gOrWXAgl+fVVxAAACcINoIAABAEUTCZgPwPgGZNOf3WNMbMfmBaA78rUOTloU7V1BUIKRFxHPL5XpxmFZEhwJycuJhosSSZyMvjjhyB2tsz5AqUxUIdHAAAUCoFAOAFMlhQAJhM7MZN7rixHC7Xa9lynZ4iEAhUwzi1VL8krayBcQgJHJeIxQyFQiyRAIUCKBQMhQJ1dERZdgAA1J5FXgQAkKWkBllopP2GBTIolUKpDEWc8HwpAICNIgrA4PC4qLMzl8sTCATkxktabn+FQ3z6tOk4zAcAJCQkcDkcMqpZIpGQopfcXdO4ilciFufl5oolEraTE3btGurgwB0xAigUKIsF5PLG5aBaAlhaGmAwYH6+gskEDAaKIBwuF+3Vi2vkFUeU6EaUxyNBHCdwHCgUDLkcEgRO5AGFgsjLQxwdAQAMhQJ1dAAAoCwWAIBsTijLQTku1NiuNFJX1KC+vcmkgMGAUilgMACwhPn5CgaD7eSE5+cT+fmIkxMbQRQAoGw2wmbXTW+ZeDcaWgNTG4rUDnWqhiIFQhUa29+3Cio3l8BxhkKBQwgJgrQOiKMjaS6Bev/GasZoqqHs1hgMhoLBgDIZYDCgFAIGA+ZLFQwG28mRtKekTWGjiBObDZhMlM1WPVzQZLwbGhiHECgUR6OiQG2tJDkZyOV1QxeFgjtoEEMuR7vbMciLAKB2dmq3w+Ji8oOCyQQWFuK7dwCTCYuKEAcHLD2d7eiIoCiwsBjH5aK90eZn7T9IaA2sAep09NSBIiaHOlXToECUcjEgwN+IwckQzxUGB2PJ1/hz5/CGuXKGD9fyRkImxVLTxLfSsZRUvudi/y1bW3gQxAUCX4kEi4iI8PLi6/FzTK2BcQjjRCJGTY1YIiHy8rgjR6L29mjPntwRIxAWq+F3jdBWCZkUAIClpGLpaYDJxKUywGSiCMIZz0OdnVty/4aFhoYCAMg9/5TShcvjGVH0AgBwCI9GRYklEoIg+PPmgdparpub9o2kGQiZDEtJgUVFWEoKlEo548Zxxo/n8HgGeyxbtRvB6yMmCBxnyOXi5GukxOWOHFE31FMoUPu6iSSjlJteqL84hExGfoBSKamTYWEhlMlgfj6KINiNG4iTEzlJASws6keThnqSaQ1MbShSO9SpGooUCCWAEK8BlhKxmMBxAsdxCIm8PNTBgTtyJJDLGXI52bmhDg6NbKUp0FA1pD2FUll9h1YAZTKYL1WZcuWQvZlRRRpFNTAOoSQpKS8rSyKR4Pn57J49eQMGsLvaonZ2YwYNMu6zpMXFAABYVISXlIgz7ygsLbFbGdwxozk8HvLxx7QkpjWwRqjT0VMHipgc6lSNhgIhpSO5aFZjgDSEuJaByjA7WxgaAnPxQ6EhCEtbd1NjCJk05uxZcVo6j8f137pN87Mg7uLiQn5GUTaCIE3lvxlMoYFxCOOioxm1taJjx3TReCZpq3WqOC0dS0/DbqZwx40dx+XyG3raMQlGnpxUf6FOAxt3BTWek3M0Olp07Bh/7lzusGGtIN4ImQxLT8fS07GbN/mLFy9etkxf0WXCbgSHOIHjyUlJEEKgUGDX/qrTunI512046sAy5D0yJTq/OKRIxlJSAJOJpaUBJhMwGNiNG5yxYzlcLursjLDZulYQrYGpDUVqhzpVQ5ECMQ8Q4hKxmMjJESdfIwiCO2qko70TkMu5bm6tJXSbQbeqeSuPCwqwtFQolSmYTDaKKBhMDo/L4fEMcBdTSwPDR4/ioqIk166B2lregAG8fi5GV7wtUXc2obS4WHzvHv78Of60BHz0EYfHQz75hMvltW5mKAKtgTVAnY6eOlDE5FCnaposEAhxiUSCYRIIIZ/vpepHFQgEEonk0qWLzchLCHFhUBBqZ7dkxgxjjdoJmTQmPl58K4PH46r5hCWN9jpOSEjQI6jbiBq4zr2JYQy5nOvmxp89W0ej3hptlZBJsbR0UXw8lMm8PBdzJkyQSCT17l8llgAANooa5QQpHMKjR46Ijh7lz53LnznTLAMdQibDUlNFZ89Cmcw/IIC/ZImOCRizanCIx8XEwFycoZBj1/7ijhiO2ttz3Yabz6OrH0Z7cUjvPWAysfR0wGTiUimKIJzx41Fn5xajD2gNTG0oUjvUqRqKFEgrASFO4LgkKUksSSYIgj93DpDLeSp9Xc37VTWETFqniuvjsFAU9Vq2VEe/JSU0sHDbNklSEszLWzJ5sjl0ryo1jS9Ji4uxu3eTHj0U/32HO26sp7f3ByaGaQ2sAer0JtSBIiaHOlXTcoEolwoDAMjVwu3bWwEAUJTd1ApbIivL/bPPDoWEmGIcT8ikMefPg7Zt/YOCySuNBTAAwKuF8340YxQNHBYcjInFvOHDuUOHGlACrdpWSTGM3UrHZQVeXp5o795QuRALzwcAQAgDAgMNCYHGc3OPRkVhGHYwJMTcc/x1EDKZ6Nw50enT/v7+/GXLtL7P0KrB8dyj0dF1A8F5c0FtbcBqPwPTNDem6tPq3MVpaaQkrlsS1sQab1oDUxuK1A51qoYiBWJaIJ4bFx0txiREXl7z66HeMw2sBimJsVvpsLAQl8r4nouR3r21kGrm1MB4dvbRQ4dif/11yeTJmxZ8afT09UKDBlZFWlwc/NtJ8Z27Ad9967VS0Dp5Mje0BtYAdXoT6kARk0OdqtGhQEgxrOYkDAwMVJPByVcur1y1+qGJTx4KPbAfPnkSfiRK+HbZagM4HH1OPzJEA5OOX1FcHH/OnIBVq/RO521ezAEhk4rOnROdPuPl5RlQ52w3wvnApO/3oGmmRQykTgmfOaO1T1ifqsEhHhcdjWES0gHC1WVh/LtAK/VppJcYu3ULWFgAC4tx48erVhmtgakNRWqHOlVDkQIxCRDPjYuKEh09pv0+IO+3BlaFkEmxlFQs4xYuK+BxOeMmTmzaOWweDQyzsoTbthG5uUu5PI9Jk4yYssG0oIFJpMXFMUlJ4geZHB7PP0TDEPH9gtbAGqBOb0IdKGJyqFM1OheIQCCIjRWpXkFRtjIuOu5IpChG9Mfhw8bKXzPEnj27wn9TRERE/WEGCJkZQ9LUWwNLrlwRrF4d6OfnNWuWIRlokBfzQSphcVp6oP8mziR1H7tO4NnZ06dPPxgaynFzM1b2TAEhk4kuXABt2vgHBbX0XR2qBof40aioOh/I7Fnvvr+3KczQpxEymejsWVhURDqH+cuW0RqY2lCkdqhTNRQpEGMCIR4XFSXGJDw31yUzZ+q0EurD0cCqSFJTRefPYSmp/ps28jWcgtHaGhjPzT0aHk5kZYWvWm2UBI2NVhqYRFpcLH7wICbpKmf8eP/gENPlydzQGlgD1OlNqANFTA51qkbnAnFxcYEqJ46SkHHRnh4evt4+rSOASWLPnhXf+Ts88oixEtRDA+MQ+vr48FxdA3x9jZWNuryYG1IJg3bWWshCzcQeORIbE5PQik3CQMIOHBDfupVw+XKz39KqanCIH42MFB07/l5LXyXm7NOUYriXs5P/Nj3bqrGhTidPHczfpwEAqFQ1FCkQ4wAhHnfkiOjosSWzZgX46dPjfZgamKRuOVLGLbRXr4Ybf7aqBpYkJPj6+R3+6l9mXfHbPDpoYBJpcXG0RKLo1NF/x05TZIgC0BpYA9TpTagDRUwOdapGtwKRSDCRKBYAwGY32K+V9MGKjkRtEQhaOcJz5dYtXt7enAkTjZKarhoYu3rV19fXNCG+FGmrQJKWERIeHn74MJvN1u3Gy5djo6Mj9NXP5gIWFrovX5758GHTX2mhavDcnKNRURgmORgSTNVtnI0OJfq042dPizNuoc7OFFDClCgQikGRPo06VUORAjECwm1bRUePGbgJyIesgUkImVR09qw4/RaXx21qLZLpNLAwIIB48CCc6jO2Omtgkr/uZwb/9r/9kUfYvXsbN0MUgNbAGqBOb0IdKGJyqFM1RiuQ5MQrosjIg60ebULIpD5btyVcuWKU1HTSwDiOT5869cGlS0Z5tIa8UAULQiab6u2d+eiR9vfgubmrvL3fIQ+wKrHx8djdu+GRkU38e3NVExt5OGzHzj8iD38w6peEEn2aJagFAMSeORN9/nzg5kBjTY3pBSUKhGJQpE+jTtVQpEAMAkJc4O3Dcx0WaHDoLK2BScgILPjkSXjkkVbTwJILF4RhYZfegYBhPTUwAEBaXDxpy5bMrCwj5oYamFkDM1vn8TQ0lEUkEhkigEtfvBBsDjx04gQAYOuePacStBWWCMuBIZdLMLHej9YbXx+fgyEUMhhb9+w53ajcqquq1guFv4hiDEkZYbECV6/2Xd54qVKT+K5YEWiEjcGa4+bt2yO/+EL1ytY9e04bYzM2r9mzQXU1dvWqrjf6ei+XJCY+uHTJWAL4z2TJN2FhQKHYFxfL37C+hW/L5TvDDwT++KNRHq3k1atX4xZq2BH0cW7Ox1OmtHh7WVnZ4m++OZ+Y2DDBhcbMYkO85sw5HBwUGxkp3La15W/T0NDojVwu8PbZIhAYLoC1QqHYFxfH37ChNZ6lQuO+rq5nNg0IyyHAdxXarZvv8mUmeoQaksuXhdu3vwsC2CAc7Oy2LFzo6+Vp7oy8b9AamOZDB+LQkNs7d+rUvz5AJcDPb+6UqQCAnRHhxU9LWryX5+rKqNF/alA/RFFRS2bO1Dvuq6Ki4v7jx2oXr2dk/GaAVzmwvtyU5BfInjx/1teZDRgM5cWysrKgvXt1Tdxr9mzUzg4TazXXgGEY295en8KRy1Pv3FG71lSGB338MUPld4G6EmhZlWlDoK9vmI5DHIG3N3fwpxHGGEYoW8KUseN2bNgAGIxRQ4a2fBuT+Ymzs+FPV8PGxuZyVHSDS3J56p07fZ17ffTRR6qXd0VEFD99qna7tbU1Ym+vWlM2NjaXo6KMnk9VEJbDZl9fmJ0tSdJ5IoOGhkZL3KdObdUFUAzGqCFDWulZAAAAdkWEFz8tadzX1fXMzaDJlulEwKrVaPfuwlZZTBQbFXXYb40hKfzw669Pnz9Xu/i6oiIkNlbj9zdEhBvyOL1ZPGECkZuLmcNr8h5jae4M0NCYGdSh5RNfb2RkxJ47i7JYvZ2cUEenL9asWeWx6Na9+1PGjFm5aBH5ncrKyq9CgkcN/nQ6jyuKPyuXy30WLLCz7dZMstzhw8UYNm5iq27fn4xhgd7eut4lTkk5eenSkH79foyOvnjoEABg4+7ddl27/pOVtdnPb09UlE2HDs5OTsMGDFC9a9tPP924fTv23z9UVFa+fFWGslhrgoO+9VnBYDB+ORrn2KNnB6t2qz0WfxUSPHLwpysWLtwbHfWqvKKjdYeYM2dST/4GALj76NGmH364/Ne18xERsWfOiFNTzidemaFjiXGHDcOuXuXyWj56nsjO5g4bpn3KRSUl3+3aNX7EiDN//ukxY8bwwYOVxRK2bt3Rs2fFqannExNnTFQPbX3x6tXugwfT793jDh/u88UXX4WEjBw8eMXChfuPHq2urv4rI8Pf19fJ3n79zp1DXVwq37z5duVKLbOEsFhALtf+JwAAJMnJBwMDdbpFI28qK/dERdl0aO/s5JR+9y6Wlir64d/Kf/3n4UNlpa9d3mQL9Fi37uslS05eunTv0aMTe/Y8e/li/Y6dB0NDbLu8DWTKIeA0nxU7N6yf6z7twtXEzydMlKSmiOLj923dFrhnj13XLmT5P3n6bMH//d/DP/4oKnny3a5d40eMVFaTQi6POH7sfOLVUUNcl86bFxMfL5fLvRcssLO1VctPQnIylpb2MDs7PDS06MkTMsHy8vL1O3f2QZCc/Px927aFHz9eXFLytLR0g4+Po729gcVIyuCQw4c54ycYmBQNDY0GFAq2fU/DBfD+o3FV1dXXM25/5+tXI5d/sWbNKg+P9Hv3powZM3vKlKnLls2eNKmktLSmtja8PvCq6s2b5f7+H1laRgQHn09KuvH337u++04t2bWhoc6OjlkEsXnNmrl+fiMHD84vKiorL58xcWLijRsdra0jt29/kJW179ixT5yd/37wYPe331paWn63e/eAvn3vPc4UfLmwW9cuMfFnyT5Npa8b4u/nd/DECSwtdU9AwOcrV04cPYYokJVXvD69b1/jTtKQkuHPmjXVW+C/1eTxLJLr1x00bEndHC9fvvzm0MEhvXq/qarynDgxOvGKXC73cXf/9+lTjv/f3p0HNHGtDQN/ssgeVkHZMhHxrVbsrWKrthCsda2+bm0VFdzRVnt7bXu1inWpWxfb3q+3vRW14oKI3r7XurW2LtUkWC1xq1a5LuBMIMMisgaBwCTfH4NpDAESCHBant9fEpPJ8JzDOfPMOXNOV/8TVy5/8+7ypO+/P3P9WuQvv7w0aJD5Zy/fvv1Nenqv4JCFY8eu3Jnc1dPrBkNvmjX7h0uXtv1wfPjTTx9Tq/9fwoKnZDLTV7wzZcrhc+cu3b3j4+FWVF66cfac17/4QgDAGQxLJkzoY8/N39WvTDlz8qQNOzMjW2EOjDo1lUpJBTWfA588d65PWNjiuPgKnU7i4eHm6rp84Wt1dXVPjBo1a/Jk/j0uLi4RvXoBQHD3wABfn2YTYACggoMYm+dOOwrNMFIbfmULxxWKFwcPnjhy5JHTp0tKS8srKm5lZ3+4dOnu//znwHffPdmzZ99evSwSYABYOn/+oClTunr7rP/qq6wcza6PPo7o1atf795T//a3ZQkJkRERfceMeXPmLD5uAHDg+++Pbt3qLfH8x85dIBQCQL9evRbHz9Rv0quvXRsQEUGzrL0JMABQwcGMbTONlSrVzFF27Kh05cYNXy+vOa+8UlxaWlRScuP2bVNYdh88OOjpp2mWbZgAA4Cnh8fShAQjx/UaOXLO5MmmCEwcPjwwIMDF2VmpVvfr3VtfW7to+vSq6mrbTwkABEYjzTAyimr+rQBK2/4EbOHs4mJeE5QX1eb/u/6rr8wLXWjtGbCvDxzY+NaSMCkVER4+YNIkZyenquqaqWPGmCfAABAmpeLGjy8uK6+oqJi9fPmFf/+7rKLi7dmzb927dys7+8OlW/j4L3/tdbFIBPXF5D3nlVeKS0uKSooBQCAQLIidNmXMS6PmJiQuWtTN19dqAgwAI59/ftywYVv27duSmrr2b3/jD+ji7LxhyZKuvr59x4wBgIM//rh52bI+jluwRBoUTDMaRx0NIWROpVRQrb5XBfXNdTdX5zSlWv3GzJlurq7vLlzI1dU9MWrU7MmTqaCgWZMnh0mlkxcv/vnSJRcXFwBwcnZe+8Yb0995x8nZOa+wsOGmDFxd3ZkLF1bv3eskFnt4eISFhsZNnDigb9/IiRPjx49fNG1ar5EjAWDNF1+8u2DBgL59t+/fvyUtzVMi+R+ZbNGMGbezby/ZuOn7HTu6+frMffXVAL+uZm3dnMRFiyL79VNeVPv5+PYIlU4bO7Zf7959X3pJX1PTsJFsDWlQMBUcbHs31DI0w1Ddu9v7qV9pWl9X98a4cVV6vaubW4CX17xRo/x8fJZMmBjg53c+8+Ztlh0QHk4XFlgkwAAwoGdPb3f3hWPH/pemM3NyDq6em3Ly5K6TJycOGfKdOmPtzFl9KdnJK5eNAKavAIAVu3be3LoNhIaZH3984Wbm0z3D6zju9dGjq2tr7TpzqlsAc/Wyvb8vagLOhUadmlQqVWaom33bgtip6t9+e27Kq9fNFt0Vi8W+Xp4PSi1n0diO0bJGEDT/PoeKiYpSqZv/lS28M3fuv3/4Yev+/SOjop7q3VvDsuU63dcHDuQWFPh5ezf2KXd398i+T55VZ7i5OF+9mXn1xo0nw8MBICePPXvh/NcHDgzsF1H58KHp/avfeGPjV1v+uWf3V48/D+nq6lrXiknjyoyM6KgoW95J2bmC9Ijnny+vrNy+f7++tnbWpEk2hsVEIBL5+/oWlZaaXvnp/Pnt+/dnXLvGGQzRkZE9QkIGT5mSduyYXWfFaLW2X3nIo+UUJbXr+C3TWKGbKH65sPXA/gpdJQBIJJKxQ4emfffdkdOnXrZ2V2LG+P/99/HvD506tXTevNQjR2/fu9c7vJeG1ZbrKh7F38f05hHPR5VX6h4V02TT624uLnWcTUvIUIGB7P37ph8Li4uT/+//Ur79lr89sX7JksRPP528eHFxebmt4WiOrF0KBaFOSCqT2dLvN+un8xe279//y7VrnNnUG5FY7OPlZd6q9wgOzsnLM/3Yq0ePAB+fX65erais9PLysjimSCxelpDwvwsXLv/0U6NZ6+Th5lbLcSAUOnXpAgB0bm73rl0BILhbt+zc3OycnG5+fgAQFNAtOyen4ak20dZ5uLrUcVxjjWSLUVJpmybAACCjKP5euV2i+/YN6979mbeWpJo9IWWsrU1TKFJOnWLu3+dsmEhFFxaWVVbuOH489/59X7NCdHdxqTMYzL+iUqcTCAT8eQb7+d4ryOffKXTq4ubuZteZK69ft/FKBtkIc2DUqVGUjGHZZt9Wo9fv+vCjpHXrPzFbcdfAcRWVD60O9goEAqPR2OxhGZaVy6PtOuHWi5bLlZftvpX40/nzMydMWBgbuzg+HgSC0MBATw+P+VOnrly0KCE2tonfN278+Hc++GDo4CGTRox458MPRkVFA0BI98Chg4fMnzp198ebJRKJ6c1Hf/rp/TffXDJn7uiYoQ0PZWNUG1JeuRI11MoBG5oRH59iT8KZW1AQ2q1bQmzsitdfl0gktoeFZ+S4cp0uyN+f/7G8vHzr/v0JsbGD//IXAGALC9e/+aYqNfXzlBTbTwkA5HZ2k9Fy+catSXZ9pDFN/MqNFbpJ1MBntq7f8Nf16/grvzfiZvwrda+ri4v48efZeD0pmb629mZW1qLpMw6eOCFx9wCA0MAgTw+JKf6mN+cW5Id2654QG7vi9UVWv7rZkrqXm/uk2TDvp8nJf+nTJ37SJFcXFwDo7u9/7OuvR8vlB777romD2G7kvHnx8fEOORRCyAJFyageshbcCzZXVl6etD8tITZ2yF8ee9DXyHG6yspuZpNKNPn5PR/PBl+fMeONdetiGgwzAgBXVzdsyJBz+/cXPnjw63//29i3y0JC8u7fBwBtQUFYSEhYaGh+UREAsIUFYaGhYH932WwjaZeNW5OMjtj1t3ki0c/Xr9v1ibzi4rXxM89/8unnhw/Bo0Adv3y5qLwsfvjwHgEB0ET0Hr1O+ft7ubvPGzNmxfTp88eMaeIr3D08jEYj/4CS9kFxj252D1ybnL1zu0O3DPgTwrnQqLPjtwhu2nGlslyn0+kqp40bBwBV1dXJ33xzMyvr/TffrNDpbmZluTq75LDa67dvuzg7l5WXR0cOfHfz5vcWLQqnZE0cVnH5UuKGDY76RWwUGh7O7N2rUqvtehpKIBAsXL26e9euLs7O8199NX7SJCo4eF5iYt+ePV8ePXpw//6bt2/38/EZNmSIxQeHD3kuwNcvMiLCx1OS/6Coi5MTACQuXLjmn//sEx4+MCJi+HPP8XErLy8HgGdfeUXi7ubj6bVuyZIbd+5wBkNZWdldhnFxcnptWuw7H3yQ/M03c1991fYzV6nVdF6eLCzMpncLhSAW2x4cvV6/59Ch40qlWCwe0r//J8uXm4clolcvqyfcRSwO6tbtyz17snNyNr39dkVlJR+ByaNGiUSipR99BAB59+9HRkR8sXdvcECAXctljZo7N9HOxUji5s3ftGb1xq1JKxe2dkHswf2f3rx9u6+31827d3Pz87M1zC+/Xs0rLMzJY80L/ZUGFw3Xbt2+l5s7oE8fF2fnxH/8Y9Nbb4XLekiDgl8ZPbqx74odN66rt4+Hh0dkv4gxMXIAiHjiCSo4eF7iCj7+bOH9isrKjF9/9fGU7Dl06LhSIRaLh/Qf8FrsVN3Dh/+9e6dMV1mu02nz86MiI9/dvHnVokUWl6q9w8IUavUdmr5F05++++75K1f4Aw566qlPvv46OydHIBRevnEj7dgxWVBQZnb2X+PiWhlAABg5b957761s52UCEOpUEteu3bRmDQC0+KlgD3d3U3Odc7/YwHHmFwb8yqIi+wAAFFNJREFUsx4HT5wAgHCpdGBExJa0tLzCwpy8vNDAwLExMVvT0ob0t7JeYF1dXeJnnz3Tr5+Pl1d3f3+2oODi9es+np5FpaUZ165JAwN1Dx9m3rnz/l//+mVq6oWrV6/duvXR3//eRSxeunnzV6mpN+5kbnr7bQCIihz47ubNMyZMMGvrKnPz2HOXLubm51/LzMwrLLiamenlKSmt0F2/fdvXy9O8kfxk+fIWx3bvkSOKS5d/PNUeq/pt2bHjpREjMrdtt/0jOUVFXxw9Eujj+/JzzwGAPCJi2c7kuBeGnbhyReLiWlFdfS4zMzY6+q3t23b++OMci1lIQmGgj8+G1NRlkyfLAgIS/vHZk1Lq1aioGzk5bHFxcUnJr1lZd1k2Ky/P/Cs+mD1n1Z7dvhL3kK5+g5/sk6Y4U1vH6XSVHh7utp/2z9d/Y4oeUOHhtn8ENQv3B/6jIGQ7PnKKxnH7A58+lbJzp13bI0WMHftbqwd8OnJ/4OzshfPnf71une0PBq/9/PPXpk/v7u9//8GDiYsWnTtwoKlzaRmjcfH7a79YtVooEn374w/nf73WcLEQO4lUavX6bdt+PHUKBLbOOaezssaMGWPj5snHz57V19ZOGDGirrY2evr0E8nJrb+D3hqqS5eUv/3WeA7cVNFsWrsmZV/a9vXr22+t1PZy/OwZfW3thBEj62pro6dPO5G806yYiGjT+P2BVZcurUtKWpW4IurF4R13LkQEhDDY/1ogJCCtwtD3FsybHzMw8r1W3/vj9we2uDCYsHDh56tWyUJCLN5cU11dVln5o1IZP2lSK7/XmhYWTZONpK00rDbl2DHFxUs/njrVbvsD701KSj95cuvri1pzkHbR8ue5fr7+27pDB4+fOduCud9k6+D9gXEcGHV2US8OT7FnXPRWdla5Tnflxo3+DZaAssv8VavfW7O6NUdoMVlY2NYdO0aOGmV7wuPt6Zl6+LCbmxtbWLjhrbesvifzzp3UY8fM++B35szxseGx2HoCgVAo3JK2DwBoLfvmzNbOBVWp1QmrVmXeumV7AgwAsp49V65YsXHbtpULFjT7ZldX1zMZGXlFRRU63cxJk6xeNFRXVW1Iemym8aQRIyIjImw/JRup1OqE1aszzR5Zt0vi2venz5mzLzk55djR+HEt3z3LFt+f+ennq7+afvSWePx9flMLX/8rZU9e0e97F/Xv0+flxseHG3J1dT2ToW66mADg+zNnfr561eysJH+fP9/2b2kNlVq9PilJHiN31E0xhFDTKFmPbck7UnftemL06K9bfe/vdnZ2hU539caNp/v2BYAHJSWFxcXpFy9a5MBGjotftuyJsLA1ixdDO/YOzbKxkWzCxi1fpRw+si1pS+KHH7XFGTYm7rXXNLm5mw7+J3Hyy449cl1Nzfr9aeavTH7u+b88WsCy3fx8/be5//oy884du65kkC1wHPiPgpDbruQUjSMDwmRnjx49+lYrdri1196jR+niB4nvr3PUAe0aB+bRNJ1+8qTm7t2GS1O29lw6mobVJry3Sh4zzN5ZwSab3n8/JTX1RHJyC9bQ7hAbt25VXOLvvjfBpqKh72Xv27VLoUqfOX583PjxDjk9gnVkm6Zh2ZSjRxVq9TD5c4lr1pJxiUNOI0+Ojm/TAICkoiEkII7BMHRqcrJClT6rpS1eXScuGg2rTTl6VKG+GCOPTlxr3uG20zgwT/XDD5s2bYrp9T8rpk1r/dHaht3jwNrCwt3p6XR52daUvWT0Dg7XwePAouDQ0KqHDwFACEYA6NOnz/Dh1mdhVVfXODk5Cc0G4vV6vUgkckj1fdyfbKzfIVqyFFAbIKdoHBkQbx8fb4nHl8nJ419ojw05VWr1P9PStu3c6cBjGu0vGm9v76ciI2mtdun69QKj8anevR12Lh1qY9KWpR99/PEnm+PmzGvxQaKHDh03duyCt9+WBQZSwcEOPD2H07DslCVLqPDwbWYLtjXCpqLx9vGJfuGF6KExTH7ev/bs+XLPHgGA46oHaTqgTdOw7JepqRu3bCnjuNAnntj82WcxQ2OIucQhp5EnB/a/FggJiGN4e3tHv/CCfGiM6pcLKYcPHT192sdDYlezb+iURaNhtV+mpS396OOnIiO3Je9ssJ+5ZUyqqqvdXF3NX6murrZIK1qMCg+PGjbs2s2b6deuhfn6ebrb8ahte2l+uWlz+xSKeV98sfjttxcvW0ZM7+Bw7fSH07DuVT586O7ujuPAfxSE3HYlp2gcH5DUnckbPvjwZPIOaVAb5jwbkrYoLl9pbrzObi0YBzahGWbfzp0KpTJm4MD48eNbPfLZMXWVvxud8u2h+BnTE9esBYDWV1eaYfYlJ6ekEfqULD+KmHLo0NakJLlNt29aUjQ0Q6vOnElXKpXp5+TPPiMfEBk3cWILjkOqdmrTNCyrVKuZggJFRoZMJouKiYmfNcvsJAhp4YGkRp4chJQOOUVDSEDaBHMve9P69cr0c/JBz8b0H2BLc9d5xoE1rDbl8GEQiVIOfhs/fdr02bNlsh6NvLddx4FNVKdPq06c0GRlzXo+6rl+/Rx45FazaRxYW1i4R6HYffp0/LTYxPXtvWZqu+vgcWDMgf8oCOlyyCmaNgkIk5W1ICFhx7r32ygNTlizmgoLc+AUaJPW5MA8mmFUZ86kKxRQVxc/blwrUr72rqt7Dx9WXrlMs3lx8XHxs2ab/Y9jqiuBmXB99vvtt4mJifGzZ9v8uVYVDc3QGobRZGWlpO7TaDR8PkwFBxMSk5ZqwzZNw7KPrhcPyqOipDJZ9AsvyKOtbIeGOTDZCCkdcoqGkIC0IYahASB11y6GphmakT8zMCZyYGNt3Z87B9awWkbLKi9fYvLzaS0rl0fPmDVL1uSeFwDQUTkwj6bpfdu27T1wYOaLL66YMtXhx2+RZnJgbWHh7nPn9pw4sXL5u3Hz2mkpio6GObAV5LQm5CCkyyGnaNoqIPyjQUx29kyHLgu0IWlLyqHD25O2tNGWJ63PgU1ohtm3axdD01BXJ4+MpAID7YxDe9RVDatNOXJEqb7IsGz89GmPBn4tOLK68qPlKfv2xU+aJB8woEMSPz6nUl68yLBsXFzcylWr7DyAI4uGHx9WKVUCo0F57mf5oGflkQOpwEAqOKhNZ1I4msMqiYZllRkZTH4+k5cHQqHywoX4adOMYvHK996z4SQIaeGBpEaeHISUDjlFQ0hA2gnD0CqFQnlWYWrrYiIHmveMf7IcuD7pvXSRyctT/pIhlUpjoqOihg6Vxwy15zAdmQPzaIZJP3UqNSWFycmZOXx4TO8+HToybCUH1hYW7vnpjNHFec8PP8THTp0+b56sh237OP5JYA5sBTmtCTkI6XLIKZq2DQiTnb1p/Tqoq2tlJqxhtXuOHEk5dNhsgm6bcGAObEIzjOrs2XSFQpmeLh80SD5gABUUZEM02qRoNKwWAH6fhTUtNrRnz/iZs5r8UJvEREPTqbt3K9PT2y0Z1rBsypEjSrWaYdm4GTNWrm7xcuJt+FdDM7RKqQSOS1cqwWikGY0sOAiMRnnkQCooCFqxD2cbs7uSaFgWABitVnnxIgiFDMv+nvEKhdFDh8rlcvtPgpAWHkhq5MlBSOmQUzSEBKRjmFJiRqPRaDTywYM4g1AeGUkFBVHBwR29jKLdRVOf8V5Ug1CozFAzWq1UKpXLo6NjYuxMei1YVtf7RUUB/v7mr7RZEmGJZpicrCzV6dPMvXsCvT6mz5MyX992z4frc2BtYaHy+vV7paXKG7+BUBQdI2+LuYF/EO3UppWVlXk/vkeJA3JgvV5fU1Pj4eHh6LMlp6EnByFdDjlF0x4B+f25oGefibHnMUg+9a0fpZwxPXH1mjY9T2ibHNgcnw+rFAqGYTQ5OfJBg8BolA8YYG0qrGPuQwOAUn2Ryc8z9cox0VFGkWhGfLwNs7B4bRgTPhlOP3tWoVJpNBr5oEEtGjO3TsOyjFarvHxZmZHBsGz8tGlGkcj+Ud+G2rUZoRlao9Ew9+6BwaBSqhiNRhYaojz3s3zwIDAaqaAgKjAIDAZ+7ZmOGz22UklMWS6j1TL5+SAQMCzL5OZSUqnywgVpaGhMVJRRKJTKZFSPHlbnNtt/EoS08EBSI08OQkqHnKIhJCBEYBg6W8My9+4JOE6lUoHRSGs0AoOBCgmhgoKowEC+lWuv9NhK0fD9KaNlGa2Wyc/jGzRay2pyc6VSaUzU82atmd337xpnWV0b5iFtlkQ0pf6xr7NnNTQNBgMYDJS/f8yTfWVdu1LdugUHBDj267SFhUxBgSLzplEsoIvuKy9fiZ/yKnTpEjV8uEOj/QfVHm1aVVWVXq93fA7McVxZWamPj6/V97cCOQ09OQjpcsgpmvYLCMPQYDCk7tnD0DQ/D4oKDJR1DwQA/vKd0WoBgM5jTbdR46fFgkjUDqmvSVvnwBZohuHTG9XZswIAMBpphhEYjVRICBhrqaAgKigYDPWrIFpdYJMPGgAweWx9jqFljQIBv/6hjJJSFGUUiaJjYlrRT7RfTGiGUSkUKoVCYDSC0ag8d46/6Km/BjIaoUEczCKQxw8nMrm5fLZPSaVUjx7RQ4c6JL8yQ0QzQjM0AGg0GoZhwGDQ0DRDMwDAJ8m0JocPl8BopEKC60MXFARGIxVU/6OJLWu3muJc/2MeW7/GpkDAaLUg6MLk5hofvaLJzZWGhlJSqYyijAKBVCYDoZCiKKlUKqMox/z+1mAOTDZCSoecoiEkIKRo2P/SDAN8K0fTYDDk0DTNMIxGIwsNpTUaMBrru0sA/oYgAJh6Cl6zjZt5y8bk5YFAAAIBo2VAIGBytQ3bNEpGAZ/r1jdoMkf86k14LCZVVVUcx1lsO8xxXGlZma+PTxufSVP4ixnN3bv8PCYNw4DRCEYjFRAABoMsIIDq6i8wXcw0yJCZwsL6fwkE9P1CEArpoiKmoACEQpplZSEhUoqiZLKoYcOkspC2j/kfTjvlwAKBwPXxdaEdkAMDQGlpqaurq6NnMpDT0JODkC6HnKLpmIDw62RoGIahaTAaNQzDv843cyAURnfQjb12zoEbQzMMQF19emM08j16fadiTiCQ8hmFQAACQZt1yR0Zk9+vgRiGvx1gGQc+CI8i4Oh01ypCmhGb8KkyT6PRAADD/7mZ6pVGUx9PYyPbgTy6CpRKpfU/CgTUo1S2/kUQt2lyayPMgclGSOmQUzSEBIQULet/6UfXD7+3b48aN+D7C2ikcTNv2R7dOOZbNqk0CADIyLUei0lZWZmbm1vDZKGtHwluscd6cI4Do1FgMPze6fAEAgCQUpRRIAChkOrRAwAav2GKfzUNtUe5F5eUeHt5WdQxx+TAHMcVFz/o2tXf6kdairg/BgIQ8sdDTtEQEhBSEJIDAwBJRUNOTAhBTtGQg4hKgjkw2QgpHXKKhpCAkAL7X2see3CyqqrKYjIqj4Sh4PZCTtGQo83/cHQ6HQBYTECARzlwa7cnFolEHh4S/jsQQgghhBBCiFdWXm41AQYAkUjk1KULJhGoLej1en1tbcME2EQsfpSG8zco6prYwUok0nOcU4MZC06urnUPH5bpdO38XHu7IOe2DSF3GTEghCJpHAkhZB/867WGnKgQ0t1gQAiF/W9jOI4rLy/38/JqosZI3NwePnxY9edMIlCH0ev1leXlFkuRm4gBxAB2jAM7OTnV1NRY/S83NzcAuF90n+OwIUAIIYQQQqjz0ul0JSUlXl5eTa8ZJBKJ+CSipKQEkwjkEDqdrrKy0r+RBBgA+Doptv2IYrG4QlfR2P9KJBI3N7eKigrOwDl1cXJyciLwGXf74V+jBQwIsbBoULOwkhCKw6KxAmNiAQNCLCya3+n1eo7jamsNXbp0aSIJMScSiSQSCcdxFRUV/I9/liTCHFaSNldVVQUA1dXVHh4eTUyBrqqqsjsHFoqEYpGY47jG6qVIJPL29uY4juO4mpqaVtzOIafek1NlCYkJBoRQOBfLGqwkFrCSNEREJSEpByYiIABAUnUlJCYYEEJh/2vCJwhubm4ikd37xTguiSDTn+zXcQhHtiR83ZNIJE1kvzzTCm125MD8oUtKS/x8/Zo+Cf4Wjl1HtjhGKz7rWORUWUJiggEhFPbB1mAlsYCVpCEiKgnmwNZgTCxgQAiF/a8DOSKJIBNWkoY6oCXR6/WmWQb2rQstFAmdnZz5uQoIIYQQQgghhBDhOI7T6XSmgWK790Zyc3MzGAyYBiOEEEIIIYQQIhz/wLn58uN258BCkVAikQgEgtLSUoeeG0IIIYQQQggh5DAVFRVlZWWenp7Ozs6mF+17HpgnFAk9JB4GzvCg+IFIKHJ2duan7zvuVMmB0/ctYECIhUWDmoWVhFAkPQ9MDoyJBQwIsbBoULOwknQAfn212tpaJycnPz/L1axakgPzhCKhn5+fgTPU1NTwq1E7DjnpNDlVlpCYYEAIhWtyWIOVxAJWkoaIqCQk5cBEBAQASKquhMQEA0Io7H+twUpiAStJQ21eSUQikbOzs6enp9X/bXkOzBOKhK5urq5urq08zuNae1aOU9fRJ2BCSEwwIIQSE1Q05MBKYgErSUNEVJI6goqGiIAAAEnVlZCYYEAIhf2vNVhJLGAlaaiDK4ndzwMjhBBCCCGEEEJ/UJgDI4QQQgghhBDqLDAHRgghhBBCCCHUWWAOjBBCCCGEEEKos8AcGCGEEEIIIYRQZ4E5MEIIIYQQQgihzgJzYIQQQgghhBBCnYVgyJAhRUVFAMABBwDBwcHPDnq2o8+KnF3FyNnOi5CYYEAIhfsTWoOVxAJWkoaIqCS4P7A1GBMLGBBCYf9rDVYSC1hJGurgSmKZA5NB1NEnYIIxsYABIZSIoKIhB1YSC1hJGiKikmD/aw3GxAIGhFDY/1qDlcQCVpKGOriS4FxohBBCCCGEEEKdBebACCGEEEIIIYQ6i/8PV0zVeBEzpPQAAAAASUVORK5CYII=;" vertex="1" parent="1">
          <mxGeometry x="-980.5" y="1010" width="1281" height="290" as="geometry" />
        </mxCell>
        <mxCell id="EjrTntL3J__PyC1o6Q4W-149" value="" style="rounded=0;whiteSpace=wrap;html=1;" vertex="1" parent="1">
          <mxGeometry x="-1060" y="1430" width="220" height="230" as="geometry" />
        </mxCell>
        <mxCell id="EjrTntL3J__PyC1o6Q4W-150" value="" style="rounded=0;whiteSpace=wrap;html=1;" vertex="1" parent="1">
          <mxGeometry x="-760" y="1430" width="220" height="150" as="geometry" />
        </mxCell>
        <mxCell id="EjrTntL3J__PyC1o6Q4W-151" value="model_smoother" style="text;html=1;align=center;verticalAlign=middle;whiteSpace=wrap;rounded=0;" vertex="1" parent="1">
          <mxGeometry x="-980" y="1500" width="60" height="30" as="geometry" />
        </mxCell>
        <mxCell id="EjrTntL3J__PyC1o6Q4W-152" value="get_tllm_linear_sq_weight" style="text;html=1;align=center;verticalAlign=middle;whiteSpace=wrap;rounded=0;" vertex="1" parent="1">
          <mxGeometry x="-710" y="1440" width="60" height="30" as="geometry" />
        </mxCell>
        <mxCell id="EjrTntL3J__PyC1o6Q4W-153" value="smoother_value" style="text;html=1;align=center;verticalAlign=middle;whiteSpace=wrap;rounded=0;" vertex="1" parent="1">
          <mxGeometry x="-680" y="1500" width="60" height="30" as="geometry" />
        </mxCell>
        <mxCell id="EjrTntL3J__PyC1o6Q4W-154" value="smooth_chatglm_model" style="text;html=1;align=center;verticalAlign=middle;whiteSpace=wrap;rounded=0;" vertex="1" parent="1">
          <mxGeometry x="-1020" y="1440" width="60" height="30" as="geometry" />
        </mxCell>
        <mxCell id="EjrTntL3J__PyC1o6Q4W-155" value="" style="endArrow=classic;html=1;rounded=0;" edge="1" parent="1">
          <mxGeometry width="50" height="50" relative="1" as="geometry">
            <mxPoint x="-880" y="1514.5" as="sourcePoint" />
            <mxPoint x="-720" y="1514.5" as="targetPoint" />
          </mxGeometry>
        </mxCell>
        <mxCell id="EjrTntL3J__PyC1o6Q4W-157" value="" style="rounded=0;whiteSpace=wrap;html=1;" vertex="1" parent="1">
          <mxGeometry x="-1340" y="1430" width="220" height="150" as="geometry" />
        </mxCell>
        <mxCell id="EjrTntL3J__PyC1o6Q4W-158" value="smoother" style="text;html=1;align=center;verticalAlign=middle;whiteSpace=wrap;rounded=0;" vertex="1" parent="1">
          <mxGeometry x="-1260" y="1500" width="60" height="30" as="geometry" />
        </mxCell>
        <mxCell id="EjrTntL3J__PyC1o6Q4W-159" value="smooth_gemm" style="text;html=1;align=center;verticalAlign=middle;whiteSpace=wrap;rounded=0;" vertex="1" parent="1">
          <mxGeometry x="-1320" y="1440" width="60" height="30" as="geometry" />
        </mxCell>
        <mxCell id="EjrTntL3J__PyC1o6Q4W-161" value="" style="endArrow=classic;html=1;rounded=0;" edge="1" parent="1">
          <mxGeometry width="50" height="50" relative="1" as="geometry">
            <mxPoint x="-1170" y="1514.5" as="sourcePoint" />
            <mxPoint x="-1010" y="1514.5" as="targetPoint" />
          </mxGeometry>
        </mxCell>
        <mxCell id="EjrTntL3J__PyC1o6Q4W-162" value="act_range[layer_name][&quot;x&quot;] =&amp;nbsp;&lt;div&gt;act_range[layer_name][&quot;x&quot;] / smoother&lt;/div&gt;" style="text;html=1;align=center;verticalAlign=middle;whiteSpace=wrap;rounded=0;" vertex="1" parent="1">
          <mxGeometry x="-1150" y="1590" width="400" height="30" as="geometry" />
        </mxCell>
        <mxCell id="EjrTntL3J__PyC1o6Q4W-163" value="" style="endArrow=classic;html=1;rounded=0;entryX=0.25;entryY=0;entryDx=0;entryDy=0;" edge="1" parent="1" target="EjrTntL3J__PyC1o6Q4W-162">
          <mxGeometry width="50" height="50" relative="1" as="geometry">
            <mxPoint x="-1170" y="1529" as="sourcePoint" />
            <mxPoint x="-1010" y="1529" as="targetPoint" />
          </mxGeometry>
        </mxCell>
      </root>
    </mxGraphModel>
  </diagram>
</mxfile>
